<?xml version="1.0" encoding="utf-8"?>
<!-- Generator: Adobe Illustrator 19.0.0, SVG Export Plug-In . SVG Version: 6.00 Build 0)  -->
<svg version="1.1" id="Layer_1" xmlns="http://www.w3.org/2000/svg" xmlns:xlink="http://www.w3.org/1999/xlink" x="0px" y="0px"
	 viewBox="0 0 76.8 68.1" style="enable-background:new 0 0 76.8 68.1;" xml:space="preserve">
<style type="text/css">
	.st0{fill-rule:evenodd;clip-rule:evenodd;fill:#163347;}
</style>
<g id="XMLID_6_">
	<path id="XMLID_2_" class="st0" d="M35.6,65.3c-1.2,1.8-3.3,2.9-5.5,2.9c-2.2,0-4.2-1.1-5.5-2.9L1.9,34.2C0.7,32.7,0,31.3,0,29.5
		c0-3.8,3-6.8,6.8-6.8c2.3,0,4.4,1.2,5.6,2.9c0.2,0.3,0.4,0.5,0.6,0.9c0,0,5.5,9,17.1,8.6c13.5-0.5,28.1-22.7,28.1-22.7
		c0.2-0.3,6-9.2,6.1-9.5C65.6,1.2,67.7,0,70,0c3.8,0,6.8,3,6.8,6.8c0,1.8-0.7,3.2-1.9,4.7L35.6,65.3z"/>
</g>
</svg>
