<?xml version="1.0" encoding="utf-8"?>
<!-- Generator: Adobe Illustrator 19.0.0, SVG Export Plug-In . SVG Version: 6.00 Build 0)  -->
<svg version="1.1" id="Analysis" xmlns="http://www.w3.org/2000/svg" xmlns:xlink="http://www.w3.org/1999/xlink" x="0px" y="0px"
	 viewBox="0 0 109.8 92.2" style="enable-background:new 0 0 109.8 92.2;" xml:space="preserve">
<style type="text/css">
	.st0{fill:#CEE5F0;}
	.st1{fill:#76C7DF;}
	.st2{fill:#FFFFFF;}
	.st3{fill:#D2E9F7;}
	.st4{clip-path:url(#XMLID_28_);fill-rule:evenodd;clip-rule:evenodd;fill:#DEE552;}
	.st5{fill:#9ECFEF;}
	.st6{fill:#F6A03F;}
	.st7{fill:#FEFEFE;}
	.st8{fill:#5FB0E5;}
	.st9{clip-path:url(#XMLID_29_);fill-rule:evenodd;clip-rule:evenodd;fill:#D2DF40;}
	.st10{clip-path:url(#XMLID_29_);fill-rule:evenodd;clip-rule:evenodd;fill:#D2DF41;}
	.st11{clip-path:url(#XMLID_29_);fill-rule:evenodd;clip-rule:evenodd;fill:#D3DF41;}
	.st12{clip-path:url(#XMLID_29_);fill-rule:evenodd;clip-rule:evenodd;fill:#D3DF42;}
	.st13{clip-path:url(#XMLID_29_);fill-rule:evenodd;clip-rule:evenodd;fill:#D3E042;}
	.st14{clip-path:url(#XMLID_29_);fill-rule:evenodd;clip-rule:evenodd;fill:#D4E042;}
	.st15{clip-path:url(#XMLID_29_);fill-rule:evenodd;clip-rule:evenodd;fill:#D4E043;}
	.st16{clip-path:url(#XMLID_29_);fill-rule:evenodd;clip-rule:evenodd;fill:#D4E044;}
	.st17{clip-path:url(#XMLID_29_);fill-rule:evenodd;clip-rule:evenodd;fill:#D5E044;}
	.st18{clip-path:url(#XMLID_29_);fill-rule:evenodd;clip-rule:evenodd;fill:#D5E045;}
	.st19{clip-path:url(#XMLID_29_);fill-rule:evenodd;clip-rule:evenodd;fill:#D5E145;}
	.st20{clip-path:url(#XMLID_29_);fill-rule:evenodd;clip-rule:evenodd;fill:#D6E145;}
	.st21{clip-path:url(#XMLID_29_);fill-rule:evenodd;clip-rule:evenodd;fill:#D6E146;}
	.st22{clip-path:url(#XMLID_29_);fill-rule:evenodd;clip-rule:evenodd;fill:#D7E147;}
	.st23{clip-path:url(#XMLID_29_);fill-rule:evenodd;clip-rule:evenodd;fill:#D7E148;}
	.st24{clip-path:url(#XMLID_29_);fill-rule:evenodd;clip-rule:evenodd;fill:#D8E248;}
	.st25{clip-path:url(#XMLID_29_);fill-rule:evenodd;clip-rule:evenodd;fill:#D8E249;}
	.st26{clip-path:url(#XMLID_29_);fill-rule:evenodd;clip-rule:evenodd;fill:#D9E249;}
	.st27{clip-path:url(#XMLID_29_);fill-rule:evenodd;clip-rule:evenodd;fill:#D9E24A;}
	.st28{clip-path:url(#XMLID_29_);fill-rule:evenodd;clip-rule:evenodd;fill:#D9E24B;}
	.st29{clip-path:url(#XMLID_29_);fill-rule:evenodd;clip-rule:evenodd;fill:#DAE24B;}
	.st30{clip-path:url(#XMLID_29_);fill-rule:evenodd;clip-rule:evenodd;fill:#DAE34B;}
	.st31{clip-path:url(#XMLID_29_);fill-rule:evenodd;clip-rule:evenodd;fill:#DAE34C;}
	.st32{clip-path:url(#XMLID_29_);fill-rule:evenodd;clip-rule:evenodd;fill:#DBE34C;}
	.st33{clip-path:url(#XMLID_29_);fill-rule:evenodd;clip-rule:evenodd;fill:#DBE34D;}
	.st34{clip-path:url(#XMLID_29_);fill-rule:evenodd;clip-rule:evenodd;fill:#DBE34E;}
	.st35{clip-path:url(#XMLID_29_);fill-rule:evenodd;clip-rule:evenodd;fill:#DCE34E;}
	.st36{clip-path:url(#XMLID_29_);fill-rule:evenodd;clip-rule:evenodd;fill:#DCE44F;}
	.st37{clip-path:url(#XMLID_29_);fill-rule:evenodd;clip-rule:evenodd;fill:#DDE44F;}
	.st38{clip-path:url(#XMLID_29_);fill-rule:evenodd;clip-rule:evenodd;fill:#DDE450;}
	.st39{clip-path:url(#XMLID_29_);fill-rule:evenodd;clip-rule:evenodd;fill:#DDE451;}
	.st40{clip-path:url(#XMLID_29_);fill-rule:evenodd;clip-rule:evenodd;fill:#DEE451;}
	.st41{clip-path:url(#XMLID_29_);fill-rule:evenodd;clip-rule:evenodd;fill:#DEE452;}
	.st42{clip-path:url(#XMLID_29_);fill-rule:evenodd;clip-rule:evenodd;fill:#DEE552;}
	.st43{clip-path:url(#XMLID_29_);fill-rule:evenodd;clip-rule:evenodd;fill:#DFE552;}
	.st44{clip-path:url(#XMLID_29_);fill-rule:evenodd;clip-rule:evenodd;fill:#DFE553;}
	.st45{clip-path:url(#XMLID_29_);fill-rule:evenodd;clip-rule:evenodd;fill:#DFE554;}
	.st46{clip-path:url(#XMLID_29_);fill-rule:evenodd;clip-rule:evenodd;fill:#E0E554;}
	.st47{clip-path:url(#XMLID_29_);fill-rule:evenodd;clip-rule:evenodd;fill:#E0E555;}
	.st48{clip-path:url(#XMLID_29_);fill-rule:evenodd;clip-rule:evenodd;fill:#E1E655;}
	.st49{clip-path:url(#XMLID_29_);fill-rule:evenodd;clip-rule:evenodd;fill:#E1E656;}
	.st50{clip-path:url(#XMLID_29_);fill-rule:evenodd;clip-rule:evenodd;fill:#E2E657;}
	.st51{clip-path:url(#XMLID_29_);fill-rule:evenodd;clip-rule:evenodd;fill:#E2E658;}
	.st52{clip-path:url(#XMLID_29_);fill-rule:evenodd;clip-rule:evenodd;fill:#E3E658;}
	.st53{clip-path:url(#XMLID_29_);fill-rule:evenodd;clip-rule:evenodd;fill:#E3E758;}
	.st54{clip-path:url(#XMLID_29_);fill-rule:evenodd;clip-rule:evenodd;fill:#E3E759;}
	.st55{clip-path:url(#XMLID_29_);fill-rule:evenodd;clip-rule:evenodd;fill:#E4E759;}
	.st56{clip-path:url(#XMLID_29_);fill-rule:evenodd;clip-rule:evenodd;fill:#E4E75A;}
	.st57{clip-path:url(#XMLID_29_);fill-rule:evenodd;clip-rule:evenodd;fill:#E4E75B;}
	.st58{clip-path:url(#XMLID_29_);fill-rule:evenodd;clip-rule:evenodd;fill:#E5E75B;}
	.st59{clip-path:url(#XMLID_29_);fill-rule:evenodd;clip-rule:evenodd;fill:#E5E85B;}
	.st60{clip-path:url(#XMLID_29_);fill-rule:evenodd;clip-rule:evenodd;fill:#E5E85C;}
	.st61{clip-path:url(#XMLID_29_);fill-rule:evenodd;clip-rule:evenodd;fill:#E6E85C;}
	.st62{clip-path:url(#XMLID_29_);fill-rule:evenodd;clip-rule:evenodd;fill:#E6E85D;}
</style>
<g id="XMLID_571_">
	<path id="XMLID_572_" class="st0" d="M104.5,88.2H5.8c-0.5,0-1-0.5-1-1V16.8c0-0.6,0.5-1,1-1h98.7c0.5,0,1,0.5,1,1v70.4
		C105.5,87.7,105.1,88.2,104.5,88.2L104.5,88.2z"/>
	<path id="XMLID_573_" class="st1" d="M5.6,31.7H4.1V18.3c0-1.8,1.5-3.3,3.3-3.3h10.6v1.5H7.3c-1,0-1.8,0.8-1.8,1.8V31.7z"/>
	<path id="XMLID_574_" class="st1" d="M106.3,35.7h-1.5V18.3c0-1-0.8-1.8-1.8-1.8H92.3V15H103c1.8,0,3.3,1.4,3.3,3.3V35.7z"/>
	<polygon id="XMLID_575_" class="st2" points="100.1,80.2 9.7,80.2 9.7,21.5 100.1,21.5 100.1,43 103.1,43.2 103.2,65.6 100.1,65.6 
			"/>
	<path id="XMLID_576_" class="st2" d="M103.8,92.2H5.5c-2.4,0-4.4-1.7-4.8-4L0,83.9h45.6l1.7,2.5h12.6l1.9-2.5h48l-0.6,3.7
		C108.8,90.3,106.5,92.2,103.8,92.2L103.8,92.2z"/>
	<path id="XMLID_577_" class="st3" d="M89.1,80.2V4.9c0-2.3-1.8-4.1-4.1-4.1H24.8c-2.3,0-4.1,1.8-4.1,4.1v75.3H89.1z"/>
	<path id="XMLID_578_" class="st0" d="M20.7,14.3V4.2c0-1.9,1.5-3.4,3.4-3.4h61.6c1.9,0,3.4,1.5,3.4,3.4v10.1H20.7z"/>
	<path id="XMLID_579_" class="st1" d="M21.4,58.2h-1.5v-54c0-2.3,1.9-4.2,4.2-4.2h9.1v1.5h-9.1c-1.5,0-2.7,1.2-2.7,2.7V58.2z"/>
	<path id="XMLID_580_" class="st1" d="M89.9,80.2h-1.5v-76c0-1.5-1.2-2.7-2.7-2.7H45.1V0h40.6c2.3,0,4.2,1.9,4.2,4.2V80.2z"/>
	<rect id="XMLID_581_" x="36.5" class="st1" width="4.7" height="1.5"/>
	<rect id="XMLID_582_" x="20.7" y="13.7" class="st1" width="68.4" height="1.5"/>
	<rect id="XMLID_583_" x="25.5" y="4.9" class="st1" width="1.7" height="1.5"/>
	<rect id="XMLID_584_" x="29.9" y="4.9" class="st1" width="1.7" height="1.5"/>
	<rect id="XMLID_585_" x="34.2" y="4.9" class="st1" width="1.8" height="1.5"/>
	<rect id="XMLID_586_" x="22.7" y="19.4" class="st2" width="64.1" height="60.8"/>
	<rect id="XMLID_587_" x="42.5" y="8.3" class="st2" width="36.4" height="2.5"/>
	<rect id="XMLID_588_" x="32.2" y="8.3" class="st2" width="8.2" height="2.5"/>
	<rect id="XMLID_589_" x="25.5" y="8.3" class="st2" width="5.2" height="2.5"/>
	<rect id="XMLID_590_" x="26.9" y="23.4" class="st0" width="19.4" height="26.1"/>
	<rect id="XMLID_591_" x="51" y="23.4" class="st0" width="32.1" height="38.5"/>
	<g id="XMLID_593_">
		<defs>
			<rect id="XMLID_592_" x="51" y="68.3" width="32.1" height="6.3"/>
		</defs>
		<use xlink:href="#XMLID_592_"  style="overflow:visible;fill-rule:evenodd;clip-rule:evenodd;fill:#DEE552;"/>
		<clipPath id="XMLID_28_">
			<use xlink:href="#XMLID_592_"  style="overflow:visible;"/>
		</clipPath>
		<polyline id="XMLID_594_" class="st4" points="51,68.3 51,68.3 51,74.6 51,74.6 		"/>
		<polyline id="XMLID_595_" class="st4" points="51,68.3 51.2,68.3 51.2,74.6 51,74.6 		"/>
		<polyline id="XMLID_596_" class="st4" points="51.1,68.3 51.3,68.3 51.3,74.6 51.1,74.6 		"/>
		<polyline id="XMLID_597_" class="st4" points="51.2,68.3 51.4,68.3 51.4,74.6 51.2,74.6 		"/>
		<polyline id="XMLID_598_" class="st4" points="51.3,68.3 51.5,68.3 51.5,74.6 51.3,74.6 		"/>
		<polyline id="XMLID_599_" class="st4" points="51.5,68.3 51.6,68.3 51.6,74.6 51.5,74.6 		"/>
		<polyline id="XMLID_600_" class="st4" points="51.6,68.3 51.8,68.3 51.8,74.6 51.6,74.6 		"/>
		<polyline id="XMLID_601_" class="st4" points="51.7,68.3 51.9,68.3 51.9,74.6 51.7,74.6 		"/>
		<polyline id="XMLID_602_" class="st4" points="51.8,68.3 52,68.3 52,74.6 51.8,74.6 		"/>
		<polyline id="XMLID_603_" class="st4" points="52,68.3 52.2,68.3 52.2,74.6 52,74.6 		"/>
		<polyline id="XMLID_604_" class="st4" points="52.1,68.3 52.3,68.3 52.3,74.6 52.1,74.6 		"/>
		<polyline id="XMLID_605_" class="st4" points="52.2,68.3 52.4,68.3 52.4,74.6 52.2,74.6 		"/>
		<polyline id="XMLID_606_" class="st4" points="52.4,68.3 52.5,68.3 52.5,74.6 52.4,74.6 		"/>
		<polyline id="XMLID_607_" class="st4" points="52.5,68.3 52.7,68.3 52.7,74.6 52.5,74.6 		"/>
		<polyline id="XMLID_608_" class="st4" points="52.6,68.3 52.8,68.3 52.8,74.6 52.6,74.6 		"/>
		<polyline id="XMLID_609_" class="st4" points="52.7,68.3 52.9,68.3 52.9,74.6 52.7,74.6 		"/>
		<polyline id="XMLID_610_" class="st4" points="52.8,68.3 53,68.3 53,74.6 52.8,74.6 		"/>
		<polyline id="XMLID_611_" class="st4" points="53,68.3 53.1,68.3 53.1,74.6 53,74.6 		"/>
		<polyline id="XMLID_612_" class="st4" points="53.1,68.3 53.3,68.3 53.3,74.6 53.1,74.6 		"/>
		<polyline id="XMLID_613_" class="st4" points="53.2,68.3 53.4,68.3 53.4,74.6 53.2,74.6 		"/>
		<polyline id="XMLID_614_" class="st4" points="53.3,68.3 53.5,68.3 53.5,74.6 53.3,74.6 		"/>
		<polyline id="XMLID_615_" class="st4" points="53.5,68.3 53.7,68.3 53.7,74.6 53.5,74.6 		"/>
		<polyline id="XMLID_616_" class="st4" points="53.6,68.3 53.8,68.3 53.8,74.6 53.6,74.6 		"/>
		<polyline id="XMLID_617_" class="st4" points="53.7,68.3 53.9,68.3 53.9,74.6 53.7,74.6 		"/>
		<polyline id="XMLID_618_" class="st4" points="53.9,68.3 54,68.3 54,74.6 53.9,74.6 		"/>
		<polyline id="XMLID_620_" class="st4" points="54,68.3 54.2,68.3 54.2,74.6 54,74.6 		"/>
		<polyline id="XMLID_621_" class="st4" points="54.1,68.3 54.3,68.3 54.3,74.6 54.1,74.6 		"/>
		<polyline id="XMLID_623_" class="st4" points="54.2,68.3 54.4,68.3 54.4,74.6 54.2,74.6 		"/>
		<polyline id="XMLID_624_" class="st4" points="54.3,68.3 54.5,68.3 54.5,74.6 54.3,74.6 		"/>
		<polyline id="XMLID_627_" class="st4" points="54.5,68.3 54.7,68.3 54.7,74.6 54.5,74.6 		"/>
		<polyline id="XMLID_628_" class="st4" points="54.6,68.3 54.8,68.3 54.8,74.6 54.6,74.6 		"/>
		<polyline id="XMLID_629_" class="st4" points="54.7,68.3 54.9,68.3 54.9,74.6 54.7,74.6 		"/>
		<polyline id="XMLID_630_" class="st4" points="54.9,68.3 55,68.3 55,74.6 54.9,74.6 		"/>
		<polyline id="XMLID_631_" class="st4" points="55,68.3 55.2,68.3 55.2,74.6 55,74.6 		"/>
		<polyline id="XMLID_632_" class="st4" points="55.1,68.3 55.3,68.3 55.3,74.6 55.1,74.6 		"/>
		<polyline id="XMLID_633_" class="st4" points="55.2,68.3 55.4,68.3 55.4,74.6 55.2,74.6 		"/>
		<polyline id="XMLID_634_" class="st4" points="55.4,68.3 55.5,68.3 55.5,74.6 55.4,74.6 		"/>
		<polyline id="XMLID_635_" class="st4" points="55.5,68.3 55.7,68.3 55.7,74.6 55.5,74.6 		"/>
		<polyline id="XMLID_636_" class="st4" points="55.6,68.3 55.8,68.3 55.8,74.6 55.6,74.6 		"/>
		<polyline id="XMLID_637_" class="st4" points="55.7,68.3 55.9,68.3 55.9,74.6 55.7,74.6 		"/>
		<polyline id="XMLID_638_" class="st4" points="55.8,68.3 56,68.3 56,74.6 55.8,74.6 		"/>
		<polyline id="XMLID_639_" class="st4" points="56,68.3 56.2,68.3 56.2,74.6 56,74.6 		"/>
		<polyline id="XMLID_640_" class="st4" points="56.1,68.3 56.3,68.3 56.3,74.6 56.1,74.6 		"/>
		<polyline id="XMLID_641_" class="st4" points="56.2,68.3 56.4,68.3 56.4,74.6 56.2,74.6 		"/>
		<polyline id="XMLID_642_" class="st4" points="56.4,68.3 56.6,68.3 56.6,74.6 56.4,74.6 		"/>
		<polyline id="XMLID_643_" class="st4" points="56.5,68.3 56.7,68.3 56.7,74.6 56.5,74.6 		"/>
		<polyline id="XMLID_644_" class="st4" points="56.6,68.3 56.8,68.3 56.8,74.6 56.6,74.6 		"/>
		<polyline id="XMLID_645_" class="st4" points="56.7,68.3 56.9,68.3 56.9,74.6 56.7,74.6 		"/>
		<polyline id="XMLID_646_" class="st4" points="56.9,68.3 57,68.3 57,74.6 56.9,74.6 		"/>
		<polyline id="XMLID_647_" class="st4" points="57,68.3 57.2,68.3 57.2,74.6 57,74.6 		"/>
		<polyline id="XMLID_648_" class="st4" points="57.1,68.3 57.3,68.3 57.3,74.6 57.1,74.6 		"/>
		<polyline id="XMLID_649_" class="st4" points="57.2,68.3 57.4,68.3 57.4,74.6 57.2,74.6 		"/>
		<polyline id="XMLID_650_" class="st4" points="57.3,68.3 57.5,68.3 57.5,74.6 57.3,74.6 		"/>
		<polyline id="XMLID_651_" class="st4" points="57.5,68.3 57.7,68.3 57.7,74.6 57.5,74.6 		"/>
		<polyline id="XMLID_652_" class="st4" points="57.6,68.3 57.8,68.3 57.8,74.6 57.6,74.6 		"/>
		<polyline id="XMLID_653_" class="st4" points="57.7,68.3 57.9,68.3 57.9,74.6 57.7,74.6 		"/>
		<polyline id="XMLID_654_" class="st4" points="57.9,68.3 58.1,68.3 58.1,74.6 57.9,74.6 		"/>
		<polyline id="XMLID_655_" class="st4" points="58,68.3 58.2,68.3 58.2,74.6 58,74.6 		"/>
		<polyline id="XMLID_656_" class="st4" points="58.1,68.3 58.3,68.3 58.3,74.6 58.1,74.6 		"/>
		<polyline id="XMLID_657_" class="st4" points="58.2,68.3 58.4,68.3 58.4,74.6 58.2,74.6 		"/>
		<polyline id="XMLID_658_" class="st4" points="58.4,68.3 58.5,68.3 58.5,74.6 58.4,74.6 		"/>
		<polyline id="XMLID_659_" class="st4" points="58.5,68.3 58.7,68.3 58.7,74.6 58.5,74.6 		"/>
		<polyline id="XMLID_660_" class="st4" points="58.6,68.3 58.8,68.3 58.8,74.6 58.6,74.6 		"/>
		<polyline id="XMLID_661_" class="st4" points="58.7,68.3 58.9,68.3 58.9,74.6 58.7,74.6 		"/>
		<polyline id="XMLID_662_" class="st4" points="58.8,68.3 59,68.3 59,74.6 58.8,74.6 		"/>
		<polyline id="XMLID_663_" class="st4" points="59,68.3 59.2,68.3 59.2,74.6 59,74.6 		"/>
		<polyline id="XMLID_664_" class="st4" points="59.1,68.3 59.3,68.3 59.3,74.6 59.1,74.6 		"/>
		<polyline id="XMLID_665_" class="st4" points="59.2,68.3 59.4,68.3 59.4,74.6 59.2,74.6 		"/>
		<polyline id="XMLID_666_" class="st4" points="59.4,68.3 59.6,68.3 59.6,74.6 59.4,74.6 		"/>
		<polyline id="XMLID_667_" class="st4" points="59.5,68.3 59.7,68.3 59.7,74.6 59.5,74.6 		"/>
		<polyline id="XMLID_668_" class="st4" points="59.6,68.3 59.8,68.3 59.8,74.6 59.6,74.6 		"/>
		<polyline id="XMLID_669_" class="st4" points="59.7,68.3 59.9,68.3 59.9,74.6 59.7,74.6 		"/>
		<polyline id="XMLID_670_" class="st4" points="59.9,68.3 60,68.3 60,74.6 59.9,74.6 		"/>
		<polyline id="XMLID_671_" class="st4" points="60,68.3 60.2,68.3 60.2,74.6 60,74.6 		"/>
		<polyline id="XMLID_672_" class="st4" points="60.1,68.3 60.3,68.3 60.3,74.6 60.1,74.6 		"/>
		<polyline id="XMLID_673_" class="st4" points="60.2,68.3 60.4,68.3 60.4,74.6 60.2,74.6 		"/>
		<polyline id="XMLID_674_" class="st4" points="60.3,68.3 60.5,68.3 60.5,74.6 60.3,74.6 		"/>
		<polyline id="XMLID_675_" class="st4" points="60.5,68.3 60.7,68.3 60.7,74.6 60.5,74.6 		"/>
		<polyline id="XMLID_676_" class="st4" points="60.6,68.3 60.8,68.3 60.8,74.6 60.6,74.6 		"/>
		<polyline id="XMLID_677_" class="st4" points="60.7,68.3 60.9,68.3 60.9,74.6 60.7,74.6 		"/>
		<polyline id="XMLID_678_" class="st4" points="60.9,68.3 61.1,68.3 61.1,74.6 60.9,74.6 		"/>
		<polyline id="XMLID_679_" class="st4" points="61,68.3 61.2,68.3 61.2,74.6 61,74.6 		"/>
		<polyline id="XMLID_680_" class="st4" points="61.1,68.3 61.3,68.3 61.3,74.6 61.1,74.6 		"/>
		<polyline id="XMLID_681_" class="st4" points="61.2,68.3 61.4,68.3 61.4,74.6 61.2,74.6 		"/>
		<polyline id="XMLID_682_" class="st4" points="61.4,68.3 61.5,68.3 61.5,74.6 61.4,74.6 		"/>
		<polyline id="XMLID_683_" class="st4" points="61.5,68.3 61.7,68.3 61.7,74.6 61.5,74.6 		"/>
		<polyline id="XMLID_684_" class="st4" points="61.6,68.3 61.8,68.3 61.8,74.6 61.6,74.6 		"/>
		<polyline id="XMLID_685_" class="st4" points="61.7,68.3 61.9,68.3 61.9,74.6 61.7,74.6 		"/>
		<polyline id="XMLID_686_" class="st4" points="61.9,68.3 62.1,68.3 62.1,74.6 61.9,74.6 		"/>
		<polyline id="XMLID_687_" class="st4" points="62,68.3 62.2,68.3 62.2,74.6 62,74.6 		"/>
		<polyline id="XMLID_688_" class="st4" points="62.1,68.3 62.3,68.3 62.3,74.6 62.1,74.6 		"/>
		<polyline id="XMLID_690_" class="st4" points="62.2,68.3 62.4,68.3 62.4,74.6 62.2,74.6 		"/>
		<polyline id="XMLID_691_" class="st4" points="62.4,68.3 62.6,68.3 62.6,74.6 62.4,74.6 		"/>
		<polyline id="XMLID_693_" class="st4" points="62.5,68.3 62.7,68.3 62.7,74.6 62.5,74.6 		"/>
		<polyline id="XMLID_704_" class="st4" points="62.6,68.3 62.8,68.3 62.8,74.6 62.6,74.6 		"/>
		<polyline id="XMLID_710_" class="st4" points="62.7,68.3 62.9,68.3 62.9,74.6 62.7,74.6 		"/>
		<polyline id="XMLID_719_" class="st4" points="62.9,68.3 63,68.3 63,74.6 62.9,74.6 		"/>
		<polyline id="XMLID_720_" class="st4" points="63,68.3 63.2,68.3 63.2,74.6 63,74.6 		"/>
		<polyline id="XMLID_721_" class="st4" points="63.1,68.3 63.3,68.3 63.3,74.6 63.1,74.6 		"/>
		<polyline id="XMLID_722_" class="st4" points="63.2,68.3 63.4,68.3 63.4,74.6 63.2,74.6 		"/>
		<polyline id="XMLID_723_" class="st4" points="63.4,68.3 63.6,68.3 63.6,74.6 63.4,74.6 		"/>
		<polyline id="XMLID_724_" class="st4" points="63.5,68.3 63.7,68.3 63.7,74.6 63.5,74.6 		"/>
		<polyline id="XMLID_725_" class="st4" points="63.6,68.3 63.8,68.3 63.8,74.6 63.6,74.6 		"/>
		<polyline id="XMLID_726_" class="st4" points="63.8,68.3 63.9,68.3 63.9,74.6 63.8,74.6 		"/>
		<polyline id="XMLID_727_" class="st4" points="63.9,68.3 64.1,68.3 64.1,74.6 63.9,74.6 		"/>
		<polyline id="XMLID_734_" class="st4" points="64,68.3 64.2,68.3 64.2,74.6 64,74.6 		"/>
		<polyline id="XMLID_735_" class="st4" points="64.1,68.3 64.3,68.3 64.3,74.6 64.1,74.6 		"/>
		<polyline id="XMLID_736_" class="st4" points="64.2,68.3 64.4,68.3 64.4,74.6 64.2,74.6 		"/>
		<polyline id="XMLID_737_" class="st4" points="64.4,68.3 64.6,68.3 64.6,74.6 64.4,74.6 		"/>
		<polyline id="XMLID_738_" class="st4" points="64.5,68.3 64.7,68.3 64.7,74.6 64.5,74.6 		"/>
		<polyline id="XMLID_739_" class="st4" points="64.6,68.3 64.8,68.3 64.8,74.6 64.6,74.6 		"/>
		<polyline id="XMLID_740_" class="st4" points="64.7,68.3 64.9,68.3 64.9,74.6 64.7,74.6 		"/>
		<polyline id="XMLID_741_" class="st4" points="64.9,68.3 65.1,68.3 65.1,74.6 64.9,74.6 		"/>
		<polyline id="XMLID_742_" class="st4" points="65,68.3 65.2,68.3 65.2,74.6 65,74.6 		"/>
		<polyline id="XMLID_743_" class="st4" points="65.1,68.3 65.3,68.3 65.3,74.6 65.1,74.6 		"/>
		<polyline id="XMLID_744_" class="st4" points="65.3,68.3 65.4,68.3 65.4,74.6 65.3,74.6 		"/>
		<polyline id="XMLID_745_" class="st4" points="65.4,68.3 65.6,68.3 65.6,74.6 65.4,74.6 		"/>
		<polyline id="XMLID_746_" class="st4" points="65.5,68.3 65.7,68.3 65.7,74.6 65.5,74.6 		"/>
		<polyline id="XMLID_747_" class="st4" points="65.6,68.3 65.8,68.3 65.8,74.6 65.6,74.6 		"/>
		<polyline id="XMLID_748_" class="st4" points="65.8,68.3 65.9,68.3 65.9,74.6 65.8,74.6 		"/>
		<polyline id="XMLID_756_" class="st4" points="65.9,68.3 66.1,68.3 66.1,74.6 65.9,74.6 		"/>
		<polyline id="XMLID_757_" class="st4" points="66,68.3 66.2,68.3 66.2,74.6 66,74.6 		"/>
		<polyline id="XMLID_758_" class="st4" points="66.1,68.3 66.3,68.3 66.3,74.6 66.1,74.6 		"/>
		<polyline id="XMLID_759_" class="st4" points="66.2,68.3 66.4,68.3 66.4,74.6 66.2,74.6 		"/>
		<polyline id="XMLID_760_" class="st4" points="66.4,68.3 66.6,68.3 66.6,74.6 66.4,74.6 		"/>
		<polyline id="XMLID_761_" class="st4" points="66.5,68.3 66.7,68.3 66.7,74.6 66.5,74.6 		"/>
		<polyline id="XMLID_762_" class="st4" points="66.6,68.3 66.8,68.3 66.8,74.6 66.6,74.6 		"/>
		<polyline id="XMLID_763_" class="st4" points="66.8,68.3 66.9,68.3 66.9,74.6 66.8,74.6 		"/>
		<polyline id="XMLID_764_" class="st4" points="66.9,68.3 67.1,68.3 67.1,74.6 66.9,74.6 		"/>
		<polyline id="XMLID_765_" class="st4" points="67,68.3 67.2,68.3 67.2,74.6 67,74.6 		"/>
		<polyline id="XMLID_766_" class="st4" points="67.1,68.3 67.3,68.3 67.3,74.6 67.1,74.6 		"/>
		<polyline id="XMLID_767_" class="st4" points="67.3,68.3 67.4,68.3 67.4,74.6 67.3,74.6 		"/>
		<polyline id="XMLID_768_" class="st4" points="67.4,68.3 67.6,68.3 67.6,74.6 67.4,74.6 		"/>
		<polyline id="XMLID_769_" class="st4" points="67.5,68.3 67.7,68.3 67.7,74.6 67.5,74.6 		"/>
		<polyline id="XMLID_770_" class="st4" points="67.6,68.3 67.8,68.3 67.8,74.6 67.6,74.6 		"/>
		<polyline id="XMLID_771_" class="st4" points="67.7,68.3 67.9,68.3 67.9,74.6 67.7,74.6 		"/>
		<polyline id="XMLID_772_" class="st4" points="67.9,68.3 68.1,68.3 68.1,74.6 67.9,74.6 		"/>
		<polyline id="XMLID_773_" class="st4" points="68,68.3 68.2,68.3 68.2,74.6 68,74.6 		"/>
		<polyline id="XMLID_774_" class="st4" points="68.1,68.3 68.3,68.3 68.3,74.6 68.1,74.6 		"/>
		<polyline id="XMLID_775_" class="st4" points="68.3,68.3 68.5,68.3 68.5,74.6 68.3,74.6 		"/>
		<polyline id="XMLID_776_" class="st4" points="68.4,68.3 68.6,68.3 68.6,74.6 68.4,74.6 		"/>
		<polyline id="XMLID_777_" class="st4" points="68.5,68.3 68.7,68.3 68.7,74.6 68.5,74.6 		"/>
		<polyline id="XMLID_778_" class="st4" points="68.6,68.3 68.8,68.3 68.8,74.6 68.6,74.6 		"/>
		<polyline id="XMLID_779_" class="st4" points="68.8,68.3 68.9,68.3 68.9,74.6 68.8,74.6 		"/>
		<polyline id="XMLID_780_" class="st4" points="68.9,68.3 69.1,68.3 69.1,74.6 68.9,74.6 		"/>
		<polyline id="XMLID_781_" class="st4" points="69,68.3 69.2,68.3 69.2,74.6 69,74.6 		"/>
		<polyline id="XMLID_782_" class="st4" points="69.1,68.3 69.3,68.3 69.3,74.6 69.1,74.6 		"/>
		<polyline id="XMLID_783_" class="st4" points="69.3,68.3 69.4,68.3 69.4,74.6 69.3,74.6 		"/>
		<polyline id="XMLID_784_" class="st4" points="69.4,68.3 69.6,68.3 69.6,74.6 69.4,74.6 		"/>
		<polyline id="XMLID_785_" class="st4" points="69.5,68.3 69.7,68.3 69.7,74.6 69.5,74.6 		"/>
		<polyline id="XMLID_786_" class="st4" points="69.6,68.3 69.8,68.3 69.8,74.6 69.6,74.6 		"/>
		<polyline id="XMLID_787_" class="st4" points="69.8,68.3 70,68.3 70,74.6 69.8,74.6 		"/>
		<polyline id="XMLID_788_" class="st4" points="69.9,68.3 70.1,68.3 70.1,74.6 69.9,74.6 		"/>
		<polyline id="XMLID_789_" class="st4" points="70,68.3 70.2,68.3 70.2,74.6 70,74.6 		"/>
		<polyline id="XMLID_790_" class="st4" points="70.1,68.3 70.3,68.3 70.3,74.6 70.1,74.6 		"/>
		<polyline id="XMLID_791_" class="st4" points="70.3,68.3 70.4,68.3 70.4,74.6 70.3,74.6 		"/>
		<polyline id="XMLID_792_" class="st4" points="70.4,68.3 70.6,68.3 70.6,74.6 70.4,74.6 		"/>
		<polyline id="XMLID_793_" class="st4" points="70.5,68.3 70.7,68.3 70.7,74.6 70.5,74.6 		"/>
		<polyline id="XMLID_794_" class="st4" points="70.6,68.3 70.8,68.3 70.8,74.6 70.6,74.6 		"/>
		<polyline id="XMLID_795_" class="st4" points="70.8,68.3 71,68.3 71,74.6 70.8,74.6 		"/>
		<polyline id="XMLID_796_" class="st4" points="70.9,68.3 71.1,68.3 71.1,74.6 70.9,74.6 		"/>
		<polyline id="XMLID_800_" class="st4" points="71,68.3 71.2,68.3 71.2,74.6 71,74.6 		"/>
		<polyline id="XMLID_803_" class="st4" points="71.1,68.3 71.3,68.3 71.3,74.6 71.1,74.6 		"/>
		<polyline id="XMLID_804_" class="st4" points="71.3,68.3 71.5,68.3 71.5,74.6 71.3,74.6 		"/>
		<polyline id="XMLID_805_" class="st4" points="71.4,68.3 71.6,68.3 71.6,74.6 71.4,74.6 		"/>
		<polyline id="XMLID_806_" class="st4" points="71.5,68.3 71.7,68.3 71.7,74.6 71.5,74.6 		"/>
		<polyline id="XMLID_807_" class="st4" points="71.6,68.3 71.8,68.3 71.8,74.6 71.6,74.6 		"/>
		<polyline id="XMLID_808_" class="st4" points="71.8,68.3 71.9,68.3 71.9,74.6 71.8,74.6 		"/>
		<polyline id="XMLID_813_" class="st4" points="71.9,68.3 72.1,68.3 72.1,74.6 71.9,74.6 		"/>
		<polyline id="XMLID_814_" class="st4" points="72,68.3 72.2,68.3 72.2,74.6 72,74.6 		"/>
		<polyline id="XMLID_815_" class="st4" points="72.1,68.3 72.3,68.3 72.3,74.6 72.1,74.6 		"/>
		<polyline id="XMLID_816_" class="st4" points="72.3,68.3 72.5,68.3 72.5,74.6 72.3,74.6 		"/>
		<polyline id="XMLID_817_" class="st4" points="72.4,68.3 72.6,68.3 72.6,74.6 72.4,74.6 		"/>
		<polyline id="XMLID_818_" class="st4" points="72.5,68.3 72.7,68.3 72.7,74.6 72.5,74.6 		"/>
		<polyline id="XMLID_819_" class="st4" points="72.7,68.3 72.8,68.3 72.8,74.6 72.7,74.6 		"/>
		<polyline id="XMLID_820_" class="st4" points="72.8,68.3 73,68.3 73,74.6 72.8,74.6 		"/>
		<polyline id="XMLID_821_" class="st4" points="72.9,68.3 73.1,68.3 73.1,74.6 72.9,74.6 		"/>
		<polyline id="XMLID_822_" class="st4" points="73,68.3 73.2,68.3 73.2,74.6 73,74.6 		"/>
		<polyline id="XMLID_823_" class="st4" points="73.1,68.3 73.3,68.3 73.3,74.6 73.1,74.6 		"/>
		<polyline id="XMLID_824_" class="st4" points="73.3,68.3 73.4,68.3 73.4,74.6 73.3,74.6 		"/>
		<polyline id="XMLID_825_" class="st4" points="73.4,68.3 73.6,68.3 73.6,74.6 73.4,74.6 		"/>
		<polyline id="XMLID_826_" class="st4" points="73.5,68.3 73.7,68.3 73.7,74.6 73.5,74.6 		"/>
		<polyline id="XMLID_827_" class="st4" points="73.6,68.3 73.8,68.3 73.8,74.6 73.6,74.6 		"/>
		<polyline id="XMLID_828_" class="st4" points="73.8,68.3 74,68.3 74,74.6 73.8,74.6 		"/>
		<polyline id="XMLID_829_" class="st4" points="73.9,68.3 74.1,68.3 74.1,74.6 73.9,74.6 		"/>
		<polyline id="XMLID_830_" class="st4" points="74,68.3 74.2,68.3 74.2,74.6 74,74.6 		"/>
		<polyline id="XMLID_831_" class="st4" points="74.2,68.3 74.3,68.3 74.3,74.6 74.2,74.6 		"/>
		<polyline id="XMLID_832_" class="st4" points="74.3,68.3 74.5,68.3 74.5,74.6 74.3,74.6 		"/>
		<polyline id="XMLID_833_" class="st4" points="74.4,68.3 74.6,68.3 74.6,74.6 74.4,74.6 		"/>
		<polyline id="XMLID_834_" class="st4" points="74.5,68.3 74.7,68.3 74.7,74.6 74.5,74.6 		"/>
		<polyline id="XMLID_835_" class="st4" points="74.6,68.3 74.8,68.3 74.8,74.6 74.6,74.6 		"/>
		<polyline id="XMLID_836_" class="st4" points="74.8,68.3 74.9,68.3 74.9,74.6 74.8,74.6 		"/>
		<polyline id="XMLID_837_" class="st4" points="74.9,68.3 75.1,68.3 75.1,74.6 74.9,74.6 		"/>
		<polyline id="XMLID_838_" class="st4" points="75,68.3 75.2,68.3 75.2,74.6 75,74.6 		"/>
		<polyline id="XMLID_839_" class="st4" points="75.1,68.3 75.3,68.3 75.3,74.6 75.1,74.6 		"/>
		<polyline id="XMLID_840_" class="st4" points="75.3,68.3 75.5,68.3 75.5,74.6 75.3,74.6 		"/>
		<polyline id="XMLID_841_" class="st4" points="75.4,68.3 75.6,68.3 75.6,74.6 75.4,74.6 		"/>
		<polyline id="XMLID_842_" class="st4" points="75.5,68.3 75.7,68.3 75.7,74.6 75.5,74.6 		"/>
		<polyline id="XMLID_843_" class="st4" points="75.7,68.3 75.8,68.3 75.8,74.6 75.7,74.6 		"/>
		<polyline id="XMLID_844_" class="st4" points="75.8,68.3 76,68.3 76,74.6 75.8,74.6 		"/>
		<polyline id="XMLID_845_" class="st4" points="75.9,68.3 76.1,68.3 76.1,74.6 75.9,74.6 		"/>
		<polyline id="XMLID_846_" class="st4" points="76,68.3 76.2,68.3 76.2,74.6 76,74.6 		"/>
		<polyline id="XMLID_847_" class="st4" points="76.1,68.3 76.3,68.3 76.3,74.6 76.1,74.6 		"/>
		<polyline id="XMLID_848_" class="st4" points="76.3,68.3 76.5,68.3 76.5,74.6 76.3,74.6 		"/>
		<polyline id="XMLID_849_" class="st4" points="76.4,68.3 76.6,68.3 76.6,74.6 76.4,74.6 		"/>
		<polyline id="XMLID_850_" class="st4" points="76.5,68.3 76.7,68.3 76.7,74.6 76.5,74.6 		"/>
		<polyline id="XMLID_851_" class="st4" points="76.6,68.3 76.8,68.3 76.8,74.6 76.6,74.6 		"/>
		<polyline id="XMLID_852_" class="st4" points="76.8,68.3 77,68.3 77,74.6 76.8,74.6 		"/>
		<polyline id="XMLID_853_" class="st4" points="76.9,68.3 77.1,68.3 77.1,74.6 76.9,74.6 		"/>
		<polyline id="XMLID_854_" class="st4" points="77,68.3 77.2,68.3 77.2,74.6 77,74.6 		"/>
		<polyline id="XMLID_855_" class="st4" points="77.2,68.3 77.3,68.3 77.3,74.6 77.2,74.6 		"/>
		<polyline id="XMLID_856_" class="st4" points="77.3,68.3 77.5,68.3 77.5,74.6 77.3,74.6 		"/>
		<polyline id="XMLID_857_" class="st4" points="77.4,68.3 77.6,68.3 77.6,74.6 77.4,74.6 		"/>
		<polyline id="XMLID_858_" class="st4" points="77.5,68.3 77.7,68.3 77.7,74.6 77.5,74.6 		"/>
		<polyline id="XMLID_859_" class="st4" points="77.6,68.3 77.8,68.3 77.8,74.6 77.6,74.6 		"/>
		<polyline id="XMLID_860_" class="st4" points="77.8,68.3 78,68.3 78,74.6 77.8,74.6 		"/>
		<polyline id="XMLID_861_" class="st4" points="77.9,68.3 78.1,68.3 78.1,74.6 77.9,74.6 		"/>
		<polyline id="XMLID_862_" class="st4" points="78,68.3 78.2,68.3 78.2,74.6 78,74.6 		"/>
		<polyline id="XMLID_863_" class="st4" points="78.2,68.3 78.3,68.3 78.3,74.6 78.2,74.6 		"/>
		<polyline id="XMLID_864_" class="st4" points="78.3,68.3 78.5,68.3 78.5,74.6 78.3,74.6 		"/>
		<polyline id="XMLID_865_" class="st4" points="78.4,68.3 78.6,68.3 78.6,74.6 78.4,74.6 		"/>
		<polyline id="XMLID_866_" class="st4" points="78.5,68.3 78.7,68.3 78.7,74.6 78.5,74.6 		"/>
		<polyline id="XMLID_867_" class="st4" points="78.7,68.3 78.8,68.3 78.8,74.6 78.7,74.6 		"/>
		<polyline id="XMLID_868_" class="st4" points="78.8,68.3 79,68.3 79,74.6 78.8,74.6 		"/>
		<polyline id="XMLID_869_" class="st4" points="78.9,68.3 79.1,68.3 79.1,74.6 78.9,74.6 		"/>
		<polyline id="XMLID_870_" class="st4" points="79,68.3 79.2,68.3 79.2,74.6 79,74.6 		"/>
		<polyline id="XMLID_871_" class="st4" points="79.1,68.3 79.3,68.3 79.3,74.6 79.1,74.6 		"/>
		<polyline id="XMLID_872_" class="st4" points="79.3,68.3 79.5,68.3 79.5,74.6 79.3,74.6 		"/>
		<polyline id="XMLID_873_" class="st4" points="79.4,68.3 79.6,68.3 79.6,74.6 79.4,74.6 		"/>
		<polyline id="XMLID_874_" class="st4" points="79.5,68.3 79.7,68.3 79.7,74.6 79.5,74.6 		"/>
		<polyline id="XMLID_875_" class="st4" points="79.7,68.3 79.9,68.3 79.9,74.6 79.7,74.6 		"/>
		<polyline id="XMLID_876_" class="st4" points="79.8,68.3 80,68.3 80,74.6 79.8,74.6 		"/>
		<polyline id="XMLID_877_" class="st4" points="79.9,68.3 80.1,68.3 80.1,74.6 79.9,74.6 		"/>
		<polyline id="XMLID_878_" class="st4" points="80,68.3 80.2,68.3 80.2,74.6 80,74.6 		"/>
		<polyline id="XMLID_879_" class="st4" points="80.2,68.3 80.3,68.3 80.3,74.6 80.2,74.6 		"/>
		<polyline id="XMLID_880_" class="st4" points="80.3,68.3 80.5,68.3 80.5,74.6 80.3,74.6 		"/>
		<polyline id="XMLID_881_" class="st4" points="80.4,68.3 80.6,68.3 80.6,74.6 80.4,74.6 		"/>
		<polyline id="XMLID_882_" class="st4" points="80.5,68.3 80.7,68.3 80.7,74.6 80.5,74.6 		"/>
		<polyline id="XMLID_883_" class="st4" points="80.6,68.3 80.8,68.3 80.8,74.6 80.6,74.6 		"/>
		<polyline id="XMLID_884_" class="st4" points="80.8,68.3 81,68.3 81,74.6 80.8,74.6 		"/>
		<polyline id="XMLID_885_" class="st4" points="80.9,68.3 81.1,68.3 81.1,74.6 80.9,74.6 		"/>
		<polyline id="XMLID_886_" class="st4" points="81,68.3 81.2,68.3 81.2,74.6 81,74.6 		"/>
		<polyline id="XMLID_887_" class="st4" points="81.2,68.3 81.4,68.3 81.4,74.6 81.2,74.6 		"/>
		<polyline id="XMLID_888_" class="st4" points="81.3,68.3 81.5,68.3 81.5,74.6 81.3,74.6 		"/>
		<polyline id="XMLID_889_" class="st4" points="81.4,68.3 81.6,68.3 81.6,74.6 81.4,74.6 		"/>
		<polyline id="XMLID_890_" class="st4" points="81.5,68.3 81.7,68.3 81.7,74.6 81.5,74.6 		"/>
		<polyline id="XMLID_891_" class="st4" points="81.7,68.3 81.8,68.3 81.8,74.6 81.7,74.6 		"/>
		<polyline id="XMLID_892_" class="st4" points="81.8,68.3 82,68.3 82,74.6 81.8,74.6 		"/>
		<polyline id="XMLID_893_" class="st4" points="81.9,68.3 82.1,68.3 82.1,74.6 81.9,74.6 		"/>
		<polyline id="XMLID_894_" class="st4" points="82,68.3 82.2,68.3 82.2,74.6 82,74.6 		"/>
		<polyline id="XMLID_895_" class="st4" points="82.1,68.3 82.3,68.3 82.3,74.6 82.1,74.6 		"/>
		<polyline id="XMLID_896_" class="st4" points="82.3,68.3 82.5,68.3 82.5,74.6 82.3,74.6 		"/>
		<polyline id="XMLID_897_" class="st4" points="82.4,68.3 82.6,68.3 82.6,74.6 82.4,74.6 		"/>
		<polyline id="XMLID_898_" class="st4" points="82.5,68.3 82.7,68.3 82.7,74.6 82.5,74.6 		"/>
		<polyline id="XMLID_899_" class="st4" points="82.7,68.3 82.9,68.3 82.9,74.6 82.7,74.6 		"/>
		<polyline id="XMLID_900_" class="st4" points="82.8,68.3 83,68.3 83,74.6 82.8,74.6 		"/>
	</g>
	<path id="XMLID_901_" class="st5" d="M35,57.3h-6.8c-0.5,0-1-0.4-1-1s0.4-1,1-1H35c0.5,0,1,0.4,1,1S35.5,57.3,35,57.3L35,57.3z"/>
	<path id="XMLID_902_" class="st6" d="M44.6,57.3h-6.7c-0.5,0-1-0.4-1-1s0.4-1,1-1h6.7c0.5,0,1,0.4,1,1S45.1,57.3,44.6,57.3
		L44.6,57.3z"/>
</g>
<g id="XMLID_553_">
	<path id="XMLID_554_" class="st2" d="M547.9,105.3h-30.4c-1.1,0-2-0.9-2-2V52.7c0-1.1,0.9-2,2-2h30.4c1.1,0,2,0.9,2,2v50.7
		C549.8,104.4,549,105.3,547.9,105.3L547.9,105.3z"/>
	<path id="XMLID_555_" class="st1" d="M516.3,57.2h-1.5v-3.5c0-2.1,1.7-3.8,3.8-3.8h17.9v1.5h-17.9c-1.3,0-2.3,1-2.3,2.3V57.2z"/>
	<path id="XMLID_556_" class="st1" d="M546.8,106.1h-28.2c-2.1,0-3.8-1.7-3.8-3.8V76h1.5v26.2c0,1.3,1,2.3,2.3,2.3h28.2
		c1.3,0,2.3-1,2.3-2.3V53.7c0-1.3-1-2.3-2.3-2.3h-2.2v-1.5h2.2c2.1,0,3.8,1.7,3.8,3.8v48.5C550.6,104.3,548.9,106.1,546.8,106.1
		L546.8,106.1z"/>
	<rect id="XMLID_557_" x="538.3" y="49.9" class="st1" width="4.9" height="1.5"/>
	<rect id="XMLID_558_" x="527.6" y="54" class="st1" width="10.2" height="1.5"/>
	<path id="XMLID_560_" class="st1" d="M532.7,99.9c-0.5,0-0.9,0.4-0.9,0.9c0,0.5,0.4,0.9,0.9,0.9c0.5,0,0.9-0.4,0.9-0.9
		C533.6,100.3,533.2,99.9,532.7,99.9L532.7,99.9z M532.7,103.2c-1.3,0-2.4-1.1-2.4-2.4c0-1.3,1.1-2.4,2.4-2.4c1.3,0,2.4,1.1,2.4,2.4
		C535.1,102.2,534,103.2,532.7,103.2L532.7,103.2z"/>
	<rect id="XMLID_562_" x="519" y="58.6" class="st0" width="27.5" height="38.7"/>
	<path id="XMLID_563_" class="st7" d="M532.4,60.8v11.6c0,0.7-0.5,1.2-1.1,1.2h-0.7v2.4v4.5c0,0.2-0.3,0.3-0.5,0.1l-5.8-7H508
		c-0.6,0-1.1-0.5-1.1-1.2V60.8c0-0.6,0.5-1.1,1.1-1.1h23.3C531.9,59.6,532.4,60.1,532.4,60.8L532.4,60.8z"/>
	<path id="XMLID_565_" class="st6" d="M508,60.4c-0.2,0-0.4,0.2-0.4,0.4v11.6c0,0.2,0.2,0.4,0.4,0.4h16.7l5.2,6.2v-6.2h1.4
		c0.2,0,0.4-0.2,0.4-0.4V60.8c0-0.2-0.2-0.4-0.4-0.4H508z M530.4,81.3c-0.3,0-0.6-0.1-0.8-0.4l-5.6-6.7h-16c-1,0-1.9-0.9-1.9-1.9
		V60.8c0-1.1,0.9-1.9,1.9-1.9h23.3c1,0,1.9,0.9,1.9,1.9v11.6c0,1-0.8,1.8-1.8,1.9v6.1c0,0.4-0.3,0.8-0.7,0.9
		C530.6,81.3,530.5,81.3,530.4,81.3L530.4,81.3z"/>
	<rect id="XMLID_567_" x="512.5" y="62.8" class="st6" width="14.2" height="1.5"/>
	<rect id="XMLID_568_" x="512.5" y="65.9" class="st6" width="14.2" height="1.5"/>
	<rect id="XMLID_569_" x="512.5" y="68.9" class="st6" width="7.7" height="1.5"/>
</g>
<g id="XMLID_214_">
	<polygon id="XMLID_215_" class="st8" points="512.6,141.7 512.6,141.3 442.1,141.3 477.2,161.9 	"/>
	<polygon id="XMLID_216_" class="st3" points="512.4,140.9 512.4,141.3 442,141.3 477.1,120.7 	"/>
	<g id="XMLID_218_">
		<defs>
			<path id="XMLID_217_" d="M503.1,166.1h-51v-47.7c0-1,0.8-1.8,1.9-1.8h47.3c1,0,1.8,0.8,1.8,1.8V166.1z"/>
		</defs>
		<clipPath id="XMLID_29_">
			<use xlink:href="#XMLID_217_"  style="overflow:visible;"/>
		</clipPath>
		<polyline id="XMLID_219_" class="st9" points="452.1,116.6 452.2,116.6 452.2,166.1 452.1,166.1 		"/>
		<polyline id="XMLID_220_" class="st9" points="452.1,116.6 452.4,116.6 452.4,166.1 452.1,166.1 		"/>
		<polyline id="XMLID_221_" class="st9" points="452.3,116.6 452.6,116.6 452.6,166.1 452.3,166.1 		"/>
		<polyline id="XMLID_222_" class="st9" points="452.5,116.6 452.8,116.6 452.8,166.1 452.5,166.1 		"/>
		<polyline id="XMLID_223_" class="st9" points="452.7,116.6 453,116.6 453,166.1 452.7,166.1 		"/>
		<polyline id="XMLID_224_" class="st10" points="452.9,116.6 453.2,116.6 453.2,166.1 452.9,166.1 		"/>
		<polyline id="XMLID_225_" class="st10" points="453.1,116.6 453.4,116.6 453.4,166.1 453.1,166.1 		"/>
		<polyline id="XMLID_226_" class="st11" points="453.3,116.6 453.6,116.6 453.6,166.1 453.3,166.1 		"/>
		<polyline id="XMLID_227_" class="st11" points="453.5,116.6 453.8,116.6 453.8,166.1 453.5,166.1 		"/>
		<polyline id="XMLID_228_" class="st11" points="453.7,116.6 454,116.6 454,166.1 453.7,166.1 		"/>
		<polyline id="XMLID_229_" class="st11" points="453.9,116.6 454.2,116.6 454.2,166.1 453.9,166.1 		"/>
		<polyline id="XMLID_230_" class="st11" points="454.1,116.6 454.4,116.6 454.4,166.1 454.1,166.1 		"/>
		<polyline id="XMLID_231_" class="st11" points="454.3,116.6 454.6,116.6 454.6,166.1 454.3,166.1 		"/>
		<polyline id="XMLID_232_" class="st11" points="454.5,116.6 454.8,116.6 454.8,166.1 454.5,166.1 		"/>
		<polyline id="XMLID_233_" class="st12" points="454.7,116.6 455,116.6 455,166.1 454.7,166.1 		"/>
		<polyline id="XMLID_236_" class="st13" points="454.9,116.6 455.2,116.6 455.2,166.1 454.9,166.1 		"/>
		<polyline id="XMLID_237_" class="st13" points="455.1,116.6 455.4,116.6 455.4,166.1 455.1,166.1 		"/>
		<polyline id="XMLID_238_" class="st13" points="455.3,116.6 455.6,116.6 455.6,166.1 455.3,166.1 		"/>
		<polyline id="XMLID_245_" class="st13" points="455.5,116.6 455.8,116.6 455.8,166.1 455.5,166.1 		"/>
		<polyline id="XMLID_247_" class="st13" points="455.7,116.6 456,116.6 456,166.1 455.7,166.1 		"/>
		<polyline id="XMLID_248_" class="st14" points="455.9,116.6 456.2,116.6 456.2,166.1 455.9,166.1 		"/>
		<polyline id="XMLID_252_" class="st14" points="456.1,116.6 456.4,116.6 456.4,166.1 456.1,166.1 		"/>
		<polyline id="XMLID_253_" class="st15" points="456.3,116.6 456.6,116.6 456.6,166.1 456.3,166.1 		"/>
		<polyline id="XMLID_254_" class="st15" points="456.5,116.6 456.8,116.6 456.8,166.1 456.5,166.1 		"/>
		<polyline id="XMLID_255_" class="st15" points="456.7,116.6 457,116.6 457,166.1 456.7,166.1 		"/>
		<polyline id="XMLID_257_" class="st15" points="456.9,116.6 457.2,116.6 457.2,166.1 456.9,166.1 		"/>
		<polyline id="XMLID_259_" class="st15" points="457.1,116.6 457.4,116.6 457.4,166.1 457.1,166.1 		"/>
		<polyline id="XMLID_260_" class="st15" points="457.3,116.6 457.6,116.6 457.6,166.1 457.3,166.1 		"/>
		<polyline id="XMLID_261_" class="st15" points="457.5,116.6 457.8,116.6 457.8,166.1 457.5,166.1 		"/>
		<polyline id="XMLID_262_" class="st15" points="457.7,116.6 458,116.6 458,166.1 457.7,166.1 		"/>
		<polyline id="XMLID_263_" class="st15" points="457.9,116.6 458.2,116.6 458.2,166.1 457.9,166.1 		"/>
		<polyline id="XMLID_264_" class="st16" points="458.1,116.6 458.4,116.6 458.4,166.1 458.1,166.1 		"/>
		<polyline id="XMLID_265_" class="st17" points="458.3,116.6 458.6,116.6 458.6,166.1 458.3,166.1 		"/>
		<polyline id="XMLID_267_" class="st17" points="458.5,116.6 458.8,116.6 458.8,166.1 458.5,166.1 		"/>
		<polyline id="XMLID_268_" class="st17" points="458.7,116.6 459,116.6 459,166.1 458.7,166.1 		"/>
		<polyline id="XMLID_287_" class="st17" points="458.9,116.6 459.2,116.6 459.2,166.1 458.9,166.1 		"/>
		<polyline id="XMLID_289_" class="st17" points="459.1,116.6 459.4,116.6 459.4,166.1 459.1,166.1 		"/>
		<polyline id="XMLID_293_" class="st17" points="459.3,116.6 459.6,116.6 459.6,166.1 459.3,166.1 		"/>
		<polyline id="XMLID_297_" class="st17" points="459.5,116.6 459.8,116.6 459.8,166.1 459.5,166.1 		"/>
		<polyline id="XMLID_298_" class="st17" points="459.7,116.6 460,116.6 460,166.1 459.7,166.1 		"/>
		<polyline id="XMLID_300_" class="st18" points="459.9,116.6 460.2,116.6 460.2,166.1 459.9,166.1 		"/>
		<polyline id="XMLID_302_" class="st18" points="460.1,116.6 460.4,116.6 460.4,166.1 460.1,166.1 		"/>
		<polyline id="XMLID_305_" class="st18" points="460.3,116.6 460.6,116.6 460.6,166.1 460.3,166.1 		"/>
		<polyline id="XMLID_314_" class="st19" points="460.5,116.6 460.8,116.6 460.8,166.1 460.5,166.1 		"/>
		<polyline id="XMLID_318_" class="st19" points="460.7,116.6 461,116.6 461,166.1 460.7,166.1 		"/>
		<polyline id="XMLID_320_" class="st20" points="460.9,116.6 461.2,116.6 461.2,166.1 460.9,166.1 		"/>
		<polyline id="XMLID_321_" class="st20" points="461.1,116.6 461.4,116.6 461.4,166.1 461.1,166.1 		"/>
		<polyline id="XMLID_322_" class="st20" points="461.3,116.6 461.6,116.6 461.6,166.1 461.3,166.1 		"/>
		<polyline id="XMLID_325_" class="st20" points="461.5,116.6 461.8,116.6 461.8,166.1 461.5,166.1 		"/>
		<polyline id="XMLID_328_" class="st21" points="461.7,116.6 462,116.6 462,166.1 461.7,166.1 		"/>
		<polyline id="XMLID_331_" class="st21" points="461.9,116.6 462.2,116.6 462.2,166.1 461.9,166.1 		"/>
		<polyline id="XMLID_333_" class="st21" points="462.1,116.6 462.4,116.6 462.4,166.1 462.1,166.1 		"/>
		<polyline id="XMLID_334_" class="st21" points="462.3,116.6 462.6,116.6 462.6,166.1 462.3,166.1 		"/>
		<polyline id="XMLID_336_" class="st21" points="462.5,116.6 462.8,116.6 462.8,166.1 462.5,166.1 		"/>
		<polyline id="XMLID_337_" class="st21" points="462.7,116.6 463,116.6 463,166.1 462.7,166.1 		"/>
		<polyline id="XMLID_338_" class="st21" points="462.9,116.6 463.2,116.6 463.2,166.1 462.9,166.1 		"/>
		<polyline id="XMLID_340_" class="st21" points="463.1,116.6 463.4,116.6 463.4,166.1 463.1,166.1 		"/>
		<polyline id="XMLID_341_" class="st21" points="463.3,116.6 463.6,116.6 463.6,166.1 463.3,166.1 		"/>
		<polyline id="XMLID_342_" class="st22" points="463.5,116.6 463.8,116.6 463.8,166.1 463.5,166.1 		"/>
		<polyline id="XMLID_343_" class="st22" points="463.7,116.6 463.9,116.6 463.9,166.1 463.7,166.1 		"/>
		<polyline id="XMLID_344_" class="st22" points="463.9,116.6 464.1,116.6 464.1,166.1 463.9,166.1 		"/>
		<polyline id="XMLID_345_" class="st22" points="464.1,116.6 464.4,116.6 464.4,166.1 464.1,166.1 		"/>
		<polyline id="XMLID_346_" class="st22" points="464.3,116.6 464.6,116.6 464.6,166.1 464.3,166.1 		"/>
		<polyline id="XMLID_347_" class="st22" points="464.5,116.6 464.8,116.6 464.8,166.1 464.5,166.1 		"/>
		<polyline id="XMLID_348_" class="st22" points="464.7,116.6 465,116.6 465,166.1 464.7,166.1 		"/>
		<polyline id="XMLID_349_" class="st22" points="464.9,116.6 465.2,116.6 465.2,166.1 464.9,166.1 		"/>
		<polyline id="XMLID_350_" class="st23" points="465.1,116.6 465.4,116.6 465.4,166.1 465.1,166.1 		"/>
		<polyline id="XMLID_351_" class="st23" points="465.3,116.6 465.6,116.6 465.6,166.1 465.3,166.1 		"/>
		<polyline id="XMLID_352_" class="st23" points="465.5,116.6 465.8,116.6 465.8,166.1 465.5,166.1 		"/>
		<polyline id="XMLID_353_" class="st23" points="465.6,116.6 466,116.6 466,166.1 465.6,166.1 		"/>
		<polyline id="XMLID_354_" class="st23" points="465.8,116.6 466.2,116.6 466.2,166.1 465.8,166.1 		"/>
		<polyline id="XMLID_355_" class="st24" points="466,116.6 466.4,116.6 466.4,166.1 466,166.1 		"/>
		<polyline id="XMLID_356_" class="st24" points="466.2,116.6 466.6,116.6 466.6,166.1 466.2,166.1 		"/>
		<polyline id="XMLID_357_" class="st24" points="466.4,116.6 466.8,116.6 466.8,166.1 466.4,166.1 		"/>
		<polyline id="XMLID_358_" class="st24" points="466.6,116.6 467,116.6 467,166.1 466.6,166.1 		"/>
		<polyline id="XMLID_359_" class="st25" points="466.8,116.6 467.2,116.6 467.2,166.1 466.8,166.1 		"/>
		<polyline id="XMLID_360_" class="st25" points="467,116.6 467.4,116.6 467.4,166.1 467,166.1 		"/>
		<polyline id="XMLID_361_" class="st25" points="467.2,116.6 467.5,116.6 467.5,166.1 467.2,166.1 		"/>
		<polyline id="XMLID_362_" class="st25" points="467.5,116.6 467.7,116.6 467.7,166.1 467.5,166.1 		"/>
		<polyline id="XMLID_363_" class="st25" points="467.7,116.6 467.9,116.6 467.9,166.1 467.7,166.1 		"/>
		<polyline id="XMLID_364_" class="st25" points="467.9,116.6 468.1,116.6 468.1,166.1 467.9,166.1 		"/>
		<polyline id="XMLID_365_" class="st25" points="468.1,116.6 468.3,116.6 468.3,166.1 468.1,166.1 		"/>
		<polyline id="XMLID_366_" class="st25" points="468.3,116.6 468.5,116.6 468.5,166.1 468.3,166.1 		"/>
		<polyline id="XMLID_367_" class="st26" points="468.5,116.6 468.7,116.6 468.7,166.1 468.5,166.1 		"/>
		<polyline id="XMLID_368_" class="st27" points="468.7,116.6 468.9,116.6 468.9,166.1 468.7,166.1 		"/>
		<polyline id="XMLID_369_" class="st27" points="468.9,116.6 469.1,116.6 469.1,166.1 468.9,166.1 		"/>
		<polyline id="XMLID_370_" class="st27" points="469.1,116.6 469.3,116.6 469.3,166.1 469.1,166.1 		"/>
		<polyline id="XMLID_371_" class="st27" points="469.2,116.6 469.5,116.6 469.5,166.1 469.2,166.1 		"/>
		<polyline id="XMLID_372_" class="st27" points="469.4,116.6 469.7,116.6 469.7,166.1 469.4,166.1 		"/>
		<polyline id="XMLID_373_" class="st27" points="469.6,116.6 469.9,116.6 469.9,166.1 469.6,166.1 		"/>
		<polyline id="XMLID_374_" class="st27" points="469.8,116.6 470.1,116.6 470.1,166.1 469.8,166.1 		"/>
		<polyline id="XMLID_375_" class="st27" points="470,116.6 470.3,116.6 470.3,166.1 470,166.1 		"/>
		<polyline id="XMLID_376_" class="st27" points="470.2,116.6 470.6,116.6 470.6,166.1 470.2,166.1 		"/>
		<polyline id="XMLID_377_" class="st28" points="470.4,116.6 470.8,116.6 470.8,166.1 470.4,166.1 		"/>
		<polyline id="XMLID_378_" class="st28" points="470.6,116.6 471,116.6 471,166.1 470.6,166.1 		"/>
		<polyline id="XMLID_379_" class="st28" points="470.8,116.6 471.1,116.6 471.1,166.1 470.8,166.1 		"/>
		<polyline id="XMLID_380_" class="st29" points="471,116.6 471.3,116.6 471.3,166.1 471,166.1 		"/>
		<polyline id="XMLID_381_" class="st29" points="471.2,116.6 471.5,116.6 471.5,166.1 471.2,166.1 		"/>
		<polyline id="XMLID_382_" class="st29" points="471.4,116.6 471.7,116.6 471.7,166.1 471.4,166.1 		"/>
		<polyline id="XMLID_383_" class="st29" points="471.6,116.6 471.9,116.6 471.9,166.1 471.6,166.1 		"/>
		<polyline id="XMLID_384_" class="st30" points="471.8,116.6 472.1,116.6 472.1,166.1 471.8,166.1 		"/>
		<polyline id="XMLID_385_" class="st30" points="472,116.6 472.3,116.6 472.3,166.1 472,166.1 		"/>
		<polyline id="XMLID_386_" class="st31" points="472.2,116.6 472.5,116.6 472.5,166.1 472.2,166.1 		"/>
		<polyline id="XMLID_387_" class="st31" points="472.4,116.6 472.7,116.6 472.7,166.1 472.4,166.1 		"/>
		<polyline id="XMLID_388_" class="st31" points="472.6,116.6 472.9,116.6 472.9,166.1 472.6,166.1 		"/>
		<polyline id="XMLID_389_" class="st31" points="472.8,116.6 473.1,116.6 473.1,166.1 472.8,166.1 		"/>
		<polyline id="XMLID_390_" class="st31" points="473,116.6 473.3,116.6 473.3,166.1 473,166.1 		"/>
		<polyline id="XMLID_391_" class="st31" points="473.2,116.6 473.5,116.6 473.5,166.1 473.2,166.1 		"/>
		<polyline id="XMLID_392_" class="st31" points="473.4,116.6 473.7,116.6 473.7,166.1 473.4,166.1 		"/>
		<polyline id="XMLID_393_" class="st32" points="473.6,116.6 473.9,116.6 473.9,166.1 473.6,166.1 		"/>
		<polyline id="XMLID_394_" class="st33" points="473.8,116.6 474.1,116.6 474.1,166.1 473.8,166.1 		"/>
		<polyline id="XMLID_395_" class="st33" points="474,116.6 474.3,116.6 474.3,166.1 474,166.1 		"/>
		<polyline id="XMLID_396_" class="st33" points="474.2,116.6 474.5,116.6 474.5,166.1 474.2,166.1 		"/>
		<polyline id="XMLID_397_" class="st33" points="474.4,116.6 474.7,116.6 474.7,166.1 474.4,166.1 		"/>
		<polyline id="XMLID_398_" class="st33" points="474.6,116.6 474.9,116.6 474.9,166.1 474.6,166.1 		"/>
		<polyline id="XMLID_399_" class="st33" points="474.8,116.6 475.1,116.6 475.1,166.1 474.8,166.1 		"/>
		<polyline id="XMLID_400_" class="st33" points="475,116.6 475.3,116.6 475.3,166.1 475,166.1 		"/>
		<polyline id="XMLID_401_" class="st33" points="475.2,116.6 475.5,116.6 475.5,166.1 475.2,166.1 		"/>
		<polyline id="XMLID_402_" class="st33" points="475.4,116.6 475.7,116.6 475.7,166.1 475.4,166.1 		"/>
		<polyline id="XMLID_403_" class="st34" points="475.6,116.6 475.9,116.6 475.9,166.1 475.6,166.1 		"/>
		<polyline id="XMLID_404_" class="st34" points="475.8,116.6 476.1,116.6 476.1,166.1 475.8,166.1 		"/>
		<polyline id="XMLID_405_" class="st34" points="476,116.6 476.3,116.6 476.3,166.1 476,166.1 		"/>
		<polyline id="XMLID_406_" class="st35" points="476.2,116.6 476.5,116.6 476.5,166.1 476.2,166.1 		"/>
		<polyline id="XMLID_407_" class="st35" points="476.4,116.6 476.7,116.6 476.7,166.1 476.4,166.1 		"/>
		<polyline id="XMLID_408_" class="st35" points="476.6,116.6 476.9,116.6 476.9,166.1 476.6,166.1 		"/>
		<polyline id="XMLID_409_" class="st35" points="476.8,116.6 477.1,116.6 477.1,166.1 476.8,166.1 		"/>
		<polyline id="XMLID_410_" class="st35" points="477,116.6 477.3,116.6 477.3,166.1 477,166.1 		"/>
		<polyline id="XMLID_411_" class="st35" points="477.2,116.6 477.5,116.6 477.5,166.1 477.2,166.1 		"/>
		<polyline id="XMLID_412_" class="st36" points="477.4,116.6 477.7,116.6 477.7,166.1 477.4,166.1 		"/>
		<polyline id="XMLID_413_" class="st36" points="477.6,116.6 477.9,116.6 477.9,166.1 477.6,166.1 		"/>
		<polyline id="XMLID_415_" class="st36" points="477.8,116.6 478.1,116.6 478.1,166.1 477.8,166.1 		"/>
		<polyline id="XMLID_416_" class="st36" points="478,116.6 478.3,116.6 478.3,166.1 478,166.1 		"/>
		<polyline id="XMLID_417_" class="st36" points="478.2,116.6 478.5,116.6 478.5,166.1 478.2,166.1 		"/>
		<polyline id="XMLID_418_" class="st36" points="478.4,116.6 478.7,116.6 478.7,166.1 478.4,166.1 		"/>
		<polyline id="XMLID_419_" class="st37" points="478.6,116.6 478.9,116.6 478.9,166.1 478.6,166.1 		"/>
		<polyline id="XMLID_420_" class="st37" points="478.8,116.6 479.1,116.6 479.1,166.1 478.8,166.1 		"/>
		<polyline id="XMLID_421_" class="st37" points="479,116.6 479.3,116.6 479.3,166.1 479,166.1 		"/>
		<polyline id="XMLID_422_" class="st38" points="479.2,116.6 479.5,116.6 479.5,166.1 479.2,166.1 		"/>
		<polyline id="XMLID_423_" class="st38" points="479.4,116.6 479.7,116.6 479.7,166.1 479.4,166.1 		"/>
		<polyline id="XMLID_424_" class="st38" points="479.6,116.6 479.9,116.6 479.9,166.1 479.6,166.1 		"/>
		<polyline id="XMLID_425_" class="st38" points="479.8,116.6 480.1,116.6 480.1,166.1 479.8,166.1 		"/>
		<polyline id="XMLID_426_" class="st38" points="480,116.6 480.3,116.6 480.3,166.1 480,166.1 		"/>
		<polyline id="XMLID_427_" class="st38" points="480.2,116.6 480.5,116.6 480.5,166.1 480.2,166.1 		"/>
		<polyline id="XMLID_428_" class="st38" points="480.4,116.6 480.7,116.6 480.7,166.1 480.4,166.1 		"/>
		<polyline id="XMLID_429_" class="st38" points="480.6,116.6 480.9,116.6 480.9,166.1 480.6,166.1 		"/>
		<polyline id="XMLID_430_" class="st38" points="480.8,116.6 481.1,116.6 481.1,166.1 480.8,166.1 		"/>
		<polyline id="XMLID_431_" class="st39" points="481,116.6 481.3,116.6 481.3,166.1 481,166.1 		"/>
		<polyline id="XMLID_432_" class="st40" points="481.2,116.6 481.5,116.6 481.5,166.1 481.2,166.1 		"/>
		<polyline id="XMLID_433_" class="st40" points="481.4,116.6 481.7,116.6 481.7,166.1 481.4,166.1 		"/>
		<polyline id="XMLID_434_" class="st40" points="481.6,116.6 481.9,116.6 481.9,166.1 481.6,166.1 		"/>
		<polyline id="XMLID_435_" class="st40" points="481.8,116.6 482.1,116.6 482.1,166.1 481.8,166.1 		"/>
		<polyline id="XMLID_436_" class="st40" points="482,116.6 482.3,116.6 482.3,166.1 482,166.1 		"/>
		<polyline id="XMLID_437_" class="st40" points="482.2,116.6 482.5,116.6 482.5,166.1 482.2,166.1 		"/>
		<polyline id="XMLID_438_" class="st40" points="482.4,116.6 482.7,116.6 482.7,166.1 482.4,166.1 		"/>
		<polyline id="XMLID_439_" class="st41" points="482.6,116.6 482.9,116.6 482.9,166.1 482.6,166.1 		"/>
		<polyline id="XMLID_440_" class="st41" points="482.8,116.6 483.1,116.6 483.1,166.1 482.8,166.1 		"/>
		<polyline id="XMLID_441_" class="st42" points="483,116.6 483.3,116.6 483.3,166.1 483,166.1 		"/>
		<polyline id="XMLID_442_" class="st42" points="483.2,116.6 483.5,116.6 483.5,166.1 483.2,166.1 		"/>
		<polyline id="XMLID_443_" class="st42" points="483.4,116.6 483.7,116.6 483.7,166.1 483.4,166.1 		"/>
		<polyline id="XMLID_444_" class="st42" points="483.6,116.6 483.9,116.6 483.9,166.1 483.6,166.1 		"/>
		<polyline id="XMLID_445_" class="st43" points="483.8,116.6 484.1,116.6 484.1,166.1 483.8,166.1 		"/>
		<polyline id="XMLID_446_" class="st43" points="484,116.6 484.3,116.6 484.3,166.1 484,166.1 		"/>
		<polyline id="XMLID_447_" class="st43" points="484.2,116.6 484.5,116.6 484.5,166.1 484.2,166.1 		"/>
		<polyline id="XMLID_448_" class="st44" points="484.4,116.6 484.7,116.6 484.7,166.1 484.4,166.1 		"/>
		<polyline id="XMLID_449_" class="st44" points="484.6,116.6 484.9,116.6 484.9,166.1 484.6,166.1 		"/>
		<polyline id="XMLID_450_" class="st44" points="484.8,116.6 485.1,116.6 485.1,166.1 484.8,166.1 		"/>
		<polyline id="XMLID_451_" class="st44" points="485,116.6 485.3,116.6 485.3,166.1 485,166.1 		"/>
		<polyline id="XMLID_452_" class="st44" points="485.2,116.6 485.5,116.6 485.5,166.1 485.2,166.1 		"/>
		<polyline id="XMLID_453_" class="st44" points="485.4,116.6 485.7,116.6 485.7,166.1 485.4,166.1 		"/>
		<polyline id="XMLID_454_" class="st44" points="485.6,116.6 485.9,116.6 485.9,166.1 485.6,166.1 		"/>
		<polyline id="XMLID_455_" class="st44" points="485.8,116.6 486.1,116.6 486.1,166.1 485.8,166.1 		"/>
		<polyline id="XMLID_456_" class="st44" points="486,116.6 486.3,116.6 486.3,166.1 486,166.1 		"/>
		<polyline id="XMLID_457_" class="st45" points="486.2,116.6 486.5,116.6 486.5,166.1 486.2,166.1 		"/>
		<polyline id="XMLID_458_" class="st46" points="486.4,116.6 486.7,116.6 486.7,166.1 486.4,166.1 		"/>
		<polyline id="XMLID_459_" class="st46" points="486.6,116.6 486.9,116.6 486.9,166.1 486.6,166.1 		"/>
		<polyline id="XMLID_460_" class="st46" points="486.8,116.6 487.1,116.6 487.1,166.1 486.8,166.1 		"/>
		<polyline id="XMLID_461_" class="st46" points="487,116.6 487.3,116.6 487.3,166.1 487,166.1 		"/>
		<polyline id="XMLID_462_" class="st46" points="487.2,116.6 487.5,116.6 487.5,166.1 487.2,166.1 		"/>
		<polyline id="XMLID_463_" class="st46" points="487.4,116.6 487.7,116.6 487.7,166.1 487.4,166.1 		"/>
		<polyline id="XMLID_464_" class="st46" points="487.6,116.6 487.9,116.6 487.9,166.1 487.6,166.1 		"/>
		<polyline id="XMLID_465_" class="st46" points="487.8,116.6 488.1,116.6 488.1,166.1 487.8,166.1 		"/>
		<polyline id="XMLID_466_" class="st47" points="488,116.6 488.3,116.6 488.3,166.1 488,166.1 		"/>
		<polyline id="XMLID_467_" class="st47" points="488.2,116.6 488.5,116.6 488.5,166.1 488.2,166.1 		"/>
		<polyline id="XMLID_468_" class="st47" points="488.4,116.6 488.7,116.6 488.7,166.1 488.4,166.1 		"/>
		<polyline id="XMLID_469_" class="st47" points="488.6,116.6 488.9,116.6 488.9,166.1 488.6,166.1 		"/>
		<polyline id="XMLID_470_" class="st48" points="488.8,116.6 489.1,116.6 489.1,166.1 488.8,166.1 		"/>
		<polyline id="XMLID_471_" class="st48" points="489,116.6 489.3,116.6 489.3,166.1 489,166.1 		"/>
		<polyline id="XMLID_472_" class="st48" points="489.2,116.6 489.5,116.6 489.5,166.1 489.2,166.1 		"/>
		<polyline id="XMLID_473_" class="st48" points="489.4,116.6 489.7,116.6 489.7,166.1 489.4,166.1 		"/>
		<polyline id="XMLID_474_" class="st48" points="489.6,116.6 489.9,116.6 489.9,166.1 489.6,166.1 		"/>
		<polyline id="XMLID_475_" class="st49" points="489.8,116.6 490.1,116.6 490.1,166.1 489.8,166.1 		"/>
		<polyline id="XMLID_476_" class="st49" points="490,116.6 490.3,116.6 490.3,166.1 490,166.1 		"/>
		<polyline id="XMLID_477_" class="st49" points="490.2,116.6 490.5,116.6 490.5,166.1 490.2,166.1 		"/>
		<polyline id="XMLID_478_" class="st49" points="490.4,116.6 490.7,116.6 490.7,166.1 490.4,166.1 		"/>
		<polyline id="XMLID_479_" class="st49" points="490.6,116.6 490.9,116.6 490.9,166.1 490.6,166.1 		"/>
		<polyline id="XMLID_480_" class="st49" points="490.8,116.6 491.1,116.6 491.1,166.1 490.8,166.1 		"/>
		<polyline id="XMLID_481_" class="st49" points="491,116.6 491.3,116.6 491.3,166.1 491,166.1 		"/>
		<polyline id="XMLID_482_" class="st49" points="491.2,116.6 491.5,116.6 491.5,166.1 491.2,166.1 		"/>
		<polyline id="XMLID_483_" class="st50" points="491.4,116.6 491.7,116.6 491.7,166.1 491.4,166.1 		"/>
		<polyline id="XMLID_484_" class="st50" points="491.6,116.6 491.9,116.6 491.9,166.1 491.6,166.1 		"/>
		<polyline id="XMLID_485_" class="st50" points="491.8,116.6 492.1,116.6 492.1,166.1 491.8,166.1 		"/>
		<polyline id="XMLID_486_" class="st50" points="492,116.6 492.3,116.6 492.3,166.1 492,166.1 		"/>
		<polyline id="XMLID_487_" class="st50" points="492.2,116.6 492.5,116.6 492.5,166.1 492.2,166.1 		"/>
		<polyline id="XMLID_488_" class="st50" points="492.4,116.6 492.7,116.6 492.7,166.1 492.4,166.1 		"/>
		<polyline id="XMLID_489_" class="st50" points="492.6,116.6 492.9,116.6 492.9,166.1 492.6,166.1 		"/>
		<polyline id="XMLID_490_" class="st50" points="492.8,116.6 493.1,116.6 493.1,166.1 492.8,166.1 		"/>
		<polyline id="XMLID_491_" class="st50" points="493,116.6 493.3,116.6 493.3,166.1 493,166.1 		"/>
		<polyline id="XMLID_492_" class="st51" points="493.2,116.6 493.5,116.6 493.5,166.1 493.2,166.1 		"/>
		<polyline id="XMLID_493_" class="st51" points="493.4,116.6 493.7,116.6 493.7,166.1 493.4,166.1 		"/>
		<polyline id="XMLID_494_" class="st51" points="493.6,116.6 493.9,116.6 493.9,166.1 493.6,166.1 		"/>
		<polyline id="XMLID_495_" class="st51" points="493.8,116.6 494.1,116.6 494.1,166.1 493.8,166.1 		"/>
		<polyline id="XMLID_496_" class="st52" points="494,116.6 494.3,116.6 494.3,166.1 494,166.1 		"/>
		<polyline id="XMLID_497_" class="st52" points="494.2,116.6 494.4,116.6 494.4,166.1 494.2,166.1 		"/>
		<polyline id="XMLID_498_" class="st53" points="494.4,116.6 494.6,116.6 494.6,166.1 494.4,166.1 		"/>
		<polyline id="XMLID_499_" class="st53" points="494.6,116.6 494.8,116.6 494.8,166.1 494.6,166.1 		"/>
		<polyline id="XMLID_500_" class="st53" points="494.8,116.6 495,116.6 495,166.1 494.8,166.1 		"/>
		<polyline id="XMLID_501_" class="st54" points="495,116.6 495.2,116.6 495.2,166.1 495,166.1 		"/>
		<polyline id="XMLID_502_" class="st54" points="495.2,116.6 495.5,116.6 495.5,166.1 495.2,166.1 		"/>
		<polyline id="XMLID_503_" class="st54" points="495.4,116.6 495.7,116.6 495.7,166.1 495.4,166.1 		"/>
		<polyline id="XMLID_504_" class="st54" points="495.6,116.6 495.9,116.6 495.9,166.1 495.6,166.1 		"/>
		<polyline id="XMLID_505_" class="st54" points="495.8,116.6 496.1,116.6 496.1,166.1 495.8,166.1 		"/>
		<polyline id="XMLID_506_" class="st54" points="496,116.6 496.3,116.6 496.3,166.1 496,166.1 		"/>
		<polyline id="XMLID_507_" class="st54" points="496.2,116.6 496.5,116.6 496.5,166.1 496.2,166.1 		"/>
		<polyline id="XMLID_508_" class="st54" points="496.3,116.6 496.7,116.6 496.7,166.1 496.3,166.1 		"/>
		<polyline id="XMLID_509_" class="st55" points="496.5,116.6 496.9,116.6 496.9,166.1 496.5,166.1 		"/>
		<polyline id="XMLID_510_" class="st56" points="496.7,116.6 497.1,116.6 497.1,166.1 496.7,166.1 		"/>
		<polyline id="XMLID_511_" class="st56" points="496.9,116.6 497.3,116.6 497.3,166.1 496.9,166.1 		"/>
		<polyline id="XMLID_512_" class="st56" points="497.1,116.6 497.5,116.6 497.5,166.1 497.1,166.1 		"/>
		<polyline id="XMLID_513_" class="st56" points="497.3,116.6 497.7,116.6 497.7,166.1 497.3,166.1 		"/>
		<polyline id="XMLID_514_" class="st56" points="497.5,116.6 497.9,116.6 497.9,166.1 497.5,166.1 		"/>
		<polyline id="XMLID_515_" class="st56" points="497.7,116.6 498,116.6 498,166.1 497.7,166.1 		"/>
		<polyline id="XMLID_516_" class="st56" points="497.9,116.6 498.2,116.6 498.2,166.1 497.9,166.1 		"/>
		<polyline id="XMLID_517_" class="st56" points="498.1,116.6 498.4,116.6 498.4,166.1 498.1,166.1 		"/>
		<polyline id="XMLID_518_" class="st56" points="498.3,116.6 498.6,116.6 498.6,166.1 498.3,166.1 		"/>
		<polyline id="XMLID_519_" class="st57" points="498.6,116.6 498.8,116.6 498.8,166.1 498.6,166.1 		"/>
		<polyline id="XMLID_520_" class="st57" points="498.8,116.6 499,116.6 499,166.1 498.8,166.1 		"/>
		<polyline id="XMLID_521_" class="st58" points="499,116.6 499.2,116.6 499.2,166.1 499,166.1 		"/>
		<polyline id="XMLID_522_" class="st58" points="499.2,116.6 499.4,116.6 499.4,166.1 499.2,166.1 		"/>
		<polyline id="XMLID_523_" class="st58" points="499.4,116.6 499.6,116.6 499.6,166.1 499.4,166.1 		"/>
		<polyline id="XMLID_524_" class="st58" points="499.6,116.6 499.8,116.6 499.8,166.1 499.6,166.1 		"/>
		<polyline id="XMLID_525_" class="st58" points="499.8,116.6 500,116.6 500,166.1 499.8,166.1 		"/>
		<polyline id="XMLID_526_" class="st59" points="499.9,116.6 500.2,116.6 500.2,166.1 499.9,166.1 		"/>
		<polyline id="XMLID_527_" class="st60" points="500.1,116.6 500.4,116.6 500.4,166.1 500.1,166.1 		"/>
		<polyline id="XMLID_528_" class="st60" points="500.3,116.6 500.6,116.6 500.6,166.1 500.3,166.1 		"/>
		<polyline id="XMLID_529_" class="st60" points="500.5,116.6 500.8,116.6 500.8,166.1 500.5,166.1 		"/>
		<polyline id="XMLID_530_" class="st60" points="500.7,116.6 501,116.6 501,166.1 500.7,166.1 		"/>
		<polyline id="XMLID_531_" class="st60" points="500.9,116.6 501.2,116.6 501.2,166.1 500.9,166.1 		"/>
		<polyline id="XMLID_532_" class="st60" points="501.1,116.6 501.4,116.6 501.4,166.1 501.1,166.1 		"/>
		<polyline id="XMLID_533_" class="st60" points="501.3,116.6 501.6,116.6 501.6,166.1 501.3,166.1 		"/>
		<polyline id="XMLID_534_" class="st61" points="501.5,116.6 501.8,116.6 501.8,166.1 501.5,166.1 		"/>
		<polyline id="XMLID_535_" class="st61" points="501.7,116.6 502,116.6 502,166.1 501.7,166.1 		"/>
		<polyline id="XMLID_536_" class="st62" points="501.9,116.6 502.2,116.6 502.2,166.1 501.9,166.1 		"/>
		<polyline id="XMLID_537_" class="st62" points="502.1,116.6 502.4,116.6 502.4,166.1 502.1,166.1 		"/>
		<polyline id="XMLID_538_" class="st62" points="502.3,116.6 502.6,116.6 502.6,166.1 502.3,166.1 		"/>
		<polyline id="XMLID_539_" class="st62" points="502.5,116.6 502.8,116.6 502.8,166.1 502.5,166.1 		"/>
		<polyline id="XMLID_540_" class="st62" points="502.7,116.6 503.1,116.6 503.1,166.1 502.7,166.1 		"/>
	</g>
	<path id="XMLID_542_" class="st1" d="M452.9,165.3h49.5v-46.9c0-0.6-0.5-1.1-1.1-1.1H454c-0.6,0-1.1,0.5-1.1,1.1V165.3z
		 M503.9,166.8h-52.5v-48.4c0-1.4,1.2-2.6,2.6-2.6h47.3c1.4,0,2.6,1.2,2.6,2.6V166.8z"/>
	<polygon id="XMLID_544_" class="st7" points="442.1,141.3 441.8,141.3 441.8,182.1 477.2,161.9 	"/>
	<polygon id="XMLID_545_" class="st7" points="512.6,141.7 477.2,161.9 512.3,182.5 512.6,182.5 	"/>
	<polygon id="XMLID_546_" class="st0" points="441.8,182.1 441.8,182.5 512.3,182.5 477.2,161.9 457.1,173.4 	"/>
	<polygon id="XMLID_547_" class="st1" points="503.1,178.5 441.7,142 442.5,140.7 503.9,177.2 	"/>
	<polygon id="XMLID_548_" class="st1" points="457.5,174 456.8,172.7 512,141 512.8,142.3 	"/>
	<path id="XMLID_549_" class="st1" d="M513.2,146.8l-1.5,0v-3.7c0-0.8-0.5-1.6-1.2-2l-4.4-2.9l0.8-1.3l4.4,2.9
		c1.2,0.7,1.9,2,1.9,3.3V146.8z"/>
	<path id="XMLID_550_" class="st1" d="M488.8,182.9l-43.8,0c-2.1,0-3.9-1.7-3.9-3.9l0.1-36c0-1.3,0.7-2.6,1.9-3.3l5-2.9l0.8,1.3
		l-5,2.9c-0.7,0.4-1.2,1.2-1.2,2l-0.1,35.9c0,1.3,1,2.4,2.4,2.4l43.8,0V182.9z"/>
	<rect id="XMLID_551_" x="491.9" y="181.4" class="st1" width="8.6" height="1.5"/>
	<polygon id="XMLID_552_" class="st2" points="470.2,146.2 470.2,128.8 485.3,137.5 470.2,146.2 470.2,128.8 485.3,137.5 	"/>
</g>
<g id="XMLID_54_">
	<path id="XMLID_57_" class="st2" d="M436.6,80.2h-42.8c-1,0-1.9-0.9-1.9-1.9V48.5c0-1,0.9-1.9,1.9-1.9h42.8c1.1,0,1.9,0.9,1.9,1.9
		v29.7C438.5,79.3,437.7,80.2,436.6,80.2L436.6,80.2z"/>
	<path id="XMLID_58_" class="st1" d="M436.3,80.9h-42.3c-1.6,0-2.9-1.3-2.9-2.9V48.8c0-1.6,1.3-2.9,2.9-2.9h35.3v1.5h-35.3
		c-0.8,0-1.4,0.6-1.4,1.4V78c0,0.8,0.6,1.4,1.4,1.4h42.3c0.8,0,1.4-0.6,1.4-1.4V48.8c0-0.8-0.6-1.4-1.4-1.4H434v-1.5h2.3
		c1.6,0,2.9,1.3,2.9,2.9V78C439.3,79.6,438,80.9,436.3,80.9L436.3,80.9z"/>
	<rect id="XMLID_59_" x="430.6" y="45.8" class="st1" width="2.7" height="1.5"/>
	<rect id="XMLID_128_" x="394.8" y="59.1" class="st1" width="1.5" height="8.6"/>
	<rect id="XMLID_154_" x="397.9" y="49.5" class="st0" width="34.1" height="27.8"/>
	<path id="XMLID_193_" class="st1" d="M434.2,62.9c-0.3,0-0.5,0.2-0.5,0.5s0.2,0.5,0.5,0.5c0.3,0,0.5-0.2,0.5-0.5
		S434.5,62.9,434.2,62.9L434.2,62.9z M434.2,65.3c-1.1,0-2-0.9-2-2c0-1.1,0.9-2,2-2c1.1,0,2,0.9,2,2
		C436.2,64.5,435.3,65.3,434.2,65.3L434.2,65.3z"/>
	<path id="XMLID_204_" class="st6" d="M419.7,61.2l-8.3,4.8c-0.5,0.3-1.2-0.1-1.2-0.7v-9.6c0-0.6,0.7-1,1.2-0.7l8.3,4.8
		C420.3,60.1,420.3,60.9,419.7,61.2L419.7,61.2z"/>
	<path id="XMLID_208_" class="st7" d="M411.1,55.7l0,9.6l8.3-4.8c0,0,0,0,0,0L411.1,55.7z M411.1,66.8c-0.3,0-0.5-0.1-0.8-0.2
		c-0.5-0.3-0.8-0.8-0.8-1.3v-9.6c0-0.6,0.3-1,0.8-1.3c0.5-0.3,1-0.3,1.5,0l8.3,4.8c0.5,0.3,0.8,0.8,0.8,1.3c0,0.5-0.3,1-0.8,1.3l0,0
		l-8.3,4.8C411.6,66.8,411.3,66.8,411.1,66.8L411.1,66.8z"/>
	<rect id="XMLID_212_" x="402.1" y="71.2" class="st1" width="26.1" height="1.5"/>
	<rect id="XMLID_213_" x="407.2" y="69.8" class="st1" width="1.5" height="4.1"/>
</g>
</svg>
