<?xml version="1.0" encoding="utf-8"?>
<!-- Generator: Adobe Illustrator 19.0.0, SVG Export Plug-In . SVG Version: 6.00 Build 0)  -->
<svg version="1.1" id="Analysis" xmlns="http://www.w3.org/2000/svg" xmlns:xlink="http://www.w3.org/1999/xlink" x="0px" y="0px"
	 viewBox="0 0 72.1 67.1" style="enable-background:new 0 0 72.1 67.1;" xml:space="preserve">
<style type="text/css">
	.st0{fill:#CEE5F0;}
	.st1{fill:#76C7DF;}
	.st2{fill:#FFFFFF;}
	.st3{fill:#D2E9F7;}
	.st4{clip-path:url(#XMLID_28_);fill-rule:evenodd;clip-rule:evenodd;fill:#D2DF40;}
	.st5{clip-path:url(#XMLID_28_);fill-rule:evenodd;clip-rule:evenodd;fill:#D2DF41;}
	.st6{clip-path:url(#XMLID_28_);fill-rule:evenodd;clip-rule:evenodd;fill:#D3DF41;}
	.st7{clip-path:url(#XMLID_28_);fill-rule:evenodd;clip-rule:evenodd;fill:#D3DF42;}
	.st8{clip-path:url(#XMLID_28_);fill-rule:evenodd;clip-rule:evenodd;fill:#D3E042;}
	.st9{clip-path:url(#XMLID_28_);fill-rule:evenodd;clip-rule:evenodd;fill:#D4E042;}
	.st10{clip-path:url(#XMLID_28_);fill-rule:evenodd;clip-rule:evenodd;fill:#D4E043;}
	.st11{clip-path:url(#XMLID_28_);fill-rule:evenodd;clip-rule:evenodd;fill:#D4E044;}
	.st12{clip-path:url(#XMLID_28_);fill-rule:evenodd;clip-rule:evenodd;fill:#D5E044;}
	.st13{clip-path:url(#XMLID_28_);fill-rule:evenodd;clip-rule:evenodd;fill:#D5E045;}
	.st14{clip-path:url(#XMLID_28_);fill-rule:evenodd;clip-rule:evenodd;fill:#D5E145;}
	.st15{clip-path:url(#XMLID_28_);fill-rule:evenodd;clip-rule:evenodd;fill:#D6E145;}
	.st16{clip-path:url(#XMLID_28_);fill-rule:evenodd;clip-rule:evenodd;fill:#D6E146;}
	.st17{clip-path:url(#XMLID_28_);fill-rule:evenodd;clip-rule:evenodd;fill:#D7E147;}
	.st18{clip-path:url(#XMLID_28_);fill-rule:evenodd;clip-rule:evenodd;fill:#D7E148;}
	.st19{clip-path:url(#XMLID_28_);fill-rule:evenodd;clip-rule:evenodd;fill:#D8E248;}
	.st20{clip-path:url(#XMLID_28_);fill-rule:evenodd;clip-rule:evenodd;fill:#D8E249;}
	.st21{clip-path:url(#XMLID_28_);fill-rule:evenodd;clip-rule:evenodd;fill:#D9E249;}
	.st22{clip-path:url(#XMLID_28_);fill-rule:evenodd;clip-rule:evenodd;fill:#D9E24A;}
	.st23{clip-path:url(#XMLID_28_);fill-rule:evenodd;clip-rule:evenodd;fill:#D9E24B;}
	.st24{clip-path:url(#XMLID_28_);fill-rule:evenodd;clip-rule:evenodd;fill:#DAE24B;}
	.st25{clip-path:url(#XMLID_28_);fill-rule:evenodd;clip-rule:evenodd;fill:#DAE34B;}
	.st26{clip-path:url(#XMLID_28_);fill-rule:evenodd;clip-rule:evenodd;fill:#DAE34C;}
	.st27{clip-path:url(#XMLID_28_);fill-rule:evenodd;clip-rule:evenodd;fill:#DBE34C;}
	.st28{clip-path:url(#XMLID_28_);fill-rule:evenodd;clip-rule:evenodd;fill:#DBE34D;}
	.st29{clip-path:url(#XMLID_28_);fill-rule:evenodd;clip-rule:evenodd;fill:#DBE34E;}
	.st30{clip-path:url(#XMLID_28_);fill-rule:evenodd;clip-rule:evenodd;fill:#DCE34E;}
	.st31{clip-path:url(#XMLID_28_);fill-rule:evenodd;clip-rule:evenodd;fill:#DCE44F;}
	.st32{clip-path:url(#XMLID_28_);fill-rule:evenodd;clip-rule:evenodd;fill:#DDE44F;}
	.st33{clip-path:url(#XMLID_28_);fill-rule:evenodd;clip-rule:evenodd;fill:#DDE450;}
	.st34{clip-path:url(#XMLID_28_);fill-rule:evenodd;clip-rule:evenodd;fill:#DDE451;}
	.st35{clip-path:url(#XMLID_28_);fill-rule:evenodd;clip-rule:evenodd;fill:#DEE451;}
	.st36{clip-path:url(#XMLID_28_);fill-rule:evenodd;clip-rule:evenodd;fill:#DEE452;}
	.st37{clip-path:url(#XMLID_28_);fill-rule:evenodd;clip-rule:evenodd;fill:#DEE552;}
	.st38{clip-path:url(#XMLID_28_);fill-rule:evenodd;clip-rule:evenodd;fill:#DFE552;}
	.st39{clip-path:url(#XMLID_28_);fill-rule:evenodd;clip-rule:evenodd;fill:#DFE553;}
	.st40{clip-path:url(#XMLID_28_);fill-rule:evenodd;clip-rule:evenodd;fill:#DFE554;}
	.st41{clip-path:url(#XMLID_28_);fill-rule:evenodd;clip-rule:evenodd;fill:#E0E554;}
	.st42{clip-path:url(#XMLID_28_);fill-rule:evenodd;clip-rule:evenodd;fill:#E0E555;}
	.st43{clip-path:url(#XMLID_28_);fill-rule:evenodd;clip-rule:evenodd;fill:#E1E655;}
	.st44{clip-path:url(#XMLID_28_);fill-rule:evenodd;clip-rule:evenodd;fill:#E1E656;}
	.st45{clip-path:url(#XMLID_28_);fill-rule:evenodd;clip-rule:evenodd;fill:#E2E657;}
	.st46{clip-path:url(#XMLID_28_);fill-rule:evenodd;clip-rule:evenodd;fill:#E2E658;}
	.st47{clip-path:url(#XMLID_28_);fill-rule:evenodd;clip-rule:evenodd;fill:#E3E658;}
	.st48{clip-path:url(#XMLID_28_);fill-rule:evenodd;clip-rule:evenodd;fill:#E3E758;}
	.st49{clip-path:url(#XMLID_28_);fill-rule:evenodd;clip-rule:evenodd;fill:#E3E759;}
	.st50{clip-path:url(#XMLID_28_);fill-rule:evenodd;clip-rule:evenodd;fill:#E4E759;}
	.st51{clip-path:url(#XMLID_28_);fill-rule:evenodd;clip-rule:evenodd;fill:#E4E75A;}
	.st52{clip-path:url(#XMLID_28_);fill-rule:evenodd;clip-rule:evenodd;fill:#E4E75B;}
	.st53{clip-path:url(#XMLID_28_);fill-rule:evenodd;clip-rule:evenodd;fill:#E5E75B;}
	.st54{clip-path:url(#XMLID_28_);fill-rule:evenodd;clip-rule:evenodd;fill:#E5E85B;}
	.st55{clip-path:url(#XMLID_28_);fill-rule:evenodd;clip-rule:evenodd;fill:#E5E85C;}
	.st56{clip-path:url(#XMLID_28_);fill-rule:evenodd;clip-rule:evenodd;fill:#E6E85C;}
	.st57{clip-path:url(#XMLID_28_);fill-rule:evenodd;clip-rule:evenodd;fill:#E6E85D;}
	.st58{fill:#9ECFEF;}
	.st59{fill:#F6A03F;}
	.st60{fill:#FEFEFE;}
	.st61{fill:#5FB0E5;}
	.st62{clip-path:url(#XMLID_29_);fill-rule:evenodd;clip-rule:evenodd;fill:#D2DF40;}
	.st63{clip-path:url(#XMLID_29_);fill-rule:evenodd;clip-rule:evenodd;fill:#D2DF41;}
	.st64{clip-path:url(#XMLID_29_);fill-rule:evenodd;clip-rule:evenodd;fill:#D3DF41;}
	.st65{clip-path:url(#XMLID_29_);fill-rule:evenodd;clip-rule:evenodd;fill:#D3DF42;}
	.st66{clip-path:url(#XMLID_29_);fill-rule:evenodd;clip-rule:evenodd;fill:#D3E042;}
	.st67{clip-path:url(#XMLID_29_);fill-rule:evenodd;clip-rule:evenodd;fill:#D4E042;}
	.st68{clip-path:url(#XMLID_29_);fill-rule:evenodd;clip-rule:evenodd;fill:#D4E043;}
	.st69{clip-path:url(#XMLID_29_);fill-rule:evenodd;clip-rule:evenodd;fill:#D4E044;}
	.st70{clip-path:url(#XMLID_29_);fill-rule:evenodd;clip-rule:evenodd;fill:#D5E044;}
	.st71{clip-path:url(#XMLID_29_);fill-rule:evenodd;clip-rule:evenodd;fill:#D5E045;}
	.st72{clip-path:url(#XMLID_29_);fill-rule:evenodd;clip-rule:evenodd;fill:#D5E145;}
	.st73{clip-path:url(#XMLID_29_);fill-rule:evenodd;clip-rule:evenodd;fill:#D6E145;}
	.st74{clip-path:url(#XMLID_29_);fill-rule:evenodd;clip-rule:evenodd;fill:#D6E146;}
	.st75{clip-path:url(#XMLID_29_);fill-rule:evenodd;clip-rule:evenodd;fill:#D7E147;}
	.st76{clip-path:url(#XMLID_29_);fill-rule:evenodd;clip-rule:evenodd;fill:#D7E148;}
	.st77{clip-path:url(#XMLID_29_);fill-rule:evenodd;clip-rule:evenodd;fill:#D8E248;}
	.st78{clip-path:url(#XMLID_29_);fill-rule:evenodd;clip-rule:evenodd;fill:#D8E249;}
	.st79{clip-path:url(#XMLID_29_);fill-rule:evenodd;clip-rule:evenodd;fill:#D9E249;}
	.st80{clip-path:url(#XMLID_29_);fill-rule:evenodd;clip-rule:evenodd;fill:#D9E24A;}
	.st81{clip-path:url(#XMLID_29_);fill-rule:evenodd;clip-rule:evenodd;fill:#D9E24B;}
	.st82{clip-path:url(#XMLID_29_);fill-rule:evenodd;clip-rule:evenodd;fill:#DAE24B;}
	.st83{clip-path:url(#XMLID_29_);fill-rule:evenodd;clip-rule:evenodd;fill:#DAE34B;}
	.st84{clip-path:url(#XMLID_29_);fill-rule:evenodd;clip-rule:evenodd;fill:#DAE34C;}
	.st85{clip-path:url(#XMLID_29_);fill-rule:evenodd;clip-rule:evenodd;fill:#DBE34C;}
	.st86{clip-path:url(#XMLID_29_);fill-rule:evenodd;clip-rule:evenodd;fill:#DBE34D;}
	.st87{clip-path:url(#XMLID_29_);fill-rule:evenodd;clip-rule:evenodd;fill:#DBE34E;}
	.st88{clip-path:url(#XMLID_29_);fill-rule:evenodd;clip-rule:evenodd;fill:#DCE34E;}
	.st89{clip-path:url(#XMLID_29_);fill-rule:evenodd;clip-rule:evenodd;fill:#DCE44F;}
	.st90{clip-path:url(#XMLID_29_);fill-rule:evenodd;clip-rule:evenodd;fill:#DDE44F;}
	.st91{clip-path:url(#XMLID_29_);fill-rule:evenodd;clip-rule:evenodd;fill:#DDE450;}
	.st92{clip-path:url(#XMLID_29_);fill-rule:evenodd;clip-rule:evenodd;fill:#DDE451;}
	.st93{clip-path:url(#XMLID_29_);fill-rule:evenodd;clip-rule:evenodd;fill:#DEE451;}
	.st94{clip-path:url(#XMLID_29_);fill-rule:evenodd;clip-rule:evenodd;fill:#DEE452;}
	.st95{clip-path:url(#XMLID_29_);fill-rule:evenodd;clip-rule:evenodd;fill:#DEE552;}
	.st96{clip-path:url(#XMLID_29_);fill-rule:evenodd;clip-rule:evenodd;fill:#DFE552;}
	.st97{clip-path:url(#XMLID_29_);fill-rule:evenodd;clip-rule:evenodd;fill:#DFE553;}
	.st98{clip-path:url(#XMLID_29_);fill-rule:evenodd;clip-rule:evenodd;fill:#DFE554;}
	.st99{clip-path:url(#XMLID_29_);fill-rule:evenodd;clip-rule:evenodd;fill:#E0E554;}
	.st100{clip-path:url(#XMLID_29_);fill-rule:evenodd;clip-rule:evenodd;fill:#E0E555;}
	.st101{clip-path:url(#XMLID_29_);fill-rule:evenodd;clip-rule:evenodd;fill:#E1E655;}
	.st102{clip-path:url(#XMLID_29_);fill-rule:evenodd;clip-rule:evenodd;fill:#E1E656;}
	.st103{clip-path:url(#XMLID_29_);fill-rule:evenodd;clip-rule:evenodd;fill:#E2E657;}
	.st104{clip-path:url(#XMLID_29_);fill-rule:evenodd;clip-rule:evenodd;fill:#E2E658;}
	.st105{clip-path:url(#XMLID_29_);fill-rule:evenodd;clip-rule:evenodd;fill:#E3E658;}
	.st106{clip-path:url(#XMLID_29_);fill-rule:evenodd;clip-rule:evenodd;fill:#E3E758;}
	.st107{clip-path:url(#XMLID_29_);fill-rule:evenodd;clip-rule:evenodd;fill:#E3E759;}
	.st108{clip-path:url(#XMLID_29_);fill-rule:evenodd;clip-rule:evenodd;fill:#E4E759;}
	.st109{clip-path:url(#XMLID_29_);fill-rule:evenodd;clip-rule:evenodd;fill:#E4E75A;}
	.st110{clip-path:url(#XMLID_29_);fill-rule:evenodd;clip-rule:evenodd;fill:#E4E75B;}
	.st111{clip-path:url(#XMLID_29_);fill-rule:evenodd;clip-rule:evenodd;fill:#E5E75B;}
	.st112{clip-path:url(#XMLID_29_);fill-rule:evenodd;clip-rule:evenodd;fill:#E5E85B;}
	.st113{clip-path:url(#XMLID_29_);fill-rule:evenodd;clip-rule:evenodd;fill:#E5E85C;}
	.st114{clip-path:url(#XMLID_29_);fill-rule:evenodd;clip-rule:evenodd;fill:#E6E85C;}
	.st115{clip-path:url(#XMLID_29_);fill-rule:evenodd;clip-rule:evenodd;fill:#E6E85D;}
</style>
<g id="XMLID_571_">
	<path id="XMLID_572_" class="st0" d="M478.5,0.4h-98.7c-0.5,0-1-0.5-1-1V-71c0-0.6,0.5-1,1-1h98.7c0.5,0,1,0.5,1,1v70.4
		C479.5-0.1,479,0.4,478.5,0.4L478.5,0.4z"/>
	<path id="XMLID_573_" class="st1" d="M379.5-56.1H378v-13.4c0-1.8,1.5-3.3,3.3-3.3h10.6v1.5h-10.6c-1,0-1.8,0.8-1.8,1.8V-56.1z"/>
	<path id="XMLID_574_" class="st1" d="M480.2-52.1h-1.5v-17.4c0-1-0.8-1.8-1.8-1.8h-10.8v-1.5H477c1.8,0,3.3,1.4,3.3,3.3V-52.1z"/>
	<polygon id="XMLID_575_" class="st2" points="474,-7.6 383.6,-7.6 383.6,-66.3 474,-66.3 474,-44.8 477,-44.6 477.1,-22.2 
		474,-22.2 	"/>
	<path id="XMLID_576_" class="st2" d="M477.7,4.4h-98.3c-2.4,0-4.4-1.7-4.8-4l-0.7-4.3h45.6l1.7,2.5h12.6l1.9-2.5h48l-0.6,3.7
		C482.7,2.5,480.4,4.4,477.7,4.4L477.7,4.4z"/>
	<path id="XMLID_577_" class="st3" d="M463-7.6v-75.3c0-2.3-1.8-4.1-4.1-4.1h-60.3c-2.3,0-4.1,1.8-4.1,4.1v75.3H463z"/>
	<path id="XMLID_578_" class="st0" d="M394.6-73.5v-10.1c0-1.9,1.5-3.4,3.4-3.4h61.6c1.9,0,3.4,1.5,3.4,3.4v10.1H394.6z"/>
	<path id="XMLID_579_" class="st1" d="M395.4-29.6h-1.5v-54c0-2.3,1.9-4.2,4.2-4.2h9.1v1.5H398c-1.5,0-2.7,1.2-2.7,2.7V-29.6z"/>
	<path id="XMLID_580_" class="st1" d="M463.8-7.6h-1.5v-76c0-1.5-1.2-2.7-2.7-2.7H419v-1.5h40.6c2.3,0,4.2,1.9,4.2,4.2V-7.6z"/>
	<rect id="XMLID_581_" x="410.4" y="-87.8" class="st1" width="4.7" height="1.5"/>
	<rect id="XMLID_582_" x="394.6" y="-74" class="st1" width="68.4" height="1.5"/>
	<rect id="XMLID_583_" x="399.5" y="-82.9" class="st1" width="1.7" height="1.5"/>
	<rect id="XMLID_584_" x="403.8" y="-82.9" class="st1" width="1.7" height="1.5"/>
	<rect id="XMLID_585_" x="408.1" y="-82.9" class="st1" width="1.8" height="1.5"/>
	<rect id="XMLID_586_" x="396.7" y="-68.4" class="st2" width="64.1" height="60.8"/>
	<rect id="XMLID_587_" x="416.4" y="-79.5" class="st2" width="36.4" height="2.5"/>
	<rect id="XMLID_588_" x="406.2" y="-79.5" class="st2" width="8.2" height="2.5"/>
	<rect id="XMLID_589_" x="399.5" y="-79.5" class="st2" width="5.2" height="2.5"/>
	<rect id="XMLID_590_" x="400.9" y="-64.4" class="st0" width="19.4" height="26.1"/>
	<rect id="XMLID_591_" x="424.9" y="-64.4" class="st0" width="32.1" height="38.5"/>
	<g id="XMLID_593_">
		<defs>
			<rect id="XMLID_592_" x="424.9" y="-19.5" width="32.1" height="6.3"/>
		</defs>
		<clipPath id="XMLID_28_">
			<use xlink:href="#XMLID_592_"  style="overflow:visible;"/>
		</clipPath>
		<polyline id="XMLID_594_" class="st4" points="424.9,-19.5 425,-19.5 425,-13.2 424.9,-13.2 		"/>
		<polyline id="XMLID_595_" class="st4" points="424.9,-19.5 425.1,-19.5 425.1,-13.2 424.9,-13.2 		"/>
		<polyline id="XMLID_596_" class="st4" points="425,-19.5 425.2,-19.5 425.2,-13.2 425,-13.2 		"/>
		<polyline id="XMLID_597_" class="st4" points="425.1,-19.5 425.3,-19.5 425.3,-13.2 425.1,-13.2 		"/>
		<polyline id="XMLID_598_" class="st4" points="425.3,-19.5 425.5,-19.5 425.5,-13.2 425.3,-13.2 		"/>
		<polyline id="XMLID_599_" class="st5" points="425.4,-19.5 425.6,-19.5 425.6,-13.2 425.4,-13.2 		"/>
		<polyline id="XMLID_600_" class="st5" points="425.5,-19.5 425.7,-19.5 425.7,-13.2 425.5,-13.2 		"/>
		<polyline id="XMLID_601_" class="st6" points="425.7,-19.5 425.8,-19.5 425.8,-13.2 425.7,-13.2 		"/>
		<polyline id="XMLID_602_" class="st6" points="425.8,-19.5 426,-19.5 426,-13.2 425.8,-13.2 		"/>
		<polyline id="XMLID_603_" class="st6" points="425.9,-19.5 426.1,-19.5 426.1,-13.2 425.9,-13.2 		"/>
		<polyline id="XMLID_604_" class="st6" points="426,-19.5 426.2,-19.5 426.2,-13.2 426,-13.2 		"/>
		<polyline id="XMLID_605_" class="st6" points="426.1,-19.5 426.3,-19.5 426.3,-13.2 426.1,-13.2 		"/>
		<polyline id="XMLID_606_" class="st6" points="426.3,-19.5 426.5,-19.5 426.5,-13.2 426.3,-13.2 		"/>
		<polyline id="XMLID_607_" class="st6" points="426.4,-19.5 426.6,-19.5 426.6,-13.2 426.4,-13.2 		"/>
		<polyline id="XMLID_608_" class="st7" points="426.5,-19.5 426.7,-19.5 426.7,-13.2 426.5,-13.2 		"/>
		<polyline id="XMLID_609_" class="st8" points="426.7,-19.5 426.8,-19.5 426.8,-13.2 426.7,-13.2 		"/>
		<polyline id="XMLID_610_" class="st8" points="426.8,-19.5 427,-19.5 427,-13.2 426.8,-13.2 		"/>
		<polyline id="XMLID_611_" class="st8" points="426.9,-19.5 427.1,-19.5 427.1,-13.2 426.9,-13.2 		"/>
		<polyline id="XMLID_612_" class="st8" points="427,-19.5 427.2,-19.5 427.2,-13.2 427,-13.2 		"/>
		<polyline id="XMLID_613_" class="st8" points="427.2,-19.5 427.3,-19.5 427.3,-13.2 427.2,-13.2 		"/>
		<polyline id="XMLID_614_" class="st9" points="427.3,-19.5 427.5,-19.5 427.5,-13.2 427.3,-13.2 		"/>
		<polyline id="XMLID_615_" class="st9" points="427.4,-19.5 427.6,-19.5 427.6,-13.2 427.4,-13.2 		"/>
		<polyline id="XMLID_616_" class="st10" points="427.5,-19.5 427.7,-19.5 427.7,-13.2 427.5,-13.2 		"/>
		<polyline id="XMLID_617_" class="st10" points="427.6,-19.5 427.8,-19.5 427.8,-13.2 427.6,-13.2 		"/>
		<polyline id="XMLID_618_" class="st10" points="427.8,-19.5 428,-19.5 428,-13.2 427.8,-13.2 		"/>
		<polyline id="XMLID_620_" class="st10" points="427.9,-19.5 428.1,-19.5 428.1,-13.2 427.9,-13.2 		"/>
		<polyline id="XMLID_621_" class="st10" points="428,-19.5 428.2,-19.5 428.2,-13.2 428,-13.2 		"/>
		<polyline id="XMLID_623_" class="st10" points="428.2,-19.5 428.4,-19.5 428.4,-13.2 428.2,-13.2 		"/>
		<polyline id="XMLID_624_" class="st10" points="428.3,-19.5 428.5,-19.5 428.5,-13.2 428.3,-13.2 		"/>
		<polyline id="XMLID_627_" class="st10" points="428.4,-19.5 428.6,-19.5 428.6,-13.2 428.4,-13.2 		"/>
		<polyline id="XMLID_628_" class="st10" points="428.5,-19.5 428.7,-19.5 428.7,-13.2 428.5,-13.2 		"/>
		<polyline id="XMLID_629_" class="st11" points="428.7,-19.5 428.8,-19.5 428.8,-13.2 428.7,-13.2 		"/>
		<polyline id="XMLID_630_" class="st12" points="428.8,-19.5 429,-19.5 429,-13.2 428.8,-13.2 		"/>
		<polyline id="XMLID_631_" class="st12" points="428.9,-19.5 429.1,-19.5 429.1,-13.2 428.9,-13.2 		"/>
		<polyline id="XMLID_632_" class="st12" points="429,-19.5 429.2,-19.5 429.2,-13.2 429,-13.2 		"/>
		<polyline id="XMLID_633_" class="st12" points="429.1,-19.5 429.3,-19.5 429.3,-13.2 429.1,-13.2 		"/>
		<polyline id="XMLID_634_" class="st12" points="429.3,-19.5 429.5,-19.5 429.5,-13.2 429.3,-13.2 		"/>
		<polyline id="XMLID_635_" class="st12" points="429.4,-19.5 429.6,-19.5 429.6,-13.2 429.4,-13.2 		"/>
		<polyline id="XMLID_636_" class="st12" points="429.5,-19.5 429.7,-19.5 429.7,-13.2 429.5,-13.2 		"/>
		<polyline id="XMLID_637_" class="st12" points="429.7,-19.5 429.9,-19.5 429.9,-13.2 429.7,-13.2 		"/>
		<polyline id="XMLID_638_" class="st13" points="429.8,-19.5 430,-19.5 430,-13.2 429.8,-13.2 		"/>
		<polyline id="XMLID_639_" class="st13" points="429.9,-19.5 430.1,-19.5 430.1,-13.2 429.9,-13.2 		"/>
		<polyline id="XMLID_640_" class="st13" points="430,-19.5 430.2,-19.5 430.2,-13.2 430,-13.2 		"/>
		<polyline id="XMLID_641_" class="st14" points="430.2,-19.5 430.3,-19.5 430.3,-13.2 430.2,-13.2 		"/>
		<polyline id="XMLID_642_" class="st14" points="430.3,-19.5 430.5,-19.5 430.5,-13.2 430.3,-13.2 		"/>
		<polyline id="XMLID_643_" class="st15" points="430.4,-19.5 430.6,-19.5 430.6,-13.2 430.4,-13.2 		"/>
		<polyline id="XMLID_644_" class="st15" points="430.5,-19.5 430.7,-19.5 430.7,-13.2 430.5,-13.2 		"/>
		<polyline id="XMLID_645_" class="st15" points="430.6,-19.5 430.8,-19.5 430.8,-13.2 430.6,-13.2 		"/>
		<polyline id="XMLID_646_" class="st15" points="430.8,-19.5 431,-19.5 431,-13.2 430.8,-13.2 		"/>
		<polyline id="XMLID_647_" class="st16" points="430.9,-19.5 431.1,-19.5 431.1,-13.2 430.9,-13.2 		"/>
		<polyline id="XMLID_648_" class="st16" points="431,-19.5 431.2,-19.5 431.2,-13.2 431,-13.2 		"/>
		<polyline id="XMLID_649_" class="st16" points="431.2,-19.5 431.4,-19.5 431.4,-13.2 431.2,-13.2 		"/>
		<polyline id="XMLID_650_" class="st16" points="431.3,-19.5 431.5,-19.5 431.5,-13.2 431.3,-13.2 		"/>
		<polyline id="XMLID_651_" class="st16" points="431.4,-19.5 431.6,-19.5 431.6,-13.2 431.4,-13.2 		"/>
		<polyline id="XMLID_652_" class="st16" points="431.5,-19.5 431.7,-19.5 431.7,-13.2 431.5,-13.2 		"/>
		<polyline id="XMLID_653_" class="st16" points="431.7,-19.5 431.8,-19.5 431.8,-13.2 431.7,-13.2 		"/>
		<polyline id="XMLID_654_" class="st16" points="431.8,-19.5 432,-19.5 432,-13.2 431.8,-13.2 		"/>
		<polyline id="XMLID_655_" class="st16" points="431.9,-19.5 432.1,-19.5 432.1,-13.2 431.9,-13.2 		"/>
		<polyline id="XMLID_656_" class="st17" points="432,-19.5 432.2,-19.5 432.2,-13.2 432,-13.2 		"/>
		<polyline id="XMLID_657_" class="st17" points="432.2,-19.5 432.3,-19.5 432.3,-13.2 432.2,-13.2 		"/>
		<polyline id="XMLID_658_" class="st17" points="432.3,-19.5 432.5,-19.5 432.5,-13.2 432.3,-13.2 		"/>
		<polyline id="XMLID_659_" class="st17" points="432.4,-19.5 432.6,-19.5 432.6,-13.2 432.4,-13.2 		"/>
		<polyline id="XMLID_660_" class="st17" points="432.5,-19.5 432.7,-19.5 432.7,-13.2 432.5,-13.2 		"/>
		<polyline id="XMLID_661_" class="st17" points="432.7,-19.5 432.9,-19.5 432.9,-13.2 432.7,-13.2 		"/>
		<polyline id="XMLID_662_" class="st17" points="432.8,-19.5 433,-19.5 433,-13.2 432.8,-13.2 		"/>
		<polyline id="XMLID_663_" class="st17" points="432.9,-19.5 433.1,-19.5 433.1,-13.2 432.9,-13.2 		"/>
		<polyline id="XMLID_664_" class="st18" points="433,-19.5 433.2,-19.5 433.2,-13.2 433,-13.2 		"/>
		<polyline id="XMLID_665_" class="st18" points="433.2,-19.5 433.3,-19.5 433.3,-13.2 433.2,-13.2 		"/>
		<polyline id="XMLID_666_" class="st18" points="433.3,-19.5 433.5,-19.5 433.5,-13.2 433.3,-13.2 		"/>
		<polyline id="XMLID_667_" class="st18" points="433.4,-19.5 433.6,-19.5 433.6,-13.2 433.4,-13.2 		"/>
		<polyline id="XMLID_668_" class="st18" points="433.5,-19.5 433.7,-19.5 433.7,-13.2 433.5,-13.2 		"/>
		<polyline id="XMLID_669_" class="st19" points="433.7,-19.5 433.9,-19.5 433.9,-13.2 433.7,-13.2 		"/>
		<polyline id="XMLID_670_" class="st19" points="433.8,-19.5 434,-19.5 434,-13.2 433.8,-13.2 		"/>
		<polyline id="XMLID_671_" class="st19" points="433.9,-19.5 434.1,-19.5 434.1,-13.2 433.9,-13.2 		"/>
		<polyline id="XMLID_672_" class="st19" points="434,-19.5 434.2,-19.5 434.2,-13.2 434,-13.2 		"/>
		<polyline id="XMLID_673_" class="st20" points="434.2,-19.5 434.4,-19.5 434.4,-13.2 434.2,-13.2 		"/>
		<polyline id="XMLID_674_" class="st20" points="434.3,-19.5 434.5,-19.5 434.5,-13.2 434.3,-13.2 		"/>
		<polyline id="XMLID_675_" class="st20" points="434.4,-19.5 434.6,-19.5 434.6,-13.2 434.4,-13.2 		"/>
		<polyline id="XMLID_676_" class="st20" points="434.5,-19.5 434.7,-19.5 434.7,-13.2 434.5,-13.2 		"/>
		<polyline id="XMLID_677_" class="st20" points="434.7,-19.5 434.8,-19.5 434.8,-13.2 434.7,-13.2 		"/>
		<polyline id="XMLID_678_" class="st20" points="434.8,-19.5 435,-19.5 435,-13.2 434.8,-13.2 		"/>
		<polyline id="XMLID_679_" class="st20" points="434.9,-19.5 435.1,-19.5 435.1,-13.2 434.9,-13.2 		"/>
		<polyline id="XMLID_680_" class="st20" points="435,-19.5 435.2,-19.5 435.2,-13.2 435,-13.2 		"/>
		<polyline id="XMLID_681_" class="st21" points="435.2,-19.5 435.4,-19.5 435.4,-13.2 435.2,-13.2 		"/>
		<polyline id="XMLID_682_" class="st22" points="435.3,-19.5 435.5,-19.5 435.5,-13.2 435.3,-13.2 		"/>
		<polyline id="XMLID_683_" class="st22" points="435.4,-19.5 435.6,-19.5 435.6,-13.2 435.4,-13.2 		"/>
		<polyline id="XMLID_684_" class="st22" points="435.6,-19.5 435.7,-19.5 435.7,-13.2 435.6,-13.2 		"/>
		<polyline id="XMLID_685_" class="st22" points="435.7,-19.5 435.9,-19.5 435.9,-13.2 435.7,-13.2 		"/>
		<polyline id="XMLID_686_" class="st22" points="435.8,-19.5 436,-19.5 436,-13.2 435.8,-13.2 		"/>
		<polyline id="XMLID_687_" class="st22" points="435.9,-19.5 436.1,-19.5 436.1,-13.2 435.9,-13.2 		"/>
		<polyline id="XMLID_688_" class="st22" points="436,-19.5 436.2,-19.5 436.2,-13.2 436,-13.2 		"/>
		<polyline id="XMLID_690_" class="st22" points="436.2,-19.5 436.3,-19.5 436.3,-13.2 436.2,-13.2 		"/>
		<polyline id="XMLID_691_" class="st22" points="436.3,-19.5 436.5,-19.5 436.5,-13.2 436.3,-13.2 		"/>
		<polyline id="XMLID_693_" class="st23" points="436.4,-19.5 436.6,-19.5 436.6,-13.2 436.4,-13.2 		"/>
		<polyline id="XMLID_704_" class="st23" points="436.5,-19.5 436.7,-19.5 436.7,-13.2 436.5,-13.2 		"/>
		<polyline id="XMLID_710_" class="st23" points="436.7,-19.5 436.9,-19.5 436.9,-13.2 436.7,-13.2 		"/>
		<polyline id="XMLID_719_" class="st24" points="436.8,-19.5 437,-19.5 437,-13.2 436.8,-13.2 		"/>
		<polyline id="XMLID_720_" class="st24" points="436.9,-19.5 437.1,-19.5 437.1,-13.2 436.9,-13.2 		"/>
		<polyline id="XMLID_721_" class="st24" points="437.1,-19.5 437.2,-19.5 437.2,-13.2 437.1,-13.2 		"/>
		<polyline id="XMLID_722_" class="st24" points="437.2,-19.5 437.4,-19.5 437.4,-13.2 437.2,-13.2 		"/>
		<polyline id="XMLID_723_" class="st25" points="437.3,-19.5 437.5,-19.5 437.5,-13.2 437.3,-13.2 		"/>
		<polyline id="XMLID_724_" class="st25" points="437.4,-19.5 437.6,-19.5 437.6,-13.2 437.4,-13.2 		"/>
		<polyline id="XMLID_725_" class="st26" points="437.5,-19.5 437.7,-19.5 437.7,-13.2 437.5,-13.2 		"/>
		<polyline id="XMLID_726_" class="st26" points="437.7,-19.5 437.8,-19.5 437.8,-13.2 437.7,-13.2 		"/>
		<polyline id="XMLID_727_" class="st26" points="437.8,-19.5 438,-19.5 438,-13.2 437.8,-13.2 		"/>
		<polyline id="XMLID_734_" class="st26" points="437.9,-19.5 438.1,-19.5 438.1,-13.2 437.9,-13.2 		"/>
		<polyline id="XMLID_735_" class="st26" points="438,-19.5 438.2,-19.5 438.2,-13.2 438,-13.2 		"/>
		<polyline id="XMLID_736_" class="st26" points="438.2,-19.5 438.4,-19.5 438.4,-13.2 438.2,-13.2 		"/>
		<polyline id="XMLID_737_" class="st26" points="438.3,-19.5 438.5,-19.5 438.5,-13.2 438.3,-13.2 		"/>
		<polyline id="XMLID_738_" class="st27" points="438.4,-19.5 438.6,-19.5 438.6,-13.2 438.4,-13.2 		"/>
		<polyline id="XMLID_739_" class="st28" points="438.6,-19.5 438.7,-19.5 438.7,-13.2 438.6,-13.2 		"/>
		<polyline id="XMLID_740_" class="st28" points="438.7,-19.5 438.9,-19.5 438.9,-13.2 438.7,-13.2 		"/>
		<polyline id="XMLID_741_" class="st28" points="438.8,-19.5 439,-19.5 439,-13.2 438.8,-13.2 		"/>
		<polyline id="XMLID_742_" class="st28" points="438.9,-19.5 439.1,-19.5 439.1,-13.2 438.9,-13.2 		"/>
		<polyline id="XMLID_743_" class="st28" points="439,-19.5 439.2,-19.5 439.2,-13.2 439,-13.2 		"/>
		<polyline id="XMLID_744_" class="st28" points="439.2,-19.5 439.4,-19.5 439.4,-13.2 439.2,-13.2 		"/>
		<polyline id="XMLID_745_" class="st28" points="439.3,-19.5 439.5,-19.5 439.5,-13.2 439.3,-13.2 		"/>
		<polyline id="XMLID_746_" class="st28" points="439.4,-19.5 439.6,-19.5 439.6,-13.2 439.4,-13.2 		"/>
		<polyline id="XMLID_747_" class="st28" points="439.5,-19.5 439.7,-19.5 439.7,-13.2 439.5,-13.2 		"/>
		<polyline id="XMLID_748_" class="st29" points="439.7,-19.5 439.9,-19.5 439.9,-13.2 439.7,-13.2 		"/>
		<polyline id="XMLID_756_" class="st29" points="439.8,-19.5 440,-19.5 440,-13.2 439.8,-13.2 		"/>
		<polyline id="XMLID_757_" class="st29" points="439.9,-19.5 440.1,-19.5 440.1,-13.2 439.9,-13.2 		"/>
		<polyline id="XMLID_758_" class="st30" points="440.1,-19.5 440.2,-19.5 440.2,-13.2 440.1,-13.2 		"/>
		<polyline id="XMLID_759_" class="st30" points="440.2,-19.5 440.4,-19.5 440.4,-13.2 440.2,-13.2 		"/>
		<polyline id="XMLID_760_" class="st30" points="440.3,-19.5 440.5,-19.5 440.5,-13.2 440.3,-13.2 		"/>
		<polyline id="XMLID_761_" class="st30" points="440.4,-19.5 440.6,-19.5 440.6,-13.2 440.4,-13.2 		"/>
		<polyline id="XMLID_762_" class="st30" points="440.5,-19.5 440.7,-19.5 440.7,-13.2 440.5,-13.2 		"/>
		<polyline id="XMLID_763_" class="st30" points="440.7,-19.5 440.9,-19.5 440.9,-13.2 440.7,-13.2 		"/>
		<polyline id="XMLID_764_" class="st31" points="440.8,-19.5 441,-19.5 441,-13.2 440.8,-13.2 		"/>
		<polyline id="XMLID_765_" class="st31" points="440.9,-19.5 441.1,-19.5 441.1,-13.2 440.9,-13.2 		"/>
		<polyline id="XMLID_766_" class="st31" points="441.1,-19.5 441.2,-19.5 441.2,-13.2 441.1,-13.2 		"/>
		<polyline id="XMLID_767_" class="st31" points="441.2,-19.5 441.4,-19.5 441.4,-13.2 441.2,-13.2 		"/>
		<polyline id="XMLID_768_" class="st31" points="441.3,-19.5 441.5,-19.5 441.5,-13.2 441.3,-13.2 		"/>
		<polyline id="XMLID_769_" class="st31" points="441.4,-19.5 441.6,-19.5 441.6,-13.2 441.4,-13.2 		"/>
		<polyline id="XMLID_770_" class="st32" points="441.6,-19.5 441.7,-19.5 441.7,-13.2 441.6,-13.2 		"/>
		<polyline id="XMLID_771_" class="st32" points="441.7,-19.5 441.9,-19.5 441.9,-13.2 441.7,-13.2 		"/>
		<polyline id="XMLID_772_" class="st32" points="441.8,-19.5 442,-19.5 442,-13.2 441.8,-13.2 		"/>
		<polyline id="XMLID_773_" class="st33" points="441.9,-19.5 442.1,-19.5 442.1,-13.2 441.9,-13.2 		"/>
		<polyline id="XMLID_774_" class="st33" points="442,-19.5 442.2,-19.5 442.2,-13.2 442,-13.2 		"/>
		<polyline id="XMLID_775_" class="st33" points="442.2,-19.5 442.4,-19.5 442.4,-13.2 442.2,-13.2 		"/>
		<polyline id="XMLID_776_" class="st33" points="442.3,-19.5 442.5,-19.5 442.5,-13.2 442.3,-13.2 		"/>
		<polyline id="XMLID_777_" class="st33" points="442.4,-19.5 442.6,-19.5 442.6,-13.2 442.4,-13.2 		"/>
		<polyline id="XMLID_778_" class="st33" points="442.6,-19.5 442.8,-19.5 442.8,-13.2 442.6,-13.2 		"/>
		<polyline id="XMLID_779_" class="st33" points="442.7,-19.5 442.9,-19.5 442.9,-13.2 442.7,-13.2 		"/>
		<polyline id="XMLID_780_" class="st33" points="442.8,-19.5 443,-19.5 443,-13.2 442.8,-13.2 		"/>
		<polyline id="XMLID_781_" class="st33" points="442.9,-19.5 443.1,-19.5 443.1,-13.2 442.9,-13.2 		"/>
		<polyline id="XMLID_782_" class="st34" points="443.1,-19.5 443.2,-19.5 443.2,-13.2 443.1,-13.2 		"/>
		<polyline id="XMLID_783_" class="st35" points="443.2,-19.5 443.4,-19.5 443.4,-13.2 443.2,-13.2 		"/>
		<polyline id="XMLID_784_" class="st35" points="443.3,-19.5 443.5,-19.5 443.5,-13.2 443.3,-13.2 		"/>
		<polyline id="XMLID_785_" class="st35" points="443.4,-19.5 443.6,-19.5 443.6,-13.2 443.4,-13.2 		"/>
		<polyline id="XMLID_786_" class="st35" points="443.5,-19.5 443.7,-19.5 443.7,-13.2 443.5,-13.2 		"/>
		<polyline id="XMLID_787_" class="st35" points="443.7,-19.5 443.9,-19.5 443.9,-13.2 443.7,-13.2 		"/>
		<polyline id="XMLID_788_" class="st35" points="443.8,-19.5 444,-19.5 444,-13.2 443.8,-13.2 		"/>
		<polyline id="XMLID_789_" class="st35" points="443.9,-19.5 444.1,-19.5 444.1,-13.2 443.9,-13.2 		"/>
		<polyline id="XMLID_790_" class="st36" points="444.1,-19.5 444.3,-19.5 444.3,-13.2 444.1,-13.2 		"/>
		<polyline id="XMLID_791_" class="st36" points="444.2,-19.5 444.4,-19.5 444.4,-13.2 444.2,-13.2 		"/>
		<polyline id="XMLID_792_" class="st37" points="444.3,-19.5 444.5,-19.5 444.5,-13.2 444.3,-13.2 		"/>
		<polyline id="XMLID_793_" class="st37" points="444.4,-19.5 444.6,-19.5 444.6,-13.2 444.4,-13.2 		"/>
		<polyline id="XMLID_794_" class="st37" points="444.6,-19.5 444.7,-19.5 444.7,-13.2 444.6,-13.2 		"/>
		<polyline id="XMLID_795_" class="st37" points="444.7,-19.5 444.9,-19.5 444.9,-13.2 444.7,-13.2 		"/>
		<polyline id="XMLID_796_" class="st38" points="444.8,-19.5 445,-19.5 445,-13.2 444.8,-13.2 		"/>
		<polyline id="XMLID_800_" class="st38" points="444.9,-19.5 445.1,-19.5 445.1,-13.2 444.9,-13.2 		"/>
		<polyline id="XMLID_803_" class="st38" points="445.1,-19.5 445.2,-19.5 445.2,-13.2 445.1,-13.2 		"/>
		<polyline id="XMLID_804_" class="st39" points="445.2,-19.5 445.4,-19.5 445.4,-13.2 445.2,-13.2 		"/>
		<polyline id="XMLID_805_" class="st39" points="445.3,-19.5 445.5,-19.5 445.5,-13.2 445.3,-13.2 		"/>
		<polyline id="XMLID_806_" class="st39" points="445.4,-19.5 445.6,-19.5 445.6,-13.2 445.4,-13.2 		"/>
		<polyline id="XMLID_807_" class="st39" points="445.6,-19.5 445.8,-19.5 445.8,-13.2 445.6,-13.2 		"/>
		<polyline id="XMLID_808_" class="st39" points="445.7,-19.5 445.9,-19.5 445.9,-13.2 445.7,-13.2 		"/>
		<polyline id="XMLID_813_" class="st39" points="445.8,-19.5 446,-19.5 446,-13.2 445.8,-13.2 		"/>
		<polyline id="XMLID_814_" class="st39" points="445.9,-19.5 446.1,-19.5 446.1,-13.2 445.9,-13.2 		"/>
		<polyline id="XMLID_815_" class="st39" points="446.1,-19.5 446.2,-19.5 446.2,-13.2 446.1,-13.2 		"/>
		<polyline id="XMLID_816_" class="st39" points="446.2,-19.5 446.4,-19.5 446.4,-13.2 446.2,-13.2 		"/>
		<polyline id="XMLID_817_" class="st40" points="446.3,-19.5 446.5,-19.5 446.5,-13.2 446.3,-13.2 		"/>
		<polyline id="XMLID_818_" class="st41" points="446.4,-19.5 446.6,-19.5 446.6,-13.2 446.4,-13.2 		"/>
		<polyline id="XMLID_819_" class="st41" points="446.6,-19.5 446.7,-19.5 446.7,-13.2 446.6,-13.2 		"/>
		<polyline id="XMLID_820_" class="st41" points="446.7,-19.5 446.9,-19.5 446.9,-13.2 446.7,-13.2 		"/>
		<polyline id="XMLID_821_" class="st41" points="446.8,-19.5 447,-19.5 447,-13.2 446.8,-13.2 		"/>
		<polyline id="XMLID_822_" class="st41" points="446.9,-19.5 447.1,-19.5 447.1,-13.2 446.9,-13.2 		"/>
		<polyline id="XMLID_823_" class="st41" points="447.1,-19.5 447.3,-19.5 447.3,-13.2 447.1,-13.2 		"/>
		<polyline id="XMLID_824_" class="st41" points="447.2,-19.5 447.4,-19.5 447.4,-13.2 447.2,-13.2 		"/>
		<polyline id="XMLID_825_" class="st41" points="447.3,-19.5 447.5,-19.5 447.5,-13.2 447.3,-13.2 		"/>
		<polyline id="XMLID_826_" class="st42" points="447.4,-19.5 447.6,-19.5 447.6,-13.2 447.4,-13.2 		"/>
		<polyline id="XMLID_827_" class="st42" points="447.6,-19.5 447.8,-19.5 447.8,-13.2 447.6,-13.2 		"/>
		<polyline id="XMLID_828_" class="st42" points="447.7,-19.5 447.9,-19.5 447.9,-13.2 447.7,-13.2 		"/>
		<polyline id="XMLID_829_" class="st42" points="447.8,-19.5 448,-19.5 448,-13.2 447.8,-13.2 		"/>
		<polyline id="XMLID_830_" class="st43" points="447.9,-19.5 448.1,-19.5 448.1,-13.2 447.9,-13.2 		"/>
		<polyline id="XMLID_831_" class="st43" points="448.1,-19.5 448.3,-19.5 448.3,-13.2 448.1,-13.2 		"/>
		<polyline id="XMLID_832_" class="st43" points="448.2,-19.5 448.4,-19.5 448.4,-13.2 448.2,-13.2 		"/>
		<polyline id="XMLID_833_" class="st43" points="448.3,-19.5 448.5,-19.5 448.5,-13.2 448.3,-13.2 		"/>
		<polyline id="XMLID_834_" class="st43" points="448.4,-19.5 448.6,-19.5 448.6,-13.2 448.4,-13.2 		"/>
		<polyline id="XMLID_835_" class="st44" points="448.6,-19.5 448.8,-19.5 448.8,-13.2 448.6,-13.2 		"/>
		<polyline id="XMLID_836_" class="st44" points="448.7,-19.5 448.9,-19.5 448.9,-13.2 448.7,-13.2 		"/>
		<polyline id="XMLID_837_" class="st44" points="448.8,-19.5 449,-19.5 449,-13.2 448.8,-13.2 		"/>
		<polyline id="XMLID_838_" class="st44" points="449,-19.5 449.1,-19.5 449.1,-13.2 449,-13.2 		"/>
		<polyline id="XMLID_839_" class="st44" points="449.1,-19.5 449.3,-19.5 449.3,-13.2 449.1,-13.2 		"/>
		<polyline id="XMLID_840_" class="st44" points="449.2,-19.5 449.4,-19.5 449.4,-13.2 449.2,-13.2 		"/>
		<polyline id="XMLID_841_" class="st44" points="449.3,-19.5 449.5,-19.5 449.5,-13.2 449.3,-13.2 		"/>
		<polyline id="XMLID_842_" class="st44" points="449.4,-19.5 449.6,-19.5 449.6,-13.2 449.4,-13.2 		"/>
		<polyline id="XMLID_843_" class="st45" points="449.6,-19.5 449.8,-19.5 449.8,-13.2 449.6,-13.2 		"/>
		<polyline id="XMLID_844_" class="st45" points="449.7,-19.5 449.9,-19.5 449.9,-13.2 449.7,-13.2 		"/>
		<polyline id="XMLID_845_" class="st45" points="449.8,-19.5 450,-19.5 450,-13.2 449.8,-13.2 		"/>
		<polyline id="XMLID_846_" class="st45" points="450,-19.5 450.1,-19.5 450.1,-13.2 450,-13.2 		"/>
		<polyline id="XMLID_847_" class="st45" points="450.1,-19.5 450.3,-19.5 450.3,-13.2 450.1,-13.2 		"/>
		<polyline id="XMLID_848_" class="st45" points="450.2,-19.5 450.4,-19.5 450.4,-13.2 450.2,-13.2 		"/>
		<polyline id="XMLID_849_" class="st45" points="450.3,-19.5 450.5,-19.5 450.5,-13.2 450.3,-13.2 		"/>
		<polyline id="XMLID_850_" class="st45" points="450.5,-19.5 450.6,-19.5 450.6,-13.2 450.5,-13.2 		"/>
		<polyline id="XMLID_851_" class="st45" points="450.6,-19.5 450.8,-19.5 450.8,-13.2 450.6,-13.2 		"/>
		<polyline id="XMLID_852_" class="st46" points="450.7,-19.5 450.9,-19.5 450.9,-13.2 450.7,-13.2 		"/>
		<polyline id="XMLID_853_" class="st46" points="450.8,-19.5 451,-19.5 451,-13.2 450.8,-13.2 		"/>
		<polyline id="XMLID_854_" class="st46" points="450.9,-19.5 451.1,-19.5 451.1,-13.2 450.9,-13.2 		"/>
		<polyline id="XMLID_855_" class="st46" points="451.1,-19.5 451.3,-19.5 451.3,-13.2 451.1,-13.2 		"/>
		<polyline id="XMLID_856_" class="st47" points="451.2,-19.5 451.4,-19.5 451.4,-13.2 451.2,-13.2 		"/>
		<polyline id="XMLID_857_" class="st47" points="451.3,-19.5 451.5,-19.5 451.5,-13.2 451.3,-13.2 		"/>
		<polyline id="XMLID_858_" class="st48" points="451.5,-19.5 451.7,-19.5 451.7,-13.2 451.5,-13.2 		"/>
		<polyline id="XMLID_859_" class="st48" points="451.6,-19.5 451.8,-19.5 451.8,-13.2 451.6,-13.2 		"/>
		<polyline id="XMLID_860_" class="st48" points="451.7,-19.5 451.9,-19.5 451.9,-13.2 451.7,-13.2 		"/>
		<polyline id="XMLID_861_" class="st49" points="451.8,-19.5 452,-19.5 452,-13.2 451.8,-13.2 		"/>
		<polyline id="XMLID_862_" class="st49" points="452,-19.5 452.1,-19.5 452.1,-13.2 452,-13.2 		"/>
		<polyline id="XMLID_863_" class="st49" points="452.1,-19.5 452.3,-19.5 452.3,-13.2 452.1,-13.2 		"/>
		<polyline id="XMLID_864_" class="st49" points="452.2,-19.5 452.4,-19.5 452.4,-13.2 452.2,-13.2 		"/>
		<polyline id="XMLID_865_" class="st49" points="452.3,-19.5 452.5,-19.5 452.5,-13.2 452.3,-13.2 		"/>
		<polyline id="XMLID_866_" class="st49" points="452.4,-19.5 452.6,-19.5 452.6,-13.2 452.4,-13.2 		"/>
		<polyline id="XMLID_867_" class="st49" points="452.6,-19.5 452.8,-19.5 452.8,-13.2 452.6,-13.2 		"/>
		<polyline id="XMLID_868_" class="st49" points="452.7,-19.5 452.9,-19.5 452.9,-13.2 452.7,-13.2 		"/>
		<polyline id="XMLID_869_" class="st50" points="452.8,-19.5 453,-19.5 453,-13.2 452.8,-13.2 		"/>
		<polyline id="XMLID_870_" class="st51" points="453,-19.5 453.2,-19.5 453.2,-13.2 453,-13.2 		"/>
		<polyline id="XMLID_871_" class="st51" points="453.1,-19.5 453.3,-19.5 453.3,-13.2 453.1,-13.2 		"/>
		<polyline id="XMLID_872_" class="st51" points="453.2,-19.5 453.4,-19.5 453.4,-13.2 453.2,-13.2 		"/>
		<polyline id="XMLID_873_" class="st51" points="453.3,-19.5 453.5,-19.5 453.5,-13.2 453.3,-13.2 		"/>
		<polyline id="XMLID_874_" class="st51" points="453.5,-19.5 453.6,-19.5 453.6,-13.2 453.5,-13.2 		"/>
		<polyline id="XMLID_875_" class="st51" points="453.6,-19.5 453.8,-19.5 453.8,-13.2 453.6,-13.2 		"/>
		<polyline id="XMLID_876_" class="st51" points="453.7,-19.5 453.9,-19.5 453.9,-13.2 453.7,-13.2 		"/>
		<polyline id="XMLID_877_" class="st51" points="453.8,-19.5 454,-19.5 454,-13.2 453.8,-13.2 		"/>
		<polyline id="XMLID_878_" class="st51" points="453.9,-19.5 454.1,-19.5 454.1,-13.2 453.9,-13.2 		"/>
		<polyline id="XMLID_879_" class="st52" points="454.1,-19.5 454.3,-19.5 454.3,-13.2 454.1,-13.2 		"/>
		<polyline id="XMLID_880_" class="st52" points="454.2,-19.5 454.4,-19.5 454.4,-13.2 454.2,-13.2 		"/>
		<polyline id="XMLID_881_" class="st53" points="454.3,-19.5 454.5,-19.5 454.5,-13.2 454.3,-13.2 		"/>
		<polyline id="XMLID_882_" class="st53" points="454.5,-19.5 454.7,-19.5 454.7,-13.2 454.5,-13.2 		"/>
		<polyline id="XMLID_883_" class="st53" points="454.6,-19.5 454.8,-19.5 454.8,-13.2 454.6,-13.2 		"/>
		<polyline id="XMLID_884_" class="st53" points="454.7,-19.5 454.9,-19.5 454.9,-13.2 454.7,-13.2 		"/>
		<polyline id="XMLID_885_" class="st53" points="454.8,-19.5 455,-19.5 455,-13.2 454.8,-13.2 		"/>
		<polyline id="XMLID_886_" class="st54" points="455,-19.5 455.1,-19.5 455.1,-13.2 455,-13.2 		"/>
		<polyline id="XMLID_887_" class="st55" points="455.1,-19.5 455.3,-19.5 455.3,-13.2 455.1,-13.2 		"/>
		<polyline id="XMLID_888_" class="st55" points="455.2,-19.5 455.4,-19.5 455.4,-13.2 455.2,-13.2 		"/>
		<polyline id="XMLID_889_" class="st55" points="455.3,-19.5 455.5,-19.5 455.5,-13.2 455.3,-13.2 		"/>
		<polyline id="XMLID_890_" class="st55" points="455.5,-19.5 455.6,-19.5 455.6,-13.2 455.5,-13.2 		"/>
		<polyline id="XMLID_891_" class="st55" points="455.6,-19.5 455.8,-19.5 455.8,-13.2 455.6,-13.2 		"/>
		<polyline id="XMLID_892_" class="st55" points="455.7,-19.5 455.9,-19.5 455.9,-13.2 455.7,-13.2 		"/>
		<polyline id="XMLID_893_" class="st55" points="455.8,-19.5 456,-19.5 456,-13.2 455.8,-13.2 		"/>
		<polyline id="XMLID_894_" class="st56" points="456,-19.5 456.2,-19.5 456.2,-13.2 456,-13.2 		"/>
		<polyline id="XMLID_895_" class="st56" points="456.1,-19.5 456.3,-19.5 456.3,-13.2 456.1,-13.2 		"/>
		<polyline id="XMLID_896_" class="st57" points="456.2,-19.5 456.4,-19.5 456.4,-13.2 456.2,-13.2 		"/>
		<polyline id="XMLID_897_" class="st57" points="456.3,-19.5 456.5,-19.5 456.5,-13.2 456.3,-13.2 		"/>
		<polyline id="XMLID_898_" class="st57" points="456.5,-19.5 456.6,-19.5 456.6,-13.2 456.5,-13.2 		"/>
		<polyline id="XMLID_899_" class="st57" points="456.6,-19.5 456.8,-19.5 456.8,-13.2 456.6,-13.2 		"/>
		<polyline id="XMLID_900_" class="st57" points="456.7,-19.5 457,-19.5 457,-13.2 456.7,-13.2 		"/>
	</g>
	<path id="XMLID_901_" class="st58" d="M408.9-30.4h-6.8c-0.5,0-1-0.4-1-1s0.4-1,1-1h6.8c0.5,0,1,0.4,1,1S409.4-30.4,408.9-30.4
		L408.9-30.4z"/>
	<path id="XMLID_902_" class="st59" d="M418.5-30.4h-6.7c-0.5,0-1-0.4-1-1s0.4-1,1-1h6.7c0.5,0,1,0.4,1,1S419.1-30.4,418.5-30.4
		L418.5-30.4z"/>
</g>
<g id="XMLID_553_">
	<path id="XMLID_554_" class="st2" d="M545.3,106h-30.4c-1.1,0-2-0.9-2-2V53.4c0-1.1,0.9-2,2-2h30.4c1.1,0,2,0.9,2,2V104
		C547.3,105.1,546.4,106,545.3,106L545.3,106z"/>
	<path id="XMLID_555_" class="st1" d="M513.7,57.9h-1.5v-3.5c0-2.1,1.7-3.8,3.8-3.8H534v1.5H516c-1.3,0-2.3,1-2.3,2.3V57.9z"/>
	<path id="XMLID_556_" class="st1" d="M544.2,106.8H516c-2.1,0-3.8-1.7-3.8-3.8V76.7h1.5v26.2c0,1.3,1,2.3,2.3,2.3h28.2
		c1.3,0,2.3-1,2.3-2.3V54.4c0-1.3-1-2.3-2.3-2.3H542v-1.5h2.2c2.1,0,3.8,1.7,3.8,3.8v48.5C548,105,546.3,106.8,544.2,106.8
		L544.2,106.8z"/>
	<rect id="XMLID_557_" x="535.8" y="50.6" class="st1" width="4.9" height="1.5"/>
	<rect id="XMLID_558_" x="525" y="54.7" class="st1" width="10.2" height="1.5"/>
	<path id="XMLID_560_" class="st1" d="M530.1,100.6c-0.5,0-0.9,0.4-0.9,0.9c0,0.5,0.4,0.9,0.9,0.9c0.5,0,0.9-0.4,0.9-0.9
		C531,101,530.6,100.6,530.1,100.6L530.1,100.6z M530.1,103.9c-1.3,0-2.4-1.1-2.4-2.4c0-1.3,1.1-2.4,2.4-2.4c1.3,0,2.4,1.1,2.4,2.4
		C532.5,102.9,531.4,103.9,530.1,103.9L530.1,103.9z"/>
	<rect id="XMLID_562_" x="516.4" y="59.3" class="st0" width="27.5" height="38.7"/>
	<path id="XMLID_563_" class="st60" d="M529.8,61.5v11.6c0,0.7-0.5,1.2-1.1,1.2h-0.7v2.4v4.5c0,0.2-0.3,0.3-0.5,0.1l-5.8-7h-16.4
		c-0.6,0-1.1-0.5-1.1-1.2V61.5c0-0.6,0.5-1.1,1.1-1.1h23.3C529.3,60.3,529.8,60.9,529.8,61.5L529.8,61.5z"/>
	<path id="XMLID_565_" class="st59" d="M505.4,61.1c-0.2,0-0.4,0.2-0.4,0.4v11.6c0,0.2,0.2,0.4,0.4,0.4h16.7l5.2,6.2v-6.2h1.4
		c0.2,0,0.4-0.2,0.4-0.4V61.5c0-0.2-0.2-0.4-0.4-0.4H505.4z M527.8,82.1c-0.3,0-0.6-0.1-0.8-0.4l-5.6-6.7h-16c-1,0-1.9-0.9-1.9-1.9
		V61.5c0-1.1,0.9-1.9,1.9-1.9h23.3c1,0,1.9,0.9,1.9,1.9v11.6c0,1-0.8,1.8-1.8,1.9v6.1c0,0.4-0.3,0.8-0.7,0.9
		C528,82.1,527.9,82.1,527.8,82.1L527.8,82.1z"/>
	<rect id="XMLID_567_" x="510" y="63.5" class="st59" width="14.2" height="1.5"/>
	<rect id="XMLID_568_" x="510" y="66.6" class="st59" width="14.2" height="1.5"/>
	<rect id="XMLID_569_" x="510" y="69.6" class="st59" width="7.7" height="1.5"/>
</g>
<g id="XMLID_214_">
	<polygon id="XMLID_215_" class="st61" points="71.5,25.9 71.5,25.5 1,25.5 36.1,46.1 	"/>
	<polygon id="XMLID_216_" class="st3" points="71.4,25.1 71.4,25.5 0.9,25.5 36,4.9 	"/>
	<g id="XMLID_218_">
		<defs>
			<path id="XMLID_217_" d="M62.1,50.3H11V2.6c0-1,0.8-1.8,1.9-1.8h47.3c1,0,1.8,0.8,1.8,1.8V50.3z"/>
		</defs>
		<clipPath id="XMLID_29_">
			<use xlink:href="#XMLID_217_"  style="overflow:visible;"/>
		</clipPath>
		<polyline id="XMLID_219_" class="st62" points="11,0.8 11.1,0.8 11.1,50.3 11,50.3 		"/>
		<polyline id="XMLID_220_" class="st62" points="11,0.8 11.3,0.8 11.3,50.3 11,50.3 		"/>
		<polyline id="XMLID_221_" class="st62" points="11.2,0.8 11.5,0.8 11.5,50.3 11.2,50.3 		"/>
		<polyline id="XMLID_222_" class="st62" points="11.4,0.8 11.7,0.8 11.7,50.3 11.4,50.3 		"/>
		<polyline id="XMLID_223_" class="st62" points="11.6,0.8 11.9,0.8 11.9,50.3 11.6,50.3 		"/>
		<polyline id="XMLID_224_" class="st63" points="11.8,0.8 12.1,0.8 12.1,50.3 11.8,50.3 		"/>
		<polyline id="XMLID_225_" class="st63" points="12,0.8 12.3,0.8 12.3,50.3 12,50.3 		"/>
		<polyline id="XMLID_226_" class="st64" points="12.2,0.8 12.5,0.8 12.5,50.3 12.2,50.3 		"/>
		<polyline id="XMLID_227_" class="st64" points="12.4,0.8 12.7,0.8 12.7,50.3 12.4,50.3 		"/>
		<polyline id="XMLID_228_" class="st64" points="12.6,0.8 12.9,0.8 12.9,50.3 12.6,50.3 		"/>
		<polyline id="XMLID_229_" class="st64" points="12.8,0.8 13.1,0.8 13.1,50.3 12.8,50.3 		"/>
		<polyline id="XMLID_230_" class="st64" points="13,0.8 13.3,0.8 13.3,50.3 13,50.3 		"/>
		<polyline id="XMLID_231_" class="st64" points="13.2,0.8 13.5,0.8 13.5,50.3 13.2,50.3 		"/>
		<polyline id="XMLID_232_" class="st64" points="13.4,0.8 13.7,0.8 13.7,50.3 13.4,50.3 		"/>
		<polyline id="XMLID_233_" class="st65" points="13.6,0.8 13.9,0.8 13.9,50.3 13.6,50.3 		"/>
		<polyline id="XMLID_236_" class="st66" points="13.8,0.8 14.1,0.8 14.1,50.3 13.8,50.3 		"/>
		<polyline id="XMLID_237_" class="st66" points="14,0.8 14.3,0.8 14.3,50.3 14,50.3 		"/>
		<polyline id="XMLID_238_" class="st66" points="14.2,0.8 14.5,0.8 14.5,50.3 14.2,50.3 		"/>
		<polyline id="XMLID_245_" class="st66" points="14.4,0.8 14.7,0.8 14.7,50.3 14.4,50.3 		"/>
		<polyline id="XMLID_247_" class="st66" points="14.6,0.8 14.9,0.8 14.9,50.3 14.6,50.3 		"/>
		<polyline id="XMLID_248_" class="st67" points="14.8,0.8 15.1,0.8 15.1,50.3 14.8,50.3 		"/>
		<polyline id="XMLID_252_" class="st67" points="15,0.8 15.3,0.8 15.3,50.3 15,50.3 		"/>
		<polyline id="XMLID_253_" class="st68" points="15.2,0.8 15.5,0.8 15.5,50.3 15.2,50.3 		"/>
		<polyline id="XMLID_254_" class="st68" points="15.4,0.8 15.7,0.8 15.7,50.3 15.4,50.3 		"/>
		<polyline id="XMLID_255_" class="st68" points="15.6,0.8 15.9,0.8 15.9,50.3 15.6,50.3 		"/>
		<polyline id="XMLID_257_" class="st68" points="15.8,0.8 16.1,0.8 16.1,50.3 15.8,50.3 		"/>
		<polyline id="XMLID_259_" class="st68" points="16,0.8 16.3,0.8 16.3,50.3 16,50.3 		"/>
		<polyline id="XMLID_260_" class="st68" points="16.2,0.8 16.5,0.8 16.5,50.3 16.2,50.3 		"/>
		<polyline id="XMLID_261_" class="st68" points="16.4,0.8 16.7,0.8 16.7,50.3 16.4,50.3 		"/>
		<polyline id="XMLID_262_" class="st68" points="16.6,0.8 16.9,0.8 16.9,50.3 16.6,50.3 		"/>
		<polyline id="XMLID_263_" class="st68" points="16.8,0.8 17.1,0.8 17.1,50.3 16.8,50.3 		"/>
		<polyline id="XMLID_264_" class="st69" points="17,0.8 17.3,0.8 17.3,50.3 17,50.3 		"/>
		<polyline id="XMLID_265_" class="st70" points="17.2,0.8 17.5,0.8 17.5,50.3 17.2,50.3 		"/>
		<polyline id="XMLID_267_" class="st70" points="17.4,0.8 17.7,0.8 17.7,50.3 17.4,50.3 		"/>
		<polyline id="XMLID_268_" class="st70" points="17.6,0.8 17.9,0.8 17.9,50.3 17.6,50.3 		"/>
		<polyline id="XMLID_287_" class="st70" points="17.8,0.8 18.1,0.8 18.1,50.3 17.8,50.3 		"/>
		<polyline id="XMLID_289_" class="st70" points="18,0.8 18.3,0.8 18.3,50.3 18,50.3 		"/>
		<polyline id="XMLID_293_" class="st70" points="18.2,0.8 18.5,0.8 18.5,50.3 18.2,50.3 		"/>
		<polyline id="XMLID_297_" class="st70" points="18.4,0.8 18.7,0.8 18.7,50.3 18.4,50.3 		"/>
		<polyline id="XMLID_298_" class="st70" points="18.6,0.8 18.9,0.8 18.9,50.3 18.6,50.3 		"/>
		<polyline id="XMLID_300_" class="st71" points="18.8,0.8 19.1,0.8 19.1,50.3 18.8,50.3 		"/>
		<polyline id="XMLID_302_" class="st71" points="19,0.8 19.3,0.8 19.3,50.3 19,50.3 		"/>
		<polyline id="XMLID_305_" class="st71" points="19.2,0.8 19.5,0.8 19.5,50.3 19.2,50.3 		"/>
		<polyline id="XMLID_314_" class="st72" points="19.4,0.8 19.7,0.8 19.7,50.3 19.4,50.3 		"/>
		<polyline id="XMLID_318_" class="st72" points="19.6,0.8 19.9,0.8 19.9,50.3 19.6,50.3 		"/>
		<polyline id="XMLID_320_" class="st73" points="19.8,0.8 20.1,0.8 20.1,50.3 19.8,50.3 		"/>
		<polyline id="XMLID_321_" class="st73" points="20,0.8 20.3,0.8 20.3,50.3 20,50.3 		"/>
		<polyline id="XMLID_322_" class="st73" points="20.2,0.8 20.5,0.8 20.5,50.3 20.2,50.3 		"/>
		<polyline id="XMLID_325_" class="st73" points="20.4,0.8 20.7,0.8 20.7,50.3 20.4,50.3 		"/>
		<polyline id="XMLID_328_" class="st74" points="20.6,0.8 20.9,0.8 20.9,50.3 20.6,50.3 		"/>
		<polyline id="XMLID_331_" class="st74" points="20.8,0.8 21.1,0.8 21.1,50.3 20.8,50.3 		"/>
		<polyline id="XMLID_333_" class="st74" points="21,0.8 21.3,0.8 21.3,50.3 21,50.3 		"/>
		<polyline id="XMLID_334_" class="st74" points="21.2,0.8 21.5,0.8 21.5,50.3 21.2,50.3 		"/>
		<polyline id="XMLID_336_" class="st74" points="21.4,0.8 21.7,0.8 21.7,50.3 21.4,50.3 		"/>
		<polyline id="XMLID_337_" class="st74" points="21.6,0.8 21.9,0.8 21.9,50.3 21.6,50.3 		"/>
		<polyline id="XMLID_338_" class="st74" points="21.8,0.8 22.1,0.8 22.1,50.3 21.8,50.3 		"/>
		<polyline id="XMLID_340_" class="st74" points="22,0.8 22.3,0.8 22.3,50.3 22,50.3 		"/>
		<polyline id="XMLID_341_" class="st74" points="22.2,0.8 22.5,0.8 22.5,50.3 22.2,50.3 		"/>
		<polyline id="XMLID_342_" class="st75" points="22.4,0.8 22.7,0.8 22.7,50.3 22.4,50.3 		"/>
		<polyline id="XMLID_343_" class="st75" points="22.6,0.8 22.9,0.8 22.9,50.3 22.6,50.3 		"/>
		<polyline id="XMLID_344_" class="st75" points="22.8,0.8 23.1,0.8 23.1,50.3 22.8,50.3 		"/>
		<polyline id="XMLID_345_" class="st75" points="23,0.8 23.3,0.8 23.3,50.3 23,50.3 		"/>
		<polyline id="XMLID_346_" class="st75" points="23.2,0.8 23.5,0.8 23.5,50.3 23.2,50.3 		"/>
		<polyline id="XMLID_347_" class="st75" points="23.4,0.8 23.7,0.8 23.7,50.3 23.4,50.3 		"/>
		<polyline id="XMLID_348_" class="st75" points="23.6,0.8 23.9,0.8 23.9,50.3 23.6,50.3 		"/>
		<polyline id="XMLID_349_" class="st75" points="23.8,0.8 24.1,0.8 24.1,50.3 23.8,50.3 		"/>
		<polyline id="XMLID_350_" class="st76" points="24,0.8 24.3,0.8 24.3,50.3 24,50.3 		"/>
		<polyline id="XMLID_351_" class="st76" points="24.2,0.8 24.5,0.8 24.5,50.3 24.2,50.3 		"/>
		<polyline id="XMLID_352_" class="st76" points="24.4,0.8 24.7,0.8 24.7,50.3 24.4,50.3 		"/>
		<polyline id="XMLID_353_" class="st76" points="24.6,0.8 24.9,0.8 24.9,50.3 24.6,50.3 		"/>
		<polyline id="XMLID_354_" class="st76" points="24.8,0.8 25.1,0.8 25.1,50.3 24.8,50.3 		"/>
		<polyline id="XMLID_355_" class="st77" points="25,0.8 25.3,0.8 25.3,50.3 25,50.3 		"/>
		<polyline id="XMLID_356_" class="st77" points="25.2,0.8 25.5,0.8 25.5,50.3 25.2,50.3 		"/>
		<polyline id="XMLID_357_" class="st77" points="25.4,0.8 25.7,0.8 25.7,50.3 25.4,50.3 		"/>
		<polyline id="XMLID_358_" class="st77" points="25.6,0.8 25.9,0.8 25.9,50.3 25.6,50.3 		"/>
		<polyline id="XMLID_359_" class="st78" points="25.8,0.8 26.1,0.8 26.1,50.3 25.8,50.3 		"/>
		<polyline id="XMLID_360_" class="st78" points="26,0.8 26.3,0.8 26.3,50.3 26,50.3 		"/>
		<polyline id="XMLID_361_" class="st78" points="26.2,0.8 26.5,0.8 26.5,50.3 26.2,50.3 		"/>
		<polyline id="XMLID_362_" class="st78" points="26.4,0.8 26.7,0.8 26.7,50.3 26.4,50.3 		"/>
		<polyline id="XMLID_363_" class="st78" points="26.6,0.8 26.9,0.8 26.9,50.3 26.6,50.3 		"/>
		<polyline id="XMLID_364_" class="st78" points="26.8,0.8 27.1,0.8 27.1,50.3 26.8,50.3 		"/>
		<polyline id="XMLID_365_" class="st78" points="27,0.8 27.3,0.8 27.3,50.3 27,50.3 		"/>
		<polyline id="XMLID_366_" class="st78" points="27.2,0.8 27.5,0.8 27.5,50.3 27.2,50.3 		"/>
		<polyline id="XMLID_367_" class="st79" points="27.4,0.8 27.7,0.8 27.7,50.3 27.4,50.3 		"/>
		<polyline id="XMLID_368_" class="st80" points="27.6,0.8 27.9,0.8 27.9,50.3 27.6,50.3 		"/>
		<polyline id="XMLID_369_" class="st80" points="27.8,0.8 28.1,0.8 28.1,50.3 27.8,50.3 		"/>
		<polyline id="XMLID_370_" class="st80" points="28,0.8 28.3,0.8 28.3,50.3 28,50.3 		"/>
		<polyline id="XMLID_371_" class="st80" points="28.2,0.8 28.5,0.8 28.5,50.3 28.2,50.3 		"/>
		<polyline id="XMLID_372_" class="st80" points="28.4,0.8 28.7,0.8 28.7,50.3 28.4,50.3 		"/>
		<polyline id="XMLID_373_" class="st80" points="28.6,0.8 28.9,0.8 28.9,50.3 28.6,50.3 		"/>
		<polyline id="XMLID_374_" class="st80" points="28.8,0.8 29.1,0.8 29.1,50.3 28.8,50.3 		"/>
		<polyline id="XMLID_375_" class="st80" points="29,0.8 29.3,0.8 29.3,50.3 29,50.3 		"/>
		<polyline id="XMLID_376_" class="st80" points="29.2,0.8 29.5,0.8 29.5,50.3 29.2,50.3 		"/>
		<polyline id="XMLID_377_" class="st81" points="29.4,0.8 29.7,0.8 29.7,50.3 29.4,50.3 		"/>
		<polyline id="XMLID_378_" class="st81" points="29.6,0.8 29.9,0.8 29.9,50.3 29.6,50.3 		"/>
		<polyline id="XMLID_379_" class="st81" points="29.8,0.8 30.1,0.8 30.1,50.3 29.8,50.3 		"/>
		<polyline id="XMLID_380_" class="st82" points="30,0.8 30.3,0.8 30.3,50.3 30,50.3 		"/>
		<polyline id="XMLID_381_" class="st82" points="30.2,0.8 30.5,0.8 30.5,50.3 30.2,50.3 		"/>
		<polyline id="XMLID_382_" class="st82" points="30.4,0.8 30.7,0.8 30.7,50.3 30.4,50.3 		"/>
		<polyline id="XMLID_383_" class="st82" points="30.6,0.8 30.9,0.8 30.9,50.3 30.6,50.3 		"/>
		<polyline id="XMLID_384_" class="st83" points="30.8,0.8 31.1,0.8 31.1,50.3 30.8,50.3 		"/>
		<polyline id="XMLID_385_" class="st83" points="31,0.8 31.3,0.8 31.3,50.3 31,50.3 		"/>
		<polyline id="XMLID_386_" class="st84" points="31.2,0.8 31.5,0.8 31.5,50.3 31.2,50.3 		"/>
		<polyline id="XMLID_387_" class="st84" points="31.4,0.8 31.7,0.8 31.7,50.3 31.4,50.3 		"/>
		<polyline id="XMLID_388_" class="st84" points="31.5,0.8 31.9,0.8 31.9,50.3 31.5,50.3 		"/>
		<polyline id="XMLID_389_" class="st84" points="31.7,0.8 32.1,0.8 32.1,50.3 31.7,50.3 		"/>
		<polyline id="XMLID_390_" class="st84" points="31.9,0.8 32.3,0.8 32.3,50.3 31.9,50.3 		"/>
		<polyline id="XMLID_391_" class="st84" points="32.1,0.8 32.5,0.8 32.5,50.3 32.1,50.3 		"/>
		<polyline id="XMLID_392_" class="st84" points="32.3,0.8 32.7,0.8 32.7,50.3 32.3,50.3 		"/>
		<polyline id="XMLID_393_" class="st85" points="32.6,0.8 32.9,0.8 32.9,50.3 32.6,50.3 		"/>
		<polyline id="XMLID_394_" class="st86" points="32.8,0.8 33.1,0.8 33.1,50.3 32.8,50.3 		"/>
		<polyline id="XMLID_395_" class="st86" points="33,0.8 33.3,0.8 33.3,50.3 33,50.3 		"/>
		<polyline id="XMLID_396_" class="st86" points="33.2,0.8 33.4,0.8 33.4,50.3 33.2,50.3 		"/>
		<polyline id="XMLID_397_" class="st86" points="33.4,0.8 33.6,0.8 33.6,50.3 33.4,50.3 		"/>
		<polyline id="XMLID_398_" class="st86" points="33.6,0.8 33.8,0.8 33.8,50.3 33.6,50.3 		"/>
		<polyline id="XMLID_399_" class="st86" points="33.8,0.8 34,0.8 34,50.3 33.8,50.3 		"/>
		<polyline id="XMLID_400_" class="st86" points="34,0.8 34.2,0.8 34.2,50.3 34,50.3 		"/>
		<polyline id="XMLID_401_" class="st86" points="34.2,0.8 34.4,0.8 34.4,50.3 34.2,50.3 		"/>
		<polyline id="XMLID_402_" class="st86" points="34.4,0.8 34.6,0.8 34.6,50.3 34.4,50.3 		"/>
		<polyline id="XMLID_403_" class="st87" points="34.6,0.8 34.8,0.8 34.8,50.3 34.6,50.3 		"/>
		<polyline id="XMLID_404_" class="st87" points="34.8,0.8 35,0.8 35,50.3 34.8,50.3 		"/>
		<polyline id="XMLID_405_" class="st87" points="35,0.8 35.2,0.8 35.2,50.3 35,50.3 		"/>
		<polyline id="XMLID_406_" class="st88" points="35.1,0.8 35.4,0.8 35.4,50.3 35.1,50.3 		"/>
		<polyline id="XMLID_407_" class="st88" points="35.3,0.8 35.7,0.8 35.7,50.3 35.3,50.3 		"/>
		<polyline id="XMLID_408_" class="st88" points="35.5,0.8 35.9,0.8 35.9,50.3 35.5,50.3 		"/>
		<polyline id="XMLID_409_" class="st88" points="35.7,0.8 36.1,0.8 36.1,50.3 35.7,50.3 		"/>
		<polyline id="XMLID_410_" class="st88" points="35.9,0.8 36.3,0.8 36.3,50.3 35.9,50.3 		"/>
		<polyline id="XMLID_411_" class="st88" points="36.1,0.8 36.5,0.8 36.5,50.3 36.1,50.3 		"/>
		<polyline id="XMLID_412_" class="st89" points="36.3,0.8 36.7,0.8 36.7,50.3 36.3,50.3 		"/>
		<polyline id="XMLID_413_" class="st89" points="36.5,0.8 36.9,0.8 36.9,50.3 36.5,50.3 		"/>
		<polyline id="XMLID_415_" class="st89" points="36.7,0.8 37,0.8 37,50.3 36.7,50.3 		"/>
		<polyline id="XMLID_416_" class="st89" points="36.9,0.8 37.2,0.8 37.2,50.3 36.9,50.3 		"/>
		<polyline id="XMLID_417_" class="st89" points="37.1,0.8 37.4,0.8 37.4,50.3 37.1,50.3 		"/>
		<polyline id="XMLID_418_" class="st89" points="37.3,0.8 37.6,0.8 37.6,50.3 37.3,50.3 		"/>
		<polyline id="XMLID_419_" class="st90" points="37.5,0.8 37.8,0.8 37.8,50.3 37.5,50.3 		"/>
		<polyline id="XMLID_420_" class="st90" points="37.7,0.8 38,0.8 38,50.3 37.7,50.3 		"/>
		<polyline id="XMLID_421_" class="st90" points="37.9,0.8 38.2,0.8 38.2,50.3 37.9,50.3 		"/>
		<polyline id="XMLID_422_" class="st91" points="38.1,0.8 38.4,0.8 38.4,50.3 38.1,50.3 		"/>
		<polyline id="XMLID_423_" class="st91" points="38.3,0.8 38.6,0.8 38.6,50.3 38.3,50.3 		"/>
		<polyline id="XMLID_424_" class="st91" points="38.5,0.8 38.8,0.8 38.8,50.3 38.5,50.3 		"/>
		<polyline id="XMLID_425_" class="st91" points="38.7,0.8 39,0.8 39,50.3 38.7,50.3 		"/>
		<polyline id="XMLID_426_" class="st91" points="38.9,0.8 39.2,0.8 39.2,50.3 38.9,50.3 		"/>
		<polyline id="XMLID_427_" class="st91" points="39.1,0.8 39.4,0.8 39.4,50.3 39.1,50.3 		"/>
		<polyline id="XMLID_428_" class="st91" points="39.3,0.8 39.6,0.8 39.6,50.3 39.3,50.3 		"/>
		<polyline id="XMLID_429_" class="st91" points="39.5,0.8 39.8,0.8 39.8,50.3 39.5,50.3 		"/>
		<polyline id="XMLID_430_" class="st91" points="39.7,0.8 40,0.8 40,50.3 39.7,50.3 		"/>
		<polyline id="XMLID_431_" class="st92" points="39.9,0.8 40.2,0.8 40.2,50.3 39.9,50.3 		"/>
		<polyline id="XMLID_432_" class="st93" points="40.1,0.8 40.4,0.8 40.4,50.3 40.1,50.3 		"/>
		<polyline id="XMLID_433_" class="st93" points="40.3,0.8 40.6,0.8 40.6,50.3 40.3,50.3 		"/>
		<polyline id="XMLID_434_" class="st93" points="40.5,0.8 40.8,0.8 40.8,50.3 40.5,50.3 		"/>
		<polyline id="XMLID_435_" class="st93" points="40.7,0.8 41,0.8 41,50.3 40.7,50.3 		"/>
		<polyline id="XMLID_436_" class="st93" points="40.9,0.8 41.2,0.8 41.2,50.3 40.9,50.3 		"/>
		<polyline id="XMLID_437_" class="st93" points="41.1,0.8 41.4,0.8 41.4,50.3 41.1,50.3 		"/>
		<polyline id="XMLID_438_" class="st93" points="41.3,0.8 41.6,0.8 41.6,50.3 41.3,50.3 		"/>
		<polyline id="XMLID_439_" class="st94" points="41.5,0.8 41.8,0.8 41.8,50.3 41.5,50.3 		"/>
		<polyline id="XMLID_440_" class="st94" points="41.7,0.8 42,0.8 42,50.3 41.7,50.3 		"/>
		<polyline id="XMLID_441_" class="st95" points="41.9,0.8 42.2,0.8 42.2,50.3 41.9,50.3 		"/>
		<polyline id="XMLID_442_" class="st95" points="42.1,0.8 42.4,0.8 42.4,50.3 42.1,50.3 		"/>
		<polyline id="XMLID_443_" class="st95" points="42.3,0.8 42.6,0.8 42.6,50.3 42.3,50.3 		"/>
		<polyline id="XMLID_444_" class="st95" points="42.5,0.8 42.8,0.8 42.8,50.3 42.5,50.3 		"/>
		<polyline id="XMLID_445_" class="st96" points="42.7,0.8 43,0.8 43,50.3 42.7,50.3 		"/>
		<polyline id="XMLID_446_" class="st96" points="42.9,0.8 43.2,0.8 43.2,50.3 42.9,50.3 		"/>
		<polyline id="XMLID_447_" class="st96" points="43.1,0.8 43.4,0.8 43.4,50.3 43.1,50.3 		"/>
		<polyline id="XMLID_448_" class="st97" points="43.3,0.8 43.6,0.8 43.6,50.3 43.3,50.3 		"/>
		<polyline id="XMLID_449_" class="st97" points="43.5,0.8 43.8,0.8 43.8,50.3 43.5,50.3 		"/>
		<polyline id="XMLID_450_" class="st97" points="43.7,0.8 44,0.8 44,50.3 43.7,50.3 		"/>
		<polyline id="XMLID_451_" class="st97" points="43.9,0.8 44.2,0.8 44.2,50.3 43.9,50.3 		"/>
		<polyline id="XMLID_452_" class="st97" points="44.1,0.8 44.4,0.8 44.4,50.3 44.1,50.3 		"/>
		<polyline id="XMLID_453_" class="st97" points="44.3,0.8 44.6,0.8 44.6,50.3 44.3,50.3 		"/>
		<polyline id="XMLID_454_" class="st97" points="44.5,0.8 44.8,0.8 44.8,50.3 44.5,50.3 		"/>
		<polyline id="XMLID_455_" class="st97" points="44.7,0.8 45,0.8 45,50.3 44.7,50.3 		"/>
		<polyline id="XMLID_456_" class="st97" points="44.9,0.8 45.2,0.8 45.2,50.3 44.9,50.3 		"/>
		<polyline id="XMLID_457_" class="st98" points="45.1,0.8 45.4,0.8 45.4,50.3 45.1,50.3 		"/>
		<polyline id="XMLID_458_" class="st99" points="45.3,0.8 45.6,0.8 45.6,50.3 45.3,50.3 		"/>
		<polyline id="XMLID_459_" class="st99" points="45.5,0.8 45.8,0.8 45.8,50.3 45.5,50.3 		"/>
		<polyline id="XMLID_460_" class="st99" points="45.7,0.8 46,0.8 46,50.3 45.7,50.3 		"/>
		<polyline id="XMLID_461_" class="st99" points="45.9,0.8 46.2,0.8 46.2,50.3 45.9,50.3 		"/>
		<polyline id="XMLID_462_" class="st99" points="46.1,0.8 46.4,0.8 46.4,50.3 46.1,50.3 		"/>
		<polyline id="XMLID_463_" class="st99" points="46.3,0.8 46.6,0.8 46.6,50.3 46.3,50.3 		"/>
		<polyline id="XMLID_464_" class="st99" points="46.5,0.8 46.8,0.8 46.8,50.3 46.5,50.3 		"/>
		<polyline id="XMLID_465_" class="st99" points="46.7,0.8 47,0.8 47,50.3 46.7,50.3 		"/>
		<polyline id="XMLID_466_" class="st100" points="46.9,0.8 47.2,0.8 47.2,50.3 46.9,50.3 		"/>
		<polyline id="XMLID_467_" class="st100" points="47.1,0.8 47.4,0.8 47.4,50.3 47.1,50.3 		"/>
		<polyline id="XMLID_468_" class="st100" points="47.3,0.8 47.6,0.8 47.6,50.3 47.3,50.3 		"/>
		<polyline id="XMLID_469_" class="st100" points="47.5,0.8 47.8,0.8 47.8,50.3 47.5,50.3 		"/>
		<polyline id="XMLID_470_" class="st101" points="47.7,0.8 48,0.8 48,50.3 47.7,50.3 		"/>
		<polyline id="XMLID_471_" class="st101" points="47.9,0.8 48.2,0.8 48.2,50.3 47.9,50.3 		"/>
		<polyline id="XMLID_472_" class="st101" points="48.1,0.8 48.4,0.8 48.4,50.3 48.1,50.3 		"/>
		<polyline id="XMLID_473_" class="st101" points="48.3,0.8 48.6,0.8 48.6,50.3 48.3,50.3 		"/>
		<polyline id="XMLID_474_" class="st101" points="48.5,0.8 48.8,0.8 48.8,50.3 48.5,50.3 		"/>
		<polyline id="XMLID_475_" class="st102" points="48.7,0.8 49,0.8 49,50.3 48.7,50.3 		"/>
		<polyline id="XMLID_476_" class="st102" points="48.9,0.8 49.2,0.8 49.2,50.3 48.9,50.3 		"/>
		<polyline id="XMLID_477_" class="st102" points="49.1,0.8 49.4,0.8 49.4,50.3 49.1,50.3 		"/>
		<polyline id="XMLID_478_" class="st102" points="49.3,0.8 49.6,0.8 49.6,50.3 49.3,50.3 		"/>
		<polyline id="XMLID_479_" class="st102" points="49.5,0.8 49.8,0.8 49.8,50.3 49.5,50.3 		"/>
		<polyline id="XMLID_480_" class="st102" points="49.7,0.8 50,0.8 50,50.3 49.7,50.3 		"/>
		<polyline id="XMLID_481_" class="st102" points="49.9,0.8 50.2,0.8 50.2,50.3 49.9,50.3 		"/>
		<polyline id="XMLID_482_" class="st102" points="50.1,0.8 50.4,0.8 50.4,50.3 50.1,50.3 		"/>
		<polyline id="XMLID_483_" class="st103" points="50.3,0.8 50.6,0.8 50.6,50.3 50.3,50.3 		"/>
		<polyline id="XMLID_484_" class="st103" points="50.5,0.8 50.8,0.8 50.8,50.3 50.5,50.3 		"/>
		<polyline id="XMLID_485_" class="st103" points="50.7,0.8 51,0.8 51,50.3 50.7,50.3 		"/>
		<polyline id="XMLID_486_" class="st103" points="50.9,0.8 51.2,0.8 51.2,50.3 50.9,50.3 		"/>
		<polyline id="XMLID_487_" class="st103" points="51.1,0.8 51.4,0.8 51.4,50.3 51.1,50.3 		"/>
		<polyline id="XMLID_488_" class="st103" points="51.3,0.8 51.6,0.8 51.6,50.3 51.3,50.3 		"/>
		<polyline id="XMLID_489_" class="st103" points="51.5,0.8 51.8,0.8 51.8,50.3 51.5,50.3 		"/>
		<polyline id="XMLID_490_" class="st103" points="51.7,0.8 52,0.8 52,50.3 51.7,50.3 		"/>
		<polyline id="XMLID_491_" class="st103" points="51.9,0.8 52.2,0.8 52.2,50.3 51.9,50.3 		"/>
		<polyline id="XMLID_492_" class="st104" points="52.1,0.8 52.4,0.8 52.4,50.3 52.1,50.3 		"/>
		<polyline id="XMLID_493_" class="st104" points="52.3,0.8 52.6,0.8 52.6,50.3 52.3,50.3 		"/>
		<polyline id="XMLID_494_" class="st104" points="52.5,0.8 52.8,0.8 52.8,50.3 52.5,50.3 		"/>
		<polyline id="XMLID_495_" class="st104" points="52.7,0.8 53,0.8 53,50.3 52.7,50.3 		"/>
		<polyline id="XMLID_496_" class="st105" points="52.9,0.8 53.2,0.8 53.2,50.3 52.9,50.3 		"/>
		<polyline id="XMLID_497_" class="st105" points="53.1,0.8 53.4,0.8 53.4,50.3 53.1,50.3 		"/>
		<polyline id="XMLID_498_" class="st106" points="53.3,0.8 53.6,0.8 53.6,50.3 53.3,50.3 		"/>
		<polyline id="XMLID_499_" class="st106" points="53.5,0.8 53.8,0.8 53.8,50.3 53.5,50.3 		"/>
		<polyline id="XMLID_500_" class="st106" points="53.7,0.8 54,0.8 54,50.3 53.7,50.3 		"/>
		<polyline id="XMLID_501_" class="st107" points="53.9,0.8 54.2,0.8 54.2,50.3 53.9,50.3 		"/>
		<polyline id="XMLID_502_" class="st107" points="54.1,0.8 54.4,0.8 54.4,50.3 54.1,50.3 		"/>
		<polyline id="XMLID_503_" class="st107" points="54.3,0.8 54.6,0.8 54.6,50.3 54.3,50.3 		"/>
		<polyline id="XMLID_504_" class="st107" points="54.5,0.8 54.8,0.8 54.8,50.3 54.5,50.3 		"/>
		<polyline id="XMLID_505_" class="st107" points="54.7,0.8 55,0.8 55,50.3 54.7,50.3 		"/>
		<polyline id="XMLID_506_" class="st107" points="54.9,0.8 55.2,0.8 55.2,50.3 54.9,50.3 		"/>
		<polyline id="XMLID_507_" class="st107" points="55.1,0.8 55.4,0.8 55.4,50.3 55.1,50.3 		"/>
		<polyline id="XMLID_508_" class="st107" points="55.3,0.8 55.6,0.8 55.6,50.3 55.3,50.3 		"/>
		<polyline id="XMLID_509_" class="st108" points="55.5,0.8 55.8,0.8 55.8,50.3 55.5,50.3 		"/>
		<polyline id="XMLID_510_" class="st109" points="55.7,0.8 56,0.8 56,50.3 55.7,50.3 		"/>
		<polyline id="XMLID_511_" class="st109" points="55.9,0.8 56.2,0.8 56.2,50.3 55.9,50.3 		"/>
		<polyline id="XMLID_512_" class="st109" points="56.1,0.8 56.4,0.8 56.4,50.3 56.1,50.3 		"/>
		<polyline id="XMLID_513_" class="st109" points="56.3,0.8 56.6,0.8 56.6,50.3 56.3,50.3 		"/>
		<polyline id="XMLID_514_" class="st109" points="56.5,0.8 56.8,0.8 56.8,50.3 56.5,50.3 		"/>
		<polyline id="XMLID_515_" class="st109" points="56.7,0.8 57,0.8 57,50.3 56.7,50.3 		"/>
		<polyline id="XMLID_516_" class="st109" points="56.9,0.8 57.2,0.8 57.2,50.3 56.9,50.3 		"/>
		<polyline id="XMLID_517_" class="st109" points="57.1,0.8 57.4,0.8 57.4,50.3 57.1,50.3 		"/>
		<polyline id="XMLID_518_" class="st109" points="57.3,0.8 57.6,0.8 57.6,50.3 57.3,50.3 		"/>
		<polyline id="XMLID_519_" class="st110" points="57.5,0.8 57.8,0.8 57.8,50.3 57.5,50.3 		"/>
		<polyline id="XMLID_520_" class="st110" points="57.7,0.8 58,0.8 58,50.3 57.7,50.3 		"/>
		<polyline id="XMLID_521_" class="st111" points="57.9,0.8 58.2,0.8 58.2,50.3 57.9,50.3 		"/>
		<polyline id="XMLID_522_" class="st111" points="58.1,0.8 58.4,0.8 58.4,50.3 58.1,50.3 		"/>
		<polyline id="XMLID_523_" class="st111" points="58.3,0.8 58.6,0.8 58.6,50.3 58.3,50.3 		"/>
		<polyline id="XMLID_524_" class="st111" points="58.5,0.8 58.8,0.8 58.8,50.3 58.5,50.3 		"/>
		<polyline id="XMLID_525_" class="st111" points="58.7,0.8 59,0.8 59,50.3 58.7,50.3 		"/>
		<polyline id="XMLID_526_" class="st112" points="58.9,0.8 59.2,0.8 59.2,50.3 58.9,50.3 		"/>
		<polyline id="XMLID_527_" class="st113" points="59.1,0.8 59.4,0.8 59.4,50.3 59.1,50.3 		"/>
		<polyline id="XMLID_528_" class="st113" points="59.3,0.8 59.6,0.8 59.6,50.3 59.3,50.3 		"/>
		<polyline id="XMLID_529_" class="st113" points="59.5,0.8 59.8,0.8 59.8,50.3 59.5,50.3 		"/>
		<polyline id="XMLID_530_" class="st113" points="59.7,0.8 60,0.8 60,50.3 59.7,50.3 		"/>
		<polyline id="XMLID_531_" class="st113" points="59.9,0.8 60.2,0.8 60.2,50.3 59.9,50.3 		"/>
		<polyline id="XMLID_532_" class="st113" points="60.1,0.8 60.3,0.8 60.3,50.3 60.1,50.3 		"/>
		<polyline id="XMLID_533_" class="st113" points="60.3,0.8 60.6,0.8 60.6,50.3 60.3,50.3 		"/>
		<polyline id="XMLID_534_" class="st114" points="60.5,0.8 60.8,0.8 60.8,50.3 60.5,50.3 		"/>
		<polyline id="XMLID_535_" class="st114" points="60.7,0.8 61,0.8 61,50.3 60.7,50.3 		"/>
		<polyline id="XMLID_536_" class="st115" points="60.9,0.8 61.2,0.8 61.2,50.3 60.9,50.3 		"/>
		<polyline id="XMLID_537_" class="st115" points="61.1,0.8 61.4,0.8 61.4,50.3 61.1,50.3 		"/>
		<polyline id="XMLID_538_" class="st115" points="61.3,0.8 61.6,0.8 61.6,50.3 61.3,50.3 		"/>
		<polyline id="XMLID_539_" class="st115" points="61.5,0.8 61.8,0.8 61.8,50.3 61.5,50.3 		"/>
		<polyline id="XMLID_540_" class="st115" points="61.7,0.8 62.1,0.8 62.1,50.3 61.7,50.3 		"/>
	</g>
	<path id="XMLID_542_" class="st1" d="M11.8,49.5h49.5V2.6c0-0.6-0.5-1.1-1.1-1.1H12.9c-0.6,0-1.1,0.5-1.1,1.1V49.5z M62.8,51H10.3
		V2.6c0-1.4,1.2-2.6,2.6-2.6h47.3c1.4,0,2.6,1.2,2.6,2.6V51z"/>
	<polygon id="XMLID_544_" class="st60" points="1,25.5 0.7,25.5 0.7,66.3 36.1,46.1 	"/>
	<polygon id="XMLID_545_" class="st60" points="71.5,25.9 36.1,46.1 71.2,66.7 71.5,66.7 	"/>
	<polygon id="XMLID_546_" class="st0" points="0.7,66.3 0.7,66.7 71.2,66.7 36.1,46.1 16.1,57.6 	"/>
	<polygon id="XMLID_547_" class="st1" points="62.1,62.7 0.6,26.2 1.4,24.9 62.8,61.4 	"/>
	<polygon id="XMLID_548_" class="st1" points="16.4,58.2 15.7,56.9 70.9,25.2 71.7,26.5 	"/>
	<path id="XMLID_549_" class="st1" d="M72.1,31l-1.5,0v-3.7c0-0.8-0.5-1.6-1.2-2L65,22.4l0.8-1.3l4.4,2.9c1.2,0.7,1.9,2,1.9,3.3V31z
		"/>
	<path id="XMLID_550_" class="st1" d="M47.7,67.1l-43.8,0c-2.1,0-3.9-1.7-3.9-3.9l0.1-36c0-1.3,0.7-2.6,1.9-3.3L7,21l0.8,1.3l-5,2.9
		c-0.7,0.4-1.2,1.2-1.2,2L1.5,63.2c0,1.3,1,2.4,2.4,2.4l43.8,0V67.1z"/>
	<rect id="XMLID_551_" x="50.9" y="65.6" class="st1" width="8.6" height="1.5"/>
	<polygon id="XMLID_552_" class="st2" points="29.1,30.4 29.1,13 44.2,21.7 29.1,30.4 29.1,13 44.2,21.7 	"/>
</g>
<g id="XMLID_54_">
	<path id="XMLID_57_" class="st2" d="M434,80.9h-42.8c-1,0-1.9-0.9-1.9-1.9V49.2c0-1,0.9-1.9,1.9-1.9H434c1.1,0,1.9,0.9,1.9,1.9
		v29.7C436,80,435.1,80.9,434,80.9L434,80.9z"/>
	<path id="XMLID_58_" class="st1" d="M433.8,81.6h-42.3c-1.6,0-2.9-1.3-2.9-2.9V49.5c0-1.6,1.3-2.9,2.9-2.9h35.3V48h-35.3
		c-0.8,0-1.4,0.6-1.4,1.4v29.2c0,0.8,0.6,1.4,1.4,1.4h42.3c0.8,0,1.4-0.6,1.4-1.4V49.5c0-0.8-0.6-1.4-1.4-1.4h-2.3v-1.5h2.3
		c1.6,0,2.9,1.3,2.9,2.9v29.2C436.7,80.3,435.4,81.6,433.8,81.6L433.8,81.6z"/>
	<rect id="XMLID_59_" x="428" y="46.5" class="st1" width="2.7" height="1.5"/>
	<rect id="XMLID_128_" x="392.2" y="59.8" class="st1" width="1.5" height="8.6"/>
	<rect id="XMLID_154_" x="395.4" y="50.2" class="st0" width="34.1" height="27.8"/>
	<path id="XMLID_193_" class="st1" d="M431.6,63.6c-0.3,0-0.5,0.2-0.5,0.5s0.2,0.5,0.5,0.5s0.5-0.2,0.5-0.5S431.9,63.6,431.6,63.6
		L431.6,63.6z M431.6,66c-1.1,0-2-0.9-2-2c0-1.1,0.9-2,2-2c1.1,0,2,0.9,2,2C433.6,65.2,432.7,66,431.6,66L431.6,66z"/>
	<path id="XMLID_204_" class="st59" d="M417.2,61.9l-8.3,4.8c-0.5,0.3-1.2-0.1-1.2-0.7v-9.6c0-0.6,0.7-1,1.2-0.7l8.3,4.8
		C417.7,60.8,417.7,61.6,417.2,61.9L417.2,61.9z"/>
	<path id="XMLID_208_" class="st60" d="M408.5,56.4l0,9.6l8.3-4.8c0,0,0,0,0,0L408.5,56.4z M408.5,67.6c-0.3,0-0.5-0.1-0.8-0.2
		c-0.5-0.3-0.8-0.8-0.8-1.3v-9.6c0-0.6,0.3-1,0.8-1.3c0.5-0.3,1-0.3,1.5,0l8.3,4.8c0.5,0.3,0.8,0.8,0.8,1.3c0,0.5-0.3,1-0.8,1.3l0,0
		l-8.3,4.8C409,67.5,408.7,67.6,408.5,67.6L408.5,67.6z"/>
	<rect id="XMLID_212_" x="399.6" y="71.9" class="st1" width="26.1" height="1.5"/>
	<rect id="XMLID_213_" x="404.6" y="70.6" class="st1" width="1.5" height="4.1"/>
</g>
</svg>
