<?xml version="1.0" encoding="utf-8"?>
<!-- Generator: Adobe Illustrator 19.0.0, SVG Export Plug-In . SVG Version: 6.00 Build 0)  -->
<svg version="1.1" id="Layer_1" xmlns="http://www.w3.org/2000/svg" xmlns:xlink="http://www.w3.org/1999/xlink" x="0px" y="0px"
	 viewBox="0 0 312.4 162.1" style="enable-background:new 0 0 312.4 162.1;" xml:space="preserve">
<style type="text/css">
	.st0{fill:#CDE3ED;}
	.st1{fill:#75C6DE;}
	.st2{fill:#F59F3E;}
	.st3{fill:#FFFFFF;}
	.st4{fill:#2C2D2D;}
</style>
<g id="XMLID_1_">
	<polygon id="XMLID_2_" class="st0" points="276,157.3 292.8,160.1 310.4,54.2 293.7,51.4 	"/>
	<path id="XMLID_3_" class="st1" d="M291.1,157.7l-12.8-2.1l17-101.9l12.8,2.1L291.1,157.7z M310.8,52.2L294,49.4
		c-0.5-0.1-1,0-1.5,0.3c-0.5,0.3-0.7,0.8-0.8,1.3L274,156.9c-0.1,0.5,0,1.1,0.3,1.5c0.3,0.4,0.8,0.7,1.3,0.8l16.8,2.8
		c0.1,0,0.2,0,0.3,0c0.4,0,0.8-0.1,1.2-0.4c0.4-0.3,0.7-0.8,0.8-1.3l17.7-105.9C312.6,53.4,311.8,52.4,310.8,52.2L310.8,52.2z"/>
	<path id="XMLID_6_" class="st1" d="M308.6,65.4L300,64c-1.1-0.2-2.1,0.6-2.3,1.6c-0.2,1.1,0.6,2.1,1.6,2.3l8.5,1.4
		c0.1,0,0.2,0,0.3,0c1,0,1.8-0.7,2-1.7C310.4,66.6,309.6,65.6,308.6,65.4L308.6,65.4z"/>
	<path id="XMLID_7_" class="st1" d="M304.1,91.9l-8.5-1.4c-1.1-0.2-2.1,0.6-2.3,1.6c-0.2,1.1,0.6,2.1,1.6,2.3l8.5,1.4
		c0.1,0,0.2,0,0.3,0c1,0,1.8-0.7,2-1.7C305.9,93.1,305.2,92.1,304.1,91.9L304.1,91.9z"/>
	<path id="XMLID_8_" class="st1" d="M306.3,78.7l-8.5-1.4c-1.1-0.2-2.1,0.6-2.3,1.6c-0.2,1.1,0.6,2.1,1.6,2.3l8.5,1.4
		c0.1,0,0.2,0,0.3,0c1,0,1.8-0.7,2-1.7C308.2,79.9,307.4,78.9,306.3,78.7L306.3,78.7z"/>
	<path id="XMLID_9_" class="st1" d="M301.9,105.1l-8.5-1.4c-1.1-0.2-2.1,0.6-2.3,1.6c-0.2,1.1,0.6,2.1,1.6,2.3l8.5,1.4
		c0.1,0,0.2,0,0.3,0c1,0,1.8-0.7,2-1.6C303.7,106.4,303,105.3,301.9,105.1L301.9,105.1z"/>
	<path id="XMLID_10_" class="st1" d="M299.7,118.4l-8.5-1.4c-1.1-0.2-2.1,0.6-2.3,1.6c-0.2,1.1,0.6,2.1,1.6,2.3l8.5,1.4
		c0.1,0,0.2,0,0.3,0c0.9,0,1.8-0.7,2-1.7C301.5,119.6,300.8,118.6,299.7,118.4L299.7,118.4z"/>
	<path id="XMLID_11_" class="st1" d="M297.5,131.6l-8.5-1.4c-1.1-0.2-2.1,0.6-2.3,1.6c-0.2,1.1,0.5,2.1,1.6,2.3l8.5,1.4
		c0.1,0,0.2,0,0.3,0c0.9,0,1.8-0.7,2-1.7C299.3,132.8,298.6,131.8,297.5,131.6L297.5,131.6z"/>
	<path id="XMLID_12_" class="st1" d="M295.3,144.9l-8.5-1.4c-1.1-0.2-2.1,0.6-2.3,1.6c-0.2,1.1,0.5,2.1,1.6,2.3l8.5,1.4
		c0.1,0,0.2,0,0.3,0c1,0,1.8-0.7,2-1.7C297.1,146.1,296.4,145,295.3,144.9L295.3,144.9z"/>
	<path id="XMLID_13_" class="st1" d="M294.2,151.5l-4.8-0.8c-1.1-0.2-2.1,0.6-2.3,1.6c-0.2,1.1,0.5,2.1,1.6,2.3l4.8,0.8
		c0.1,0,0.2,0,0.3,0c1,0,1.8-0.7,2-1.7C296,152.7,295.3,151.7,294.2,151.5L294.2,151.5z"/>
	<path id="XMLID_14_" class="st1" d="M309.7,58.9l-4.8-0.8c-1.1-0.2-2.1,0.6-2.3,1.6c-0.2,1.1,0.6,2.1,1.6,2.3l4.8,0.8
		c0.1,0,0.2,0,0.3,0c1,0,1.8-0.7,2-1.7C311.5,60.1,310.7,59,309.7,58.9L309.7,58.9z"/>
	<path id="XMLID_15_" class="st1" d="M305.2,85.4l-4.8-0.8c-1.1-0.2-2.1,0.6-2.3,1.6c-0.2,1.1,0.6,2.1,1.6,2.3l4.8,0.8
		c0.1,0,0.2,0,0.3,0c1,0,1.8-0.7,2-1.7C307,86.6,306.3,85.5,305.2,85.4L305.2,85.4z"/>
	<path id="XMLID_16_" class="st1" d="M307.4,72.1l-4.8-0.8c-1.1-0.2-2.1,0.6-2.3,1.6c-0.2,1.1,0.6,2.1,1.6,2.3l4.8,0.8
		c0.1,0,0.2,0,0.3,0c1,0,1.8-0.7,2-1.7C309.3,73.3,308.5,72.3,307.4,72.1L307.4,72.1z"/>
	<path id="XMLID_17_" class="st1" d="M303,98.6l-4.8-0.8c-1.1-0.2-2.1,0.6-2.3,1.6c-0.2,1.1,0.6,2.1,1.6,2.3l4.8,0.8
		c0.1,0,0.2,0,0.3,0c1,0,1.8-0.7,2-1.7C304.8,99.8,304.1,98.8,303,98.6L303,98.6z"/>
	<path id="XMLID_18_" class="st1" d="M300.8,111.8L296,111c-1.1-0.2-2.1,0.6-2.3,1.6c-0.2,1.1,0.6,2.1,1.6,2.3l4.8,0.8
		c0.1,0,0.2,0,0.3,0c1,0,1.8-0.7,2-1.7C302.6,113,301.9,112,300.8,111.8L300.8,111.8z"/>
	<path id="XMLID_19_" class="st1" d="M298.6,125.1l-4.8-0.8c-1.1-0.2-2.1,0.6-2.3,1.6c-0.2,1.1,0.5,2.1,1.6,2.3l4.8,0.8
		c0.1,0,0.2,0,0.3,0c1,0,1.8-0.7,2-1.7C300.4,126.3,299.7,125.2,298.6,125.1L298.6,125.1z"/>
	<path id="XMLID_20_" class="st1" d="M296.4,138.3l-4.8-0.8c-1.1-0.2-2.1,0.6-2.3,1.6c-0.2,1.1,0.5,2.1,1.6,2.3l4.8,0.8
		c0.1,0,0.2,0,0.3,0c1,0,1.8-0.7,2-1.7C298.2,139.5,297.5,138.5,296.4,138.3L296.4,138.3z"/>
	<polygon id="XMLID_21_" class="st2" points="249.4,62 263.5,151.9 275,150.1 260.9,60.2 	"/>
	<polygon id="XMLID_22_" class="st3" points="249.4,62 263.5,151.9 267.2,151.3 253.1,61.4 	"/>
	<path id="XMLID_23_" class="st1" d="M265.2,149.6l-13.5-85.9l7.5-1.2l13.5,85.9L265.2,149.6z M262.9,59.9c-0.1-0.5-0.4-1-0.8-1.3
		c-0.4-0.3-1-0.5-1.5-0.4L249.1,60c-1.1,0.2-1.8,1.2-1.6,2.3l14.1,89.9c0.1,0.5,0.4,1,0.8,1.3c0.4,0.3,0.8,0.4,1.2,0.4
		c0.1,0,0.2,0,0.3,0l11.5-1.8c1.1-0.2,1.8-1.2,1.7-2.3L262.9,59.9z"/>
	<polygon id="XMLID_26_" class="st3" points="263.5,151.9 264.8,160.1 276.2,158.3 275,150.1 	"/>
	<path id="XMLID_27_" class="st1" d="M266.4,157.8l-0.7-4.2l7.5-1.2l0.7,4.3L266.4,157.8z M276.9,149.8c-0.2-1.1-1.2-1.8-2.3-1.7
		l-11.5,1.8c-1.1,0.2-1.8,1.2-1.7,2.3l1.3,8.2c0.1,0.5,0.4,1,0.8,1.3c0.3,0.3,0.7,0.4,1.2,0.4c0.1,0,0.2,0,0.3,0l11.5-1.8
		c0.5-0.1,1-0.4,1.3-0.8c0.3-0.4,0.5-1,0.4-1.5L276.9,149.8z"/>
	<polygon id="XMLID_30_" class="st3" points="249.4,62 260.9,60.2 253.6,51.1 	"/>
	<path id="XMLID_31_" class="st1" d="M252.5,59.5l1.7-4.4l2.9,3.7L252.5,59.5z M255.1,49.9c-0.5-0.5-1.2-0.8-1.9-0.7
		s-1.3,0.6-1.6,1.2l-4.2,10.9c-0.3,0.7-0.1,1.4,0.3,2c0.4,0.5,1,0.7,1.6,0.7c0.1,0,0.2,0,0.3,0l11.5-1.8c0.7-0.1,1.3-0.6,1.6-1.3
		c0.3-0.7,0.1-1.4-0.3-2L255.1,49.9z"/>
	<path id="XMLID_34_" class="st1" d="M305.1,158.1h-52.2V93.9h52.2V158.1z M307.1,89.9h-56.2c-1.1,0-2,0.9-2,2v68.2c0,1.1,0.9,2,2,2
		h56.2c1.1,0,2-0.9,2-2V91.9C309.1,90.8,308.2,89.9,307.1,89.9L307.1,89.9z"/>
	<path id="XMLID_37_" class="st1" d="M268,90.5L249.5,109c-0.8,0.8-0.8,2,0,2.8c0.4,0.4,0.9,0.6,1.4,0.6s1-0.2,1.4-0.6l18.5-18.5
		c0.8-0.8,0.8-2,0-2.8C270,89.7,268.8,89.7,268,90.5L268,90.5z"/>
	<path id="XMLID_38_" class="st1" d="M289.9,90.5l-40.4,40.4c-0.8,0.8-0.8,2,0,2.8c0.4,0.4,0.9,0.6,1.4,0.6s1-0.2,1.4-0.6l40.4-40.4
		c0.8-0.8,0.8-2,0-2.8C291.9,89.7,290.7,89.7,289.9,90.5L289.9,90.5z"/>
	<path id="XMLID_39_" class="st1" d="M305.7,96.6l-56.2,56.2c-0.8,0.8-0.8,2,0,2.8c0.4,0.4,0.9,0.6,1.4,0.6s1-0.2,1.4-0.6l56.2-56.2
		c0.8-0.8,0.8-2,0-2.8C307.8,95.8,306.5,95.8,305.7,96.6L305.7,96.6z"/>
	<path id="XMLID_40_" class="st1" d="M305.7,118.5l-40.1,40.1c-0.8,0.8-0.8,2,0,2.8c0.4,0.4,0.9,0.6,1.4,0.6c0.5,0,1-0.2,1.4-0.6
		l40.1-40.1c0.8-0.8,0.8-2,0-2.8C307.8,117.7,306.5,117.7,305.7,118.5L305.7,118.5z"/>
	<path id="XMLID_41_" class="st1" d="M305.7,140.5l-18.2,18.2c-0.8,0.8-0.8,2,0,2.8c0.4,0.4,0.9,0.6,1.4,0.6c0.5,0,1-0.2,1.4-0.6
		l18.2-18.2c0.8-0.8,0.8-2,0-2.8C307.8,139.7,306.5,139.7,305.7,140.5L305.7,140.5z"/>
	<path id="XMLID_42_" class="st1" d="M295.7,90.5c-0.8-0.8-2-0.8-2.8,0c-0.8,0.8-0.8,2,0,2.8l12.8,12.9c0.4,0.4,0.9,0.6,1.4,0.6
		c0.5,0,1-0.2,1.4-0.6c0.8-0.8,0.8-2.1,0-2.8L295.7,90.5z"/>
	<path id="XMLID_43_" class="st1" d="M273.8,90.5c-0.8-0.8-2-0.8-2.8,0c-0.8,0.8-0.8,2,0,2.8l34.8,34.8c0.4,0.4,0.9,0.6,1.4,0.6
		c0.5,0,1-0.2,1.4-0.6c0.8-0.8,0.8-2,0-2.8L273.8,90.5z"/>
	<path id="XMLID_44_" class="st1" d="M252.6,91.3c-0.8-0.8-2-0.8-2.8,0c-0.8,0.8-0.8,2,0,2.8l55.9,55.9c0.4,0.4,0.9,0.6,1.4,0.6
		c0.5,0,1-0.2,1.4-0.6c0.8-0.8,0.8-2.1,0-2.8L252.6,91.3z"/>
	<path id="XMLID_45_" class="st1" d="M252.3,112.9c-0.8-0.8-2-0.8-2.8,0c-0.8,0.8-0.8,2,0,2.8l45.7,45.8c0.4,0.4,0.9,0.6,1.4,0.6
		c0.5,0,1-0.2,1.4-0.6c0.8-0.8,0.8-2.1,0-2.8L252.3,112.9z"/>
	<path id="XMLID_46_" class="st1" d="M252.3,134.8c-0.8-0.8-2.1-0.8-2.8,0c-0.8,0.8-0.8,2,0,2.8l23.8,23.8c0.4,0.4,0.9,0.6,1.4,0.6
		c0.5,0,1-0.2,1.4-0.6c0.8-0.8,0.8-2,0-2.8L252.3,134.8z"/>
	<path id="XMLID_47_" class="st3" d="M237.3,2h-204c-2.7,0-5,2.2-5,5v132.7c0,2.7,2.2,5,5,5h204c2.7,0,5-2.2,5-5V7
		C242.3,4.3,240,2,237.3,2L237.3,2z"/>
	<path id="XMLID_48_" class="st1" d="M240.3,139.7c0,1.6-1.4,3-3,3h-204c-1.6,0-3-1.3-3-3V7c0-1.6,1.4-3,3-3h204c1.6,0,3,1.4,3,3
		V139.7z M237.3,0h-204c-3.9,0-7,3.1-7,7v132.7c0,3.9,3.1,7,7,7h204c3.9,0,7-3.1,7-7V7C244.3,3.1,241.1,0,237.3,0L237.3,0z"/>
	<rect id="XMLID_51_" x="37.3" y="10.9" class="st3" width="195.8" height="124.9"/>
	<path id="XMLID_52_" class="st1" d="M231.2,133.8H39.3V12.9h191.8V133.8z M233.2,8.9H37.3c-1.1,0-2,0.9-2,2v124.9c0,1.1,0.9,2,2,2
		h195.8c1.1,0,2-0.9,2-2V10.9C235.2,9.8,234.3,8.9,233.2,8.9L233.2,8.9z"/>
	<rect id="XMLID_55_" x="44.8" y="27.5" class="st0" width="180.9" height="91.7"/>
	<path id="XMLID_56_" class="st3" d="M2,146.2c0,7.6,6.2,13.9,13.9,13.9h238.7c7.7,0,13.9-6.3,13.9-13.9v-1.9H2V146.2z"/>
	<path id="XMLID_57_" class="st4" d="M254.6,158.1H15.9c-6.5,0-11.8-5.2-11.9-11.7h262.5C266.5,152.8,261.2,158.1,254.6,158.1
		L254.6,158.1z M268.5,142.3H2c-1.1,0-2,0.9-2,2v1.9c0,8.8,7.1,15.9,15.9,15.9h238.7c8.8,0,15.9-7.1,15.9-15.9v-1.9
		C270.5,143.2,269.6,142.3,268.5,142.3L268.5,142.3z"/>
	<path id="XMLID_60_" class="st1" d="M254.6,158.1H15.9c-6.5,0-11.8-5.2-11.9-11.7h262.5C266.5,152.8,261.2,158.1,254.6,158.1
		L254.6,158.1z M268.5,142.3H2c-1.1,0-2,0.9-2,2v1.9c0,8.8,7.1,15.9,15.9,15.9h238.7c8.8,0,15.9-7.1,15.9-15.9v-1.9
		C270.5,143.2,269.6,142.3,268.5,142.3L268.5,142.3z"/>
	<path id="XMLID_63_" class="st3" d="M135.3,96.7c-12.9,0-23.4-10.5-23.4-23.4c0-12.9,10.5-23.3,23.4-23.3s23.4,10.5,23.4,23.3
		C158.6,86.2,148.1,96.7,135.3,96.7L135.3,96.7z M135.3,46c-15.1,0-27.4,12.2-27.4,27.3c0,15.1,12.3,27.4,27.4,27.4
		c15.1,0,27.4-12.3,27.4-27.4C162.6,58.3,150.3,46,135.3,46L135.3,46z"/>
	<path id="XMLID_66_" class="st3" d="M146.7,72.3l-17.3-10c-0.9-0.5-1.7-0.1-1.7,1v19.9c0,1.1,0.8,1.6,1.7,1l17.3-9.9
		C147.6,73.8,147.6,72.9,146.7,72.3L146.7,72.3z"/>
	<path id="XMLID_67_" class="st1" d="M225.7,124.5h-51.5c-1.1,0-2,0.9-2,2s0.9,2,2,2h51.5c1.1,0,2-0.9,2-2S226.8,124.5,225.7,124.5
		L225.7,124.5z"/>
	<rect id="XMLID_68_" x="44.8" y="124.5" class="st2" width="129.4" height="4"/>
	<path id="XMLID_69_" class="st2" d="M174.2,121.9c-2.6,0-4.6,2.1-4.6,4.6c0,2.6,2.1,4.6,4.6,4.6c2.6,0,4.6-2.1,4.6-4.6
		C178.8,124,176.8,121.9,174.2,121.9L174.2,121.9z"/>
	<path id="XMLID_70_" class="st1" d="M100.5,107.9H89.4c-1.1,0-2,0.9-2,2c0,1.1,0.9,2,2,2h11.1c1.1,0,2,0.9,2,2v24.9
		c0,1.1-0.9,2-2,2H89.4c-1.1,0-2,0.9-2,2c0,1.1,0.9,2,2,2h11.1c3.3,0,6-2.7,6-6v-24.9C106.4,110.6,103.7,107.9,100.5,107.9
		L100.5,107.9z"/>
	<path id="XMLID_71_" class="st3" d="M50.7,100.6h-7.5v51.9c0,4.1,3.4,7.5,7.5,7.5h30.8c4.1,0,7.5-3.4,7.5-7.5v-51.9H50.7z"/>
	<path id="XMLID_72_" class="st1" d="M87.1,152.5c0,3.1-2.5,5.5-5.5,5.5H50.7c-3.1,0-5.5-2.5-5.5-5.5v-49.9h41.8V152.5z M89.1,98.6
		H43.2c-1.1,0-2,0.9-2,2v51.9c0,5.3,4.3,9.5,9.5,9.5h30.8c5.2,0,9.5-4.3,9.5-9.5v-51.9C91,99.5,90.2,98.6,89.1,98.6L89.1,98.6z"/>
	<path id="XMLID_75_" class="st2" d="M48.2,149.2c0,3.2,2.6,5.9,5.9,5.9h24.1c3.3,0,5.9-2.7,5.9-5.9v-24.9H48.2V149.2z"/>
	<path id="XMLID_76_" class="st1" d="M48.2,80.2c-1.1,0-2,0.9-2,2v8.1c0,1.1,0.9,2,2,2c1.1,0,2-0.9,2-2v-8.1
		C50.2,81.1,49.3,80.2,48.2,80.2L48.2,80.2z"/>
	<path id="XMLID_77_" class="st1" d="M48.2,63.3c-1.1,0-2,0.9-2,2v5.3c0,1.1,0.9,2,2,2c1.1,0,2-0.9,2-2v-5.3
		C50.2,64.1,49.3,63.3,48.2,63.3L48.2,63.3z"/>
	<path id="XMLID_78_" class="st1" d="M84.8,76.8c-1.1,0-2,0.9-2,2v5.5c0,1.1,0.9,2,2,2c1.1,0,2-0.9,2-2v-5.5
		C86.8,77.7,85.9,76.8,84.8,76.8L84.8,76.8z"/>
	<path id="XMLID_79_" class="st1" d="M84.8,63.6c-1.1,0-2,0.9-2,2v2.7c0,1.1,0.9,2,2,2c1.1,0,2-0.9,2-2v-2.7
		C86.8,64.5,85.9,63.6,84.8,63.6L84.8,63.6z"/>
	<path id="XMLID_80_" class="st1" d="M60.2,70.2c-1.1,0-2,0.9-2,2v12.1c0,1.1,0.9,2,2,2c1.1,0,2-0.9,2-2V72.2
		C62.1,71.1,61.3,70.2,60.2,70.2L60.2,70.2z"/>
	<path id="XMLID_81_" class="st1" d="M60.2,40.8c-1.1,0-2,0.9-2,2v7.3c0,1.1,0.9,2,2,2c1.1,0,2-0.9,2-2v-7.3
		C62.1,41.7,61.3,40.8,60.2,40.8L60.2,40.8z"/>
	<path id="XMLID_82_" class="st1" d="M72.1,82.3c-1.1,0-2,0.9-2,2v6c0,1.1,0.9,2,2,2s2-0.9,2-2v-6C74.1,83.2,73.2,82.3,72.1,82.3
		L72.1,82.3z"/>
	<path id="XMLID_83_" class="st1" d="M72.1,57.1c-1.1,0-2,0.9-2,2v8c0,1.1,0.9,2,2,2s2-0.9,2-2v-8C74.1,58,73.2,57.1,72.1,57.1
		L72.1,57.1z"/>
</g>
</svg>
