<?xml version="1.0" encoding="utf-8"?>
<!-- Generator: Adobe Illustrator 23.0.2, SVG Export Plug-In . SVG Version: 6.00 Build 0)  -->
<svg version="1.1" id="Layer_1" xmlns="http://www.w3.org/2000/svg" xmlns:xlink="http://www.w3.org/1999/xlink" x="0px" y="0px"
	 viewBox="0 0 630.6 118.6" style="enable-background:new 0 0 630.6 118.6;" xml:space="preserve">
<style type="text/css">
	.st0{clip-path:url(#SVGID_2_);fill:url(#SVGID_3_);}
</style>
<g>
	<g>
		<defs>
			<path id="SVGID_1_" d="M218,53.6c2.3-8.2,9.2-12.2,17.6-12.2c8.9,0,15.3,4.1,16.3,12.2H218z M116.8,41.9c24.5,0,24.5,38.1,0,38.1
				c-10.3,0-18.6-7.1-18.6-19.1C98.1,48.9,106.4,41.9,116.8,41.9z M135.4,38.2c-3.6-6.2-11.6-10.2-20-10.2
				C97,27.9,82.6,39.2,82.6,60.9c0,22.1,13.8,33.6,32.4,33.4c7-0.1,16.8-3.7,20.4-11.1l0.8,9.2h14.7V29.5h-14.9L135.4,38.2z
				 M501.6,42.4c10.5,0,17.1,9.2,17.1,18.6c0,9.6-5.7,18.5-17.1,18.5c-11.4,0-17.1-8.9-17.1-18.5C484.5,51.6,490.4,42.4,501.6,42.4z
				 M501.4,28.2c-20,0-32.5,14.8-32.5,32.8c0,18.1,12.2,32.8,32.6,32.8c20.4,0,32.8-14.7,32.8-32.8C534.3,43,521.5,28.2,501.4,28.2z
				 M562.5,92.4V44h12.7V30.4h-12.7v-4.2c0-7.7,4.1-11.2,9.4-11.2c3.2,0,6.2,1.1,9.6,3.3l5.7-11.6c-5.1-3.3-10.8-5.1-16.3-5.1
				c-12.6,0-24,7.8-24,24.6v4.2h-10.1V44H547v48.3L562.5,92.4L562.5,92.4z M459.6,17.8C452.8,4,438.4,0,424.5,0
				c-16.4,0.1-34.6,7.7-34.6,26c0,20,16.8,25,35.1,27c11.8,1.3,20.7,4.7,20.7,13.1c0,9.7-9.9,13.4-20.5,13.4
				c-10.8,0-21.2-4.3-25.1-14.2l-14,7.3c6.6,16.3,20.7,21.9,38.9,21.9c19.9,0,37.5-8.5,37.5-28.4c0-21.3-17.4-26.2-36-28.4
				c-10.7-1.3-19.9-3.4-19.9-11.2c0-6.6,6-11.9,18.5-11.9c9.7,0,18.1,4.8,21.2,9.9L459.6,17.8z M367.2,29.5L355.7,57l-6.5,17.3
				l-6-17.7l-9.6-27.2h-18.1l24.3,63.8L329,118.6H346l38.4-89.1H367.2z M279.9,13.4v16.2h-9.3V43h9.3v27.2
				c0,15.7,8.9,23.4,22.6,22.9c4.7-0.2,8.4-0.9,12.9-2.7L311,77.2c-2.3,1.1-5.1,1.9-7.5,1.9c-4.8,0-8.2-2.9-8.2-8.9V43h13.4V29.6
				h-13.2V11.8L279.9,13.4z M73.6,17.8C66.8,4,52.4,0,38.5,0C22.1,0.1,4,7.7,4,26.1c0,20,16.8,25,35.1,27
				c11.8,1.3,20.7,4.7,20.7,13.1c0,9.7-9.9,13.4-20.5,13.4C28.3,79.6,18,75.3,14,65.5L0,72.7C6.6,89,20.7,94.7,38.9,94.7
				c19.9,0,37.5-8.5,37.5-28.4c0-21.3-17.3-26.2-36-28.4c-10.7-1.3-19.9-3.4-19.9-11.2c0-6.6,6-11.9,18.5-11.9
				c9.7,0,18.1,4.8,21.2,9.9L73.6,17.8z M595.2,13.4v16.2h-9.3V43h9.3v27.2c0,15.7,8.9,23.4,22.6,22.9c4.7-0.2,8.4-0.9,12.9-2.7
				l-4.3-13.3c-2.3,1.1-5.1,1.9-7.5,1.9c-4.8,0-8.2-2.9-8.2-8.9V43H624V29.6h-13.2V11.8L595.2,13.4z M186.4,92.4V44h12.7V30.4h-12.7
				v-4.2c0-7.7,4.1-11.2,9.4-11.2c3.2,0,6.3,1.1,9.6,3.3l5.7-11.6c-5.1-3.3-10.8-5.1-16.3-5.1c-12.6,0-24,7.8-24,24.6v4.2h-10.1V44
				h10.1v48.3L186.4,92.4L186.4,92.4z M266.8,66.5c2.4-25.9-10.7-38.9-31.7-38.9c-20.4,0-33.4,13.8-33.4,32.9
				c0,20.1,12.9,33.5,34.6,33.5c9.6,0,20.4-3.3,27-10.2l-9.9-9.8c-3.6,3.7-11.1,5.9-16.8,5.9c-11,0-17.7-5.6-18.7-13.4H266.8z"/>
		</defs>
		<clipPath id="SVGID_2_">
			<use xlink:href="#SVGID_1_"  style="overflow:visible;"/>
		</clipPath>
		
			<linearGradient id="SVGID_3_" gradientUnits="userSpaceOnUse" x1="-289.9986" y1="-42.9655" x2="365.3113" y2="-46.6334" gradientTransform="matrix(1 0 0 -1 0 12.96)">
			<stop  offset="0" style="stop-color:#22BFD2"/>
			<stop  offset="1" style="stop-color:#4388BE"/>
		</linearGradient>
		<rect x="0" class="st0" width="630.6" height="118.6"/>
	</g>
</g>
</svg>
