<?xml version="1.0" encoding="utf-8"?>
<!-- Generator: Adobe Illustrator 16.0.0, SVG Export Plug-In . SVG Version: 6.00 Build 0)  -->
<!DOCTYPE svg PUBLIC "-//W3C//DTD SVG 1.1//EN" "http://www.w3.org/Graphics/SVG/1.1/DTD/svg11.dtd">
<svg version="1.1" id="Layer_1" xmlns="http://www.w3.org/2000/svg" xmlns:xlink="http://www.w3.org/1999/xlink" x="0px" y="0px"
	 width="1000px" height="224.146px" viewBox="0 0 1000 224.146" enable-background="new 0 0 1000 224.146" xml:space="preserve">
<path fill-rule="evenodd" clip-rule="evenodd" fill="#4795D1" d="M214.195,98.519c38.69,20.857,46.979,21.158,80.161,37.812
	c5.867,2.875,10.103,7.866,10,14.657c-0.05,4.99-2.483,9.628-6.55,12.508l-70.908,51.869c-3.546,2.894-6.733,4.384-10.803,4.384
	c-8.565,0-15.512-6.944-15.512-15.512c0-5.311,2.675-10,6.748-12.799c0.576-0.435,1.213-0.884,1.92-1.366
	c-0.019-0.033,20.49-13.276,19.571-41.08c-0.896-18.846-7.214-30.012-18.604-38.581c0,0-1.397-0.946-3.111-2.171
	c-20.068-14.965-39.524-44.309-56.017-55.117C163.828,61.196,181.572,80.934,214.195,98.519"/>
<path fill-rule="evenodd" clip-rule="evenodd" fill="#67ABDE" d="M207.108,108.239c-6.946-6.669-14.673-15.975-17.03-24.693
	l-0.002-0.002c-3.071-2.163-5.833-4.21-8.475-6.239C186.419,87.3,199.603,102.635,207.108,108.239"/>
<path fill-rule="evenodd" clip-rule="evenodd" fill="#A4D7F4" d="M207.108,108.239c-20.068-14.965-39.524-44.309-56.017-55.117
	c7.648,4.85,17.106,13.905,30.505,24.172l0.003,0.002C186.888,88.279,201.117,103.857,207.108,108.239"/>
<g>
	<defs>
		<path id="SVGID_1_" d="M207.108,108.239c-14.822-9.683-37.638-13.904-54.88-15.33c-14.905-1.779-35.462-4.324-35.875-23.394
			c-0.241-11.083,9.286-20.944,20.368-21.014c5.165-0.028,9.807,1.729,14.358,4.611C167.572,63.913,187.035,93.27,207.108,108.239"
			/>
	</defs>
	<clipPath id="SVGID_2_">
		<use xlink:href="#SVGID_1_"  overflow="visible"/>
	</clipPath>
	<linearGradient id="SVGID_3_" gradientUnits="userSpaceOnUse" x1="187.6162" y1="91.2637" x2="94.7977" y2="45.1972">
		<stop  offset="0" style="stop-color:#C3D82E"/>
		<stop  offset="1" style="stop-color:#F4EE72"/>
	</linearGradient>
	<rect x="116.111" y="48.474" clip-path="url(#SVGID_2_)" fill="url(#SVGID_3_)" width="90.997" height="59.766"/>
</g>
<path opacity="0.35" fill-rule="evenodd" clip-rule="evenodd" fill="#A9BD38" d="M127.857,50.73
	c2.706-1.399,5.721-2.208,8.864-2.228c5.165-0.028,9.807,1.729,14.358,4.611c13.023,8.529,27.899,28.628,43.469,44.077
	c-17.4-16.018-41.871-50.255-69.618-38.482c-5.153,2.187-7.837,5.155-6.567,1.776C120.376,56.327,123.757,52.848,127.857,50.73"/>
<path opacity="0.35" fill-rule="evenodd" clip-rule="evenodd" fill="#A9BD38" d="M127.857,50.73
	c2.706-1.399,5.721-2.208,8.864-2.228c5.165-0.028,9.807,1.729,14.358,4.611c13.023,8.529,27.899,28.628,43.469,44.077
	c-15.72-14.468-41.537-52.413-66.216-43.56c-3.935,1.414-7.787,3.527-6.044,1.252C123.907,53.211,125.792,51.797,127.857,50.73"/>
<path opacity="0.9" fill-rule="evenodd" clip-rule="evenodd" fill="#F7F5BE" d="M120.228,66.258c0.365-1.81,2.145-3.092,4.021-2.851
	c1.953,0.251,3.161,1.991,2.817,3.873c-1.657,8.219-0.974,14.826,8.103,18.354c0.258,0.098,0.408,0.375,0.346,0.632
	c-0.062,0.255-0.315,0.409-0.58,0.344C125.331,84.377,118.255,76.049,120.228,66.258"/>
<path fill-rule="evenodd" clip-rule="evenodd" fill="#22BFD2" d="M90.735,121.229c-38.691-20.858-46.981-21.164-80.163-37.812
	C4.705,80.542,0.471,75.552,0.571,68.761c0.053-4.991,2.483-9.63,6.553-12.508l70.91-51.872C81.575,1.49,84.766,0,88.834,0
	c8.565,0,15.509,6.943,15.509,15.511c0,5.313-2.672,10.003-6.746,12.796c-0.575,0.438-1.215,0.886-1.92,1.368
	c0.02,0.034-20.49,13.277-19.573,41.081c0.898,18.841,7.216,30.011,18.604,38.581c0,0,1.399,0.943,3.111,2.17
	c20.07,14.965,39.527,44.312,56.017,55.115C141.103,158.552,123.358,138.818,90.735,121.229"/>
<path fill-rule="evenodd" clip-rule="evenodd" fill="#64CBE1" d="M97.82,111.508c6.949,6.669,14.676,15.972,17.033,24.693h0.002
	c3.071,2.169,5.833,4.212,8.475,6.242C118.511,132.447,105.325,117.112,97.82,111.508"/>
<path fill-rule="evenodd" clip-rule="evenodd" fill="#9FDCF0" d="M97.82,111.508c20.07,14.965,39.527,44.312,56.017,55.115
	c-7.648-4.848-17.104-13.902-30.505-24.175C118.04,131.469,103.811,115.89,97.82,111.508"/>
<g>
	<defs>
		<path id="SVGID_4_" d="M97.82,111.508c14.824,9.683,37.64,13.9,54.883,15.333c14.905,1.776,35.462,4.317,35.875,23.392
			c0.239,11.08-9.289,20.946-20.371,21.013c-5.162,0.029-9.805-1.729-14.355-4.613C137.358,155.835,117.895,126.478,97.82,111.508"
			/>
	</defs>
	<clipPath id="SVGID_5_">
		<use xlink:href="#SVGID_4_"  overflow="visible"/>
	</clipPath>
	<linearGradient id="SVGID_6_" gradientUnits="userSpaceOnUse" x1="117.5713" y1="127.9707" x2="184.3735" y2="162.79">
		<stop  offset="0" style="stop-color:#F69138"/>
		<stop  offset="1" style="stop-color:#FAC857"/>
	</linearGradient>
	<rect x="97.82" y="111.508" clip-path="url(#SVGID_5_)" fill="url(#SVGID_6_)" width="90.997" height="59.766"/>
</g>
<path opacity="0.35" fill-rule="evenodd" clip-rule="evenodd" fill="#DA7327" d="M177.073,169.021
	c-2.705,1.395-5.724,2.206-8.866,2.225c-5.162,0.029-9.805-1.729-14.355-4.613c-13.023-8.529-27.902-28.625-43.469-44.074
	c17.4,16.018,41.869,50.255,69.616,38.482c5.153-2.188,7.839-5.153,6.569-1.781C184.552,163.423,181.171,166.899,177.073,169.021"/>
<path opacity="0.35" fill-rule="evenodd" clip-rule="evenodd" fill="#DA7327" d="M177.073,169.021
	c-2.705,1.395-5.724,2.206-8.866,2.225c-5.162,0.029-9.805-1.729-14.355-4.613c-13.023-8.529-27.902-28.625-43.469-44.074
	c15.717,14.465,41.534,52.413,66.215,43.559c3.933-1.413,7.787-3.529,6.043-1.251C181.023,166.537,179.139,167.95,177.073,169.021"
	/>
<path opacity="0.9" fill-rule="evenodd" clip-rule="evenodd" fill="#FCDE7B" d="M184.703,153.489
	c-0.366,1.811-2.147,3.09-4.024,2.847c-1.951-0.249-3.159-1.987-2.815-3.868c1.655-8.219,0.974-14.824-8.104-18.354
	c-0.255-0.1-0.406-0.377-0.344-0.635c0.06-0.258,0.313-0.406,0.581-0.344C179.6,135.37,186.673,143.699,184.703,153.489"/>
<g>
	<defs>
		<path id="SVGID_7_" d="M587.386,159.115c2.292-8.157,9.179-12.235,17.594-12.235c8.926,0,15.302,4.078,16.323,12.235H587.386z
			 M486.138,147.386c24.482,0,24.482,38.125,0,38.125c-10.328,0-18.616-7.14-18.616-19.127
			C467.521,154.397,475.81,147.386,486.138,147.386z M504.756,143.689c-3.572-6.246-11.619-10.167-20.02-10.2
			c-18.353-0.077-32.769,11.223-32.769,32.895c0,22.06,13.778,33.578,32.387,33.411c6.999-0.066,16.83-3.696,20.402-11.094
			l0.764,9.179h14.662v-62.863h-14.92L504.756,143.689z M870.959,147.897c10.454,0,17.083,9.184,17.083,18.615
			c0,9.566-5.735,18.487-17.083,18.487c-11.352,0-17.087-8.921-17.087-18.487C853.872,157.081,859.736,147.897,870.959,147.897z
			 M870.826,133.747c-20.016,0-32.509,14.785-32.509,32.766c0,18.105,12.24,32.767,32.642,32.767
			c20.402,0,32.767-14.661,32.767-32.767C903.726,148.532,890.846,133.747,870.826,133.747z M931.907,197.88v-48.326h12.741v-13.639
			h-12.741v-4.213c0-7.65,4.083-11.218,9.437-11.218c3.19,0,6.247,1.146,9.562,3.314l5.74-11.603
			c-5.101-3.314-10.841-5.101-16.323-5.101c-12.617,0-23.97,7.825-23.97,24.606v4.213h-10.086v13.639h10.086v48.326H931.907z
			 M828.952,123.288c-6.763-13.769-21.186-17.769-35.063-17.723c-16.438,0.055-34.558,7.651-34.558,26.013
			c0,20.021,16.835,24.958,35.063,27.031c11.834,1.342,20.66,4.718,20.66,13.133c0,9.69-9.948,13.392-20.531,13.392
			c-10.836,0-21.166-4.337-25.115-14.155l-14.031,7.269c6.634,16.318,20.66,21.93,38.894,21.93c19.886,0,37.489-8.548,37.489-28.435
			c0-21.295-17.354-26.186-35.961-28.435c-10.688-1.289-19.891-3.443-19.891-11.223c0-6.629,5.993-11.854,18.486-11.854
			c9.695,0,18.109,4.843,21.166,9.943L828.952,123.288z M736.589,135.017l-11.476,27.547l-6.5,17.336l-5.993-17.718l-9.566-27.165
			h-18.104l24.266,63.823l-10.879,25.307h17.087l38.378-89.13H736.589z M649.27,118.951v16.194H640v13.387h9.27v27.164
			c0,15.67,8.921,23.411,22.565,22.947c4.709-0.157,8.41-0.893,12.876-2.679l-4.332-13.257c-2.297,1.146-5.101,1.91-7.526,1.91
			c-4.843,0-8.157-2.933-8.157-8.922v-27.164h13.362v-13.387h-13.238v-17.847L649.27,118.951z M442.948,123.288
			c-6.758-13.769-21.183-17.766-35.063-17.723c-16.436,0.052-34.553,7.651-34.553,26.013c0,20.021,16.832,24.958,35.063,27.031
			c11.83,1.342,20.655,4.718,20.655,13.133c0,9.69-9.945,13.392-20.528,13.392c-10.839,0-21.166-4.337-25.118-14.155l-14.026,7.269
			c6.631,16.318,20.657,21.93,38.889,21.93c19.891,0,37.487-8.548,37.487-28.435c0-21.295-17.348-26.19-35.957-28.435
			c-10.688-1.289-19.891-3.443-19.891-11.223c0-6.629,5.994-11.854,18.489-11.854c9.69,0,18.105,4.843,21.166,9.943L442.948,123.288
			z M964.555,118.951v16.194h-9.266v13.387h9.266v27.164c0,15.67,8.926,23.411,22.57,22.947c4.708-0.157,8.414-0.893,12.875-2.679
			l-4.337-13.257c-2.292,1.146-5.101,1.91-7.521,1.91c-4.848,0-8.161-2.933-8.161-8.922v-27.164h13.362v-13.387h-13.233v-17.847
			L964.555,118.951z M555.809,197.88v-48.326h12.736v-13.639h-12.736v-4.213c0-7.65,4.078-11.218,9.432-11.218
			c3.19,0,6.252,1.146,9.566,3.314l5.735-11.603c-5.096-3.314-10.836-5.101-16.319-5.101c-12.627,0-23.974,7.825-23.974,24.606
			v4.213h-10.087v13.639h10.087v48.326H555.809z M636.218,171.995c2.421-25.879-10.712-38.889-31.749-38.889
			c-20.397,0-33.406,13.773-33.406,32.896c0,20.144,12.875,33.535,34.557,33.535c9.562,0,20.397-3.314,27.031-10.201l-9.948-9.818
			c-3.567,3.696-11.094,5.864-16.829,5.864c-10.971,0-17.724-5.606-18.745-13.387H636.218z"/>
	</defs>
	<clipPath id="SVGID_8_">
		<use xlink:href="#SVGID_7_"  overflow="visible"/>
	</clipPath>
	<linearGradient id="SVGID_9_" gradientUnits="userSpaceOnUse" x1="79.3794" y1="161.4443" x2="734.6893" y2="165.1121">
		<stop  offset="0" style="stop-color:#22BFD2"/>
		<stop  offset="1" style="stop-color:#4388BE"/>
	</linearGradient>
	<rect x="369.378" y="105.52" clip-path="url(#SVGID_8_)" fill="url(#SVGID_9_)" width="630.622" height="118.627"/>
</g>
</svg>
