<?xml version="1.0" encoding="UTF-8" standalone="no"?>
<!-- Generator: Adobe Illustrator 16.0.0, SVG Export Plug-In . SVG Version: 6.00 Build 0)  -->

<svg
   xmlns:dc="http://purl.org/dc/elements/1.1/"
   xmlns:cc="http://creativecommons.org/ns#"
   xmlns:rdf="http://www.w3.org/1999/02/22-rdf-syntax-ns#"
   xmlns:svg="http://www.w3.org/2000/svg"
   xmlns="http://www.w3.org/2000/svg"
   xmlns:xlink="http://www.w3.org/1999/xlink"
   xmlns:sodipodi="http://sodipodi.sourceforge.net/DTD/sodipodi-0.dtd"
   xmlns:inkscape="http://www.inkscape.org/namespaces/inkscape"
   version="1.1"
   id="Layer_1"
   x="0px"
   y="0px"
   width="303.78857"
   height="219.74899"
   viewBox="0 0 303.78857 219.749"
   enable-background="new 0 0 1000 224.146"
   xml:space="preserve"
   sodipodi:docname="logo_horizontal.svg"
   inkscape:version="0.92.3 (2405546, 2018-03-11)"><metadata
   id="metadata76"><rdf:RDF><cc:Work
       rdf:about=""><dc:format>image/svg+xml</dc:format><dc:type
         rdf:resource="http://purl.org/dc/dcmitype/StillImage" /><dc:title></dc:title></cc:Work></rdf:RDF></metadata><defs
   id="defs74" /><sodipodi:namedview
   pagecolor="#ffffff"
   bordercolor="#666666"
   borderopacity="1"
   objecttolerance="10"
   gridtolerance="10"
   guidetolerance="10"
   inkscape:pageopacity="0"
   inkscape:pageshadow="2"
   inkscape:window-width="1920"
   inkscape:window-height="1012"
   id="namedview72"
   showgrid="false"
   fit-margin-top="0"
   fit-margin-left="0"
   fit-margin-right="0"
   fit-margin-bottom="0"
   inkscape:zoom="0.367"
   inkscape:cx="499.43073"
   inkscape:cy="107.676"
   inkscape:window-x="0"
   inkscape:window-y="0"
   inkscape:window-maximized="1"
   inkscape:current-layer="Layer_1" />
<path
   d="m 213.62573,98.519 c 38.69,20.857 46.979,21.158 80.161,37.812 5.867,2.875 10.103,7.866 10,14.657 -0.05,4.99 -2.483,9.628 -6.55,12.508 l -70.908,51.869 c -3.546,2.894 -6.733,4.384 -10.803,4.384 -8.565,0 -15.512,-6.944 -15.512,-15.512 0,-5.311 2.675,-10 6.748,-12.799 0.576,-0.435 1.213,-0.884 1.92,-1.366 -0.019,-0.033 20.49,-13.276 19.571,-41.08 -0.896,-18.846 -7.214,-30.012 -18.604,-38.581 0,0 -1.397,-0.946 -3.111,-2.171 -20.068,-14.965 -39.524,-44.309 -56.017,-55.117 12.738,8.073 30.482,27.811 63.105,45.396"
   id="path2"
   inkscape:connector-curvature="0"
   style="clip-rule:evenodd;fill:#4795d1;fill-rule:evenodd" />
<path
   d="m 206.53873,108.239 c -6.946,-6.669 -14.673,-15.975 -17.03,-24.693 l -0.002,-0.002 c -3.071,-2.163 -5.833,-4.21 -8.475,-6.239 4.818,9.995 18.002,25.33 25.507,30.934"
   id="path4"
   inkscape:connector-curvature="0"
   style="clip-rule:evenodd;fill:#67abde;fill-rule:evenodd" />
<path
   d="m 206.53873,108.239 c -20.068,-14.965 -39.524,-44.309 -56.017,-55.117 7.648,4.85 17.106,13.905 30.505,24.172 l 0.003,0.002 c 5.289,10.983 19.518,26.561 25.509,30.943"
   id="path6"
   inkscape:connector-curvature="0"
   style="clip-rule:evenodd;fill:#a4d7f4;fill-rule:evenodd" />
<g
   id="g21"
   transform="translate(-0.56926533)">
	<defs
   id="defs9">
		<path
   id="SVGID_1_"
   d="M 207.108,108.239 C 192.286,98.556 169.47,94.335 152.228,92.909 137.323,91.13 116.766,88.585 116.353,69.515 c -0.241,-11.083 9.286,-20.944 20.368,-21.014 5.165,-0.028 9.807,1.729 14.358,4.611 16.493,10.801 35.956,40.158 56.029,55.127"
   inkscape:connector-curvature="0" />
	</defs>
	<clipPath
   id="SVGID_2_">
		<use
   xlink:href="#SVGID_1_"
   overflow="visible"
   id="use11"
   style="overflow:visible"
   x="0"
   y="0"
   width="100%"
   height="100%" />
	</clipPath>
	<linearGradient
   id="SVGID_3_"
   gradientUnits="userSpaceOnUse"
   x1="187.6162"
   y1="91.263702"
   x2="94.797699"
   y2="45.197201">
		<stop
   offset="0"
   style="stop-color:#C3D82E"
   id="stop14" />
		<stop
   offset="1"
   style="stop-color:#F4EE72"
   id="stop16" />
	</linearGradient>
	<rect
   x="116.111"
   y="48.473999"
   clip-path="url(#SVGID_2_)"
   width="90.997002"
   height="59.765999"
   id="rect19"
   style="fill:url(#SVGID_3_)" />
</g>
<path
   d="m 127.28773,50.73 c 2.706,-1.399 5.721,-2.208 8.864,-2.228 5.165,-0.028 9.807,1.729 14.358,4.611 13.023,8.529 27.899,28.628 43.469,44.077 -17.4,-16.018 -41.871,-50.255 -69.618,-38.482 -5.153,2.187 -7.837,5.155 -6.567,1.776 2.013,-4.157 5.394,-7.636 9.494,-9.754"
   id="path23"
   inkscape:connector-curvature="0"
   style="clip-rule:evenodd;opacity:0.35;fill:#a9bd38;fill-rule:evenodd" />
<path
   d="m 127.28773,50.73 c 2.706,-1.399 5.721,-2.208 8.864,-2.228 5.165,-0.028 9.807,1.729 14.358,4.611 13.023,8.529 27.899,28.628 43.469,44.077 -15.72,-14.468 -41.537,-52.413 -66.216,-43.56 -3.935,1.414 -7.787,3.527 -6.044,1.252 1.619,-1.671 3.504,-3.085 5.569,-4.152"
   id="path25"
   inkscape:connector-curvature="0"
   style="clip-rule:evenodd;opacity:0.35;fill:#a9bd38;fill-rule:evenodd" />
<path
   d="m 119.65873,66.258 c 0.365,-1.81 2.145,-3.092 4.021,-2.851 1.953,0.251 3.161,1.991 2.817,3.873 -1.657,8.219 -0.974,14.826 8.103,18.354 0.258,0.098 0.408,0.375 0.346,0.632 -0.062,0.255 -0.315,0.409 -0.58,0.344 -9.604,-2.233 -16.68,-10.561 -14.707,-20.352"
   id="path27"
   inkscape:connector-curvature="0"
   style="clip-rule:evenodd;opacity:0.9;fill:#f7f5be;fill-rule:evenodd" />
<path
   d="m 90.165735,121.229 c -38.691,-20.858 -46.981,-21.164 -80.163,-37.812 C 4.1357347,80.542 -0.09826533,75.552 0.00173467,68.761 0.05473467,63.77 2.4847347,59.131 6.5547347,56.253 L 77.464735,4.381 c 3.541,-2.891 6.732,-4.381 10.8,-4.381 8.565,0 15.508995,6.943 15.508995,15.511 0,5.313 -2.672,10.003 -6.745995,12.796 -0.575,0.438 -1.215,0.886 -1.92,1.368 0.02,0.034 -20.49,13.277 -19.573,41.081 0.898,18.841 7.216,30.011 18.604,38.581 0,0 1.399,0.943 3.111,2.17 20.069995,14.965 39.526995,44.312 56.016995,55.115 -12.733,-8.07 -30.478,-27.804 -63.100995,-45.393"
   id="path29"
   inkscape:connector-curvature="0"
   style="clip-rule:evenodd;fill:#22bfd2;fill-rule:evenodd" />
<path
   d="m 97.250735,111.508 c 6.948995,6.669 14.675995,15.972 17.032995,24.693 h 0.002 c 3.071,2.169 5.833,4.212 8.475,6.242 -4.819,-9.996 -18.005,-25.331 -25.509995,-30.935"
   id="path31"
   inkscape:connector-curvature="0"
   style="clip-rule:evenodd;fill:#64cbe1;fill-rule:evenodd" />
<path
   d="m 97.250735,111.508 c 20.069995,14.965 39.526995,44.312 56.016995,55.115 -7.648,-4.848 -17.104,-13.902 -30.505,-24.175 -5.292,-10.979 -19.521,-26.558 -25.511995,-30.94"
   id="path33"
   inkscape:connector-curvature="0"
   style="clip-rule:evenodd;fill:#9fdcf0;fill-rule:evenodd" />
<g
   id="g48"
   transform="translate(-0.56926533)">
	<defs
   id="defs36">
		<path
   id="SVGID_4_"
   d="m 97.82,111.508 c 14.824,9.683 37.64,13.9 54.883,15.333 14.905,1.776 35.462,4.317 35.875,23.392 0.239,11.08 -9.289,20.946 -20.371,21.013 -5.162,0.029 -9.805,-1.729 -14.355,-4.613 -16.494,-10.798 -35.957,-40.155 -56.032,-55.125"
   inkscape:connector-curvature="0" />
	</defs>
	<clipPath
   id="SVGID_5_">
		<use
   xlink:href="#SVGID_4_"
   overflow="visible"
   id="use38"
   style="overflow:visible"
   x="0"
   y="0"
   width="100%"
   height="100%" />
	</clipPath>
	<linearGradient
   id="SVGID_6_"
   gradientUnits="userSpaceOnUse"
   x1="117.5713"
   y1="127.9707"
   x2="184.3735"
   y2="162.78999">
		<stop
   offset="0"
   style="stop-color:#F69138"
   id="stop41" />
		<stop
   offset="1"
   style="stop-color:#FAC857"
   id="stop43" />
	</linearGradient>
	<rect
   x="97.82"
   y="111.508"
   clip-path="url(#SVGID_5_)"
   width="90.997002"
   height="59.765999"
   id="rect46"
   style="fill:url(#SVGID_6_)" />
</g>
<path
   d="m 176.50373,169.021 c -2.705,1.395 -5.724,2.206 -8.866,2.225 -5.162,0.029 -9.805,-1.729 -14.355,-4.613 -13.023,-8.529 -27.902,-28.625 -43.469,-44.074 17.4,16.018 41.869,50.255 69.616,38.482 5.153,-2.188 7.839,-5.153 6.569,-1.781 -2.016,4.163 -5.397,7.639 -9.495,9.761"
   id="path50"
   inkscape:connector-curvature="0"
   style="clip-rule:evenodd;opacity:0.35;fill:#da7327;fill-rule:evenodd" />
<path
   d="m 176.50373,169.021 c -2.705,1.395 -5.724,2.206 -8.866,2.225 -5.162,0.029 -9.805,-1.729 -14.355,-4.613 -13.023,-8.529 -27.902,-28.625 -43.469,-44.074 15.717,14.465 41.534,52.413 66.215,43.559 3.933,-1.413 7.787,-3.529 6.043,-1.251 -1.618,1.67 -3.502,3.083 -5.568,4.154"
   id="path52"
   inkscape:connector-curvature="0"
   style="clip-rule:evenodd;opacity:0.35;fill:#da7327;fill-rule:evenodd" />
<path
   d="m 184.13373,153.489 c -0.366,1.811 -2.147,3.09 -4.024,2.847 -1.951,-0.249 -3.159,-1.987 -2.815,-3.868 1.655,-8.219 0.974,-14.824 -8.104,-18.354 -0.255,-0.1 -0.406,-0.377 -0.344,-0.635 0.06,-0.258 0.313,-0.406 0.581,-0.344 9.603,2.235 16.676,10.564 14.706,20.354"
   id="path54"
   inkscape:connector-curvature="0"
   style="clip-rule:evenodd;opacity:0.9;fill:#fcde7b;fill-rule:evenodd" />

</svg>