<?xml version="1.0" encoding="utf-8"?>
<!-- Generator: Adobe Illustrator 19.0.0, SVG Export Plug-In . SVG Version: 6.00 Build 0)  -->
<svg version="1.1" id="Layer_1" xmlns="http://www.w3.org/2000/svg" xmlns:xlink="http://www.w3.org/1999/xlink" x="0px" y="0px"
	 viewBox="0 0 71.6 53.6" style="enable-background:new 0 0 71.6 53.6;" xml:space="preserve">
<style type="text/css">
	.st0{opacity:0.5;}
	.st1{fill:url(#XMLID_60_);}
	.st2{fill:#76C7DF;}
	.st3{fill:#FFFFFF;}
	.st4{fill:#D1E8F6;}
</style>
<g id="XMLID_294_">
	<g id="XMLID_374_" class="st0">
		<linearGradient id="XMLID_60_" gradientUnits="userSpaceOnUse" x1="0.6233" y1="11.8329" x2="56.4387" y2="11.8329">
			<stop  offset="0" style="stop-color:#8CD3E7"/>
			<stop  offset="1" style="stop-color:#B5E3F2"/>
		</linearGradient>
		<path id="XMLID_1391_" class="st1" d="M56.4,23H0.6V2.3c0-0.9,0.7-1.6,1.6-1.6h52.5c0.9,0,1.6,0.7,1.6,1.6V23z"/>
	</g>
	<g id="XMLID_425_">
		<rect id="XMLID_1040_" x="22.1" y="22.4" class="st2" width="23.5" height="1.2"/>
	</g>
	<g id="XMLID_372_">
		<path id="XMLID_1038_" class="st2" d="M57.1,13.1h-1.2V3.4c0-1.2-1-2.2-2.2-2.2H15.4V0h38.2c1.9,0,3.4,1.5,3.4,3.4V13.1z"/>
	</g>
	<g id="XMLID_371_">
		<rect id="XMLID_1037_" x="8.7" class="st2" width="4.5" height="1.2"/>
	</g>
	<g id="XMLID_363_">
		<rect id="XMLID_1035_" x="22.5" y="29.9" class="st2" width="5.2" height="1.2"/>
	</g>
	<g id="XMLID_362_">
		<rect id="XMLID_1034_" x="22.5" y="34.2" class="st2" width="11.4" height="1.2"/>
	</g>
	<g id="XMLID_361_">
		<rect id="XMLID_1033_" x="22.5" y="38.8" class="st2" width="8.3" height="1.2"/>
	</g>
	<g id="XMLID_354_">
		<rect id="XMLID_1032_" x="26" y="43.5" class="st2" width="3.5" height="1.2"/>
	</g>
	<g id="XMLID_34_">
		<path id="XMLID_35_" class="st3" d="M54.2,24.1v24c0,1.3-1.1,2.4-2.6,2.4H37.4c0.2,0.8,0.6,1.6,0.7,2.4h15.5
			c1.5,0,2.8-1.2,2.8-2.8V23H0.5v1.3"/>
	</g>
	<g id="XMLID_37_">
		<path id="XMLID_41_" class="st2" d="M55.7,28.1v22.1c0,1.2-1,2.1-2.1,2.1h-22c0,0.4,0.1,0.8,0.1,1.2h22c1.9,0,3.4-1.5,3.4-3.4
			V28.1H55.7z"/>
	</g>
	<g id="XMLID_33_">
		<path id="XMLID_1036_" class="st2" d="M1.2,40.6H0V3.4C0,1.5,1.5,0,3.4,0h3.6v1.2H3.4c-1.2,0-2.2,1-2.2,2.2V40.6z"/>
	</g>
	<g id="XMLID_295_">
		<g id="XMLID_316_">
			<polygon id="XMLID_1416_" class="st3" points="37.4,43.1 33.3,43.4 33.6,39.3 65.5,7.3 69.4,11.1 			"/>
		</g>
		<g id="XMLID_426_">
			<polygon id="XMLID_32_" class="st4" points="67.3,9 65.5,7.3 33.6,39.3 33.3,43 			"/>
		</g>
		<g id="XMLID_314_">
			<path id="XMLID_1029_" class="st2" d="M32.6,44l0.3-5l0.2-0.2L65.5,6.4l4.7,4.7L37.7,43.7L32.6,44z M34.2,39.6l-0.2,3.2l3.2-0.2
				l31.4-31.4l-2.9-2.9L34.2,39.6z"/>
		</g>
		<g id="XMLID_312_">
			
				<rect id="XMLID_1028_" x="68.9" y="4.8" transform="matrix(0.7071 0.7071 -0.7071 0.7071 25.3929 -47.1147)" class="st2" width="1.2" height="4.5"/>
		</g>
		<g id="XMLID_311_">
			
				<rect id="XMLID_1027_" x="31.7" y="42.1" transform="matrix(0.7071 0.7071 -0.7071 0.7071 40.8235 -9.8535)" class="st2" width="1.2" height="4.5"/>
		</g>
		<g id="XMLID_298_">
			
				<rect id="XMLID_1026_" x="46.1" y="27.1" transform="matrix(0.7071 0.7072 -0.7072 0.7071 33.9292 -26.507)" class="st2" width="5.6" height="1.2"/>
		</g>
		<g id="XMLID_297_">
			
				<rect id="XMLID_1025_" x="35.5" y="37.7" transform="matrix(0.7071 0.7071 -0.7071 0.7071 38.32 -15.8979)" class="st2" width="5.6" height="1.2"/>
		</g>
		<g id="XMLID_296_">
			<polygon id="XMLID_1024_" class="st2" points="59.7,27 58.8,26.1 68.9,16.1 66.6,13.8 67.5,13 70.6,16.1 			"/>
		</g>
	</g>
</g>
</svg>
