<?xml version="1.0" encoding="utf-8"?>
<!-- Generator: Adobe Illustrator 19.0.0, SVG Export Plug-In . SVG Version: 6.00 Build 0)  -->
<svg version="1.1" id="Layer_1" xmlns="http://www.w3.org/2000/svg" xmlns:xlink="http://www.w3.org/1999/xlink" x="0px" y="0px"
	 viewBox="0 0 58.3 45.7" style="enable-background:new 0 0 58.3 45.7;" xml:space="preserve">
<style type="text/css">
	.st0{fill:#F5A040;}
	.st1{fill:#76C7DF;}
	.st2{fill:#ECF6F9;}
	.st3{fill:#E1EEF5;}
	.st4{fill:#CEE5EF;}
	.st5{fill:#FFFFFF;}
	.st6{fill:url(#XMLID_82_);}
</style>
<g id="XMLID_2_">
	<g id="XMLID_390_">
		<rect id="XMLID_1165_" x="6" y="5.6" class="st0" width="11.7" height="4.1"/>
	</g>
	<g id="XMLID_364_">
		<path id="XMLID_365_" class="st1" d="M18.4,10.4H5.2V4.8h13.2V10.4z M6.7,8.9h10.2V6.3H6.7V8.9z"/>
	</g>
	<g id="XMLID_359_">
		<path id="XMLID_360_" class="st2" d="M55.2,9.1h-6l-1.9-4.9c-0.5-2-2.3-3.5-4.4-3.5H26.7c-2.1,0-3.9,1.4-4.4,3.5l-1.9,4.9H3.1
			c-1.3,0-2.3,1-2.3,2.3v31.2c0,1.3,1,2.3,2.3,2.3h52.1c1.3,0,2.3-1,2.3-2.3V11.4C57.5,10.1,56.5,9.1,55.2,9.1z"/>
	</g>
	<g id="XMLID_349_">
		<path id="XMLID_350_" class="st3" d="M14.9,9.1H3.1c-1.3,0-2.3,1-2.3,2.3v31.2c0,1.3,1,2.3,2.3,2.3h11.8V9.1z"/>
	</g>
	<g id="XMLID_322_">
		<polygon id="XMLID_344_" class="st4" points="52.5,25.5 52.1,28 51.8,30.5 50.7,32.7 49.7,35 48,36.9 46.4,38.8 44.2,40.1 
			42.2,41.6 39.7,42.2 37.4,43 34.8,42.9 32.3,43 29.9,42.2 27.5,41.6 25.5,40.1 23.3,38.8 21.7,36.9 20,35 19,32.7 17.9,30.5 
			17.6,28 17.2,25.5 17.6,23 17.9,20.5 19,18.3 20,15.9 21.7,14.1 23.3,12.1 25.5,10.9 27.5,9.4 30,8.8 32.3,8 34.8,8.1 37.4,8 
			39.7,8.8 42.2,9.4 44.2,10.9 46.4,12.1 48,14.1 49.7,15.9 50.7,18.3 51.8,20.5 52.1,23 		"/>
	</g>
	<g id="XMLID_318_">
		<circle id="XMLID_320_" class="st5" cx="34.8" cy="25.5" r="17.5"/>
	</g>
	<g id="XMLID_79_">
		<path id="XMLID_83_" class="st1" d="M37.5,43.7l-2.7-0.1l-2.6,0.1l-2.5-0.9l-2.5-0.6L25,40.7l-2.2-1.3l-1.6-2.1l-1.8-1.9l-1-2.5
			l-1.2-2.3L16.9,28l-0.5-2.5l0.5-2.6l0.2-2.6l1.2-2.4l1-2.4l1.8-1.9l1.6-2l2.3-1.3l2.1-1.5l2.6-0.6l2.4-0.9l2.7,0.1l2.6-0.1L40,8.1
			l2.5,0.6l2.2,1.6l2.2,1.3l1.6,2.1l1.8,1.9l1,2.5l1.2,2.3l0.2,2.7l0.5,2.5l-0.5,2.6l-0.2,2.6L51.3,33l-1,2.4l-1.8,1.9l-1.6,2
			l-2.3,1.3l-2.1,1.5l-2.6,0.6L37.5,43.7z M34.8,42.1l2.4,0.1l2.2-0.8l2.4-0.6l1.9-1.4l2.1-1.2l1.5-1.9l1.7-1.8l0.9-2.2l1.1-2.2
			l0.2-2.4l0.5-2.4l-0.5-2.3l-0.2-2.4L50,18.6l-0.9-2.3l-1.6-1.7l-1.5-1.9l-2.1-1.2l-2-1.4l-2.3-0.6l-2.3-0.8l-2.4,0.1l-2.4-0.1
			l-2.2,0.8l-2.4,0.6l-1.9,1.4l-2.1,1.2l-1.5,1.9l-1.7,1.8l-0.9,2.2l-1.1,2.2l-0.2,2.4l-0.5,2.4l0.5,2.3l0.2,2.4l1.1,2.1l0.9,2.3
			l1.6,1.7l1.5,1.9l2.1,1.2l2,1.4l2.3,0.6l2.3,0.8L34.8,42.1z"/>
	</g>
	<g id="XMLID_44_">
		<path id="XMLID_45_" class="st1" d="M44.4,35l-1.1-1.1c2.3-2.3,3.5-5.3,3.5-8.5s-1.2-6.2-3.5-8.5c-2.3-2.3-5.3-3.5-8.5-3.5
			s-6.2,1.2-8.5,3.5l-1.1-1.1c2.5-2.5,5.9-3.9,9.5-3.9c3.6,0,7,1.4,9.5,3.9s3.9,5.9,3.9,9.5C48.3,29.1,46.9,32.5,44.4,35z"/>
	</g>
	<g id="XMLID_39_">
		<linearGradient id="XMLID_82_" gradientUnits="userSpaceOnUse" x1="23.6488" y1="25.476" x2="46.0476" y2="25.476">
			<stop  offset="0" style="stop-color:#D2DE41"/>
			<stop  offset="1" style="stop-color:#E5E761"/>
		</linearGradient>
		<circle id="XMLID_40_" class="st6" cx="34.8" cy="25.5" r="11.2"/>
	</g>
	<g id="XMLID_41_">
		<circle id="XMLID_42_" class="st5" cx="34.8" cy="25.5" r="6.2"/>
	</g>
	<g id="XMLID_43_">
		<path id="XMLID_36_" class="st1" d="M34.8,37.7c-6.8,0-12.2-5.5-12.2-12.2s5.5-12.2,12.2-12.2s12.2,5.5,12.2,12.2
			S41.6,37.7,34.8,37.7z M34.8,15.3c-5.6,0-10.1,4.6-10.1,10.1s4.6,10.1,10.1,10.1c5.6,0,10.1-4.6,10.1-10.1S40.4,15.3,34.8,15.3z"
			/>
	</g>
	<g id="XMLID_55_">
		<path id="XMLID_58_" class="st4" d="M7,37.5L0.8,39V15.6L7,17c1.1,0.3,1.9,1.3,1.9,2.4v15.6C8.9,36.3,8.1,37.3,7,37.5z"/>
	</g>
	<g id="XMLID_63_">
		<path id="XMLID_34_" class="st1" d="M0.9,39.7l-0.3-1.5l6.2-1.5c0.8-0.2,1.4-0.9,1.4-1.7V19.5c0-0.8-0.6-1.5-1.4-1.7l-6.2-1.5
			l0.3-1.5l6.2,1.5c1.5,0.3,2.5,1.6,2.5,3.2v15.6c0,1.5-1,2.8-2.5,3.2L0.9,39.7z"/>
	</g>
	<g id="XMLID_64_">
		<path id="XMLID_29_" class="st1" d="M55.2,45.7H3.1c-1.7,0-3.1-1.4-3.1-3.1V11.4c0-1.7,1.4-3.1,3.1-3.1H20L21.6,4
			c0.6-2.4,2.6-4,5.1-4H43c2.4,0,4.5,1.6,5.1,4l1.7,4.3h5.5c1.7,0,3.1,1.4,3.1,3.1v31.2C58.3,44.3,56.9,45.7,55.2,45.7z M3.1,9.8
			c-0.9,0-1.6,0.7-1.6,1.6v31.2c0,0.9,0.7,1.6,1.6,1.6h52.1c0.9,0,1.6-0.7,1.6-1.6V11.4c0-0.9-0.7-1.6-1.6-1.6h-6.5l-2.1-5.4
			c-0.4-1.7-1.9-2.9-3.6-2.9H26.7c-1.7,0-3.2,1.2-3.6,2.9l0,0.1L21,9.8H3.1z"/>
	</g>
	<g id="XMLID_22_">
		<circle id="XMLID_23_" class="st5" cx="15.7" cy="14.6" r="1.4"/>
	</g>
	<g id="XMLID_7_">
		<path id="XMLID_10_" class="st1" d="M15.7,16.7c-1.2,0-2.1-1-2.1-2.1s1-2.1,2.1-2.1s2.1,1,2.1,2.1S16.8,16.7,15.7,16.7z M15.7,14
			c-0.3,0-0.6,0.3-0.6,0.6c0,0.3,0.3,0.6,0.6,0.6c0.3,0,0.6-0.3,0.6-0.6C16.3,14.3,16,14,15.7,14z"/>
	</g>
	<g id="XMLID_4_">
		<rect id="XMLID_6_" x="29.3" y="4" class="st1" width="11.1" height="1.5"/>
	</g>
</g>
</svg>
