<?xml version="1.0" encoding="utf-8"?>
<!-- Generator: Adobe Illustrator 19.0.0, SVG Export Plug-In . SVG Version: 6.00 Build 0)  -->
<svg version="1.1" id="Layer_1" xmlns="http://www.w3.org/2000/svg" xmlns:xlink="http://www.w3.org/1999/xlink" x="0px" y="0px"
	 viewBox="0 0 33.9 26.2" style="enable-background:new 0 0 33.9 26.2;" xml:space="preserve">
<style type="text/css">
	.st0{fill:#FFFFFF;}
	.st1{fill:#76C7DF;}
	.st2{fill:url(#XMLID_54_);}
	.st3{fill:#F5A040;}
</style>
<g id="XMLID_336_">
	<g id="XMLID_625_">
		<path id="XMLID_609_" class="st0" d="M32.9,12.3c0,0-8.8,9.8-15.9,9.8C9.8,22.1,1,12.3,1,12.3S9.8,2.5,17,2.5
			C24.1,2.5,32.9,12.3,32.9,12.3z"/>
	</g>
	<g id="XMLID_406_">
		<path id="XMLID_611_" class="st1" d="M17,22.9c-7.4,0-16.1-9.6-16.5-10L0,12.3l0.5-0.5c0.4-0.4,9.1-10,16.5-10s16.1,9.6,16.5,10
			l0.5,0.5l-0.5,0.5C33.1,13.2,24.3,22.9,17,22.9z M2,12.3c1.9,2,9.1,9,14.9,9c5.8,0,13-7.1,14.9-9c-1.9-2-9.1-9-14.9-9
			C11.2,3.3,3.9,10.3,2,12.3z"/>
	</g>
	<g id="XMLID_615_">
		<g id="XMLID_624_">
			<linearGradient id="XMLID_54_" gradientUnits="userSpaceOnUse" x1="16.9758" y1="12.3147" x2="24.025" y2="12.3147">
				<stop  offset="0" style="stop-color:#D2DE41"/>
				<stop  offset="1" style="stop-color:#E5E761"/>
			</linearGradient>
			<path id="XMLID_622_" class="st2" d="M24,12.3c0-3.9-3.1-7-7-7.1l0,14.1C20.9,19.4,24,16.2,24,12.3z"/>
		</g>
		<g id="XMLID_620_">
			<path id="XMLID_627_" class="st3" d="M17,5.2c-3.9,0-7.1,3.2-7.1,7.1c0,3.9,3.2,7.1,7.1,7.1c0,0,0,0,0,0L17,5.2
				C17,5.2,17,5.2,17,5.2z"/>
		</g>
	</g>
	<g id="XMLID_906_">
		<circle id="XMLID_919_" class="st0" cx="17" cy="12.3" r="3.5"/>
	</g>
	<g id="XMLID_920_">
		<path id="XMLID_921_" class="st1" d="M17,20.5c-4.5,0-8.2-3.7-8.2-8.2c0-4.5,3.7-8.2,8.2-8.2c4.5,0,8.2,3.7,8.2,8.2
			C25.1,16.8,21.5,20.5,17,20.5z M17,5.7c-3.7,0-6.7,3-6.7,6.7c0,3.7,3,6.7,6.7,6.7c3.7,0,6.7-3,6.7-6.7C23.6,8.6,20.6,5.7,17,5.7z"
			/>
	</g>
	<g id="XMLID_924_">
		<circle id="XMLID_925_" class="st0" cx="17" cy="12.3" r="2.2"/>
	</g>
	<g id="XMLID_926_">
		<polygon id="XMLID_927_" class="st1" points="4.2,3.6 2.7,3.6 2.7,0 6,0 6,1.5 4.2,1.5 		"/>
	</g>
	<g id="XMLID_928_">
		<polygon id="XMLID_929_" class="st1" points="31.3,26.2 28,26.2 28,24.7 29.8,24.7 29.8,22.6 31.3,22.6 		"/>
	</g>
</g>
</svg>
