<?xml version="1.0" encoding="utf-8"?>
<!-- Generator: Adobe Illustrator 19.0.0, SVG Export Plug-In . SVG Version: 6.00 Build 0)  -->
<svg version="1.1" id="Layer_1" xmlns="http://www.w3.org/2000/svg" xmlns:xlink="http://www.w3.org/1999/xlink" x="0px" y="0px"
	 viewBox="0 0 31.1 42.7" style="enable-background:new 0 0 31.1 42.7;" xml:space="preserve">
<style type="text/css">
	.st0{fill:#FFFFFF;}
	.st1{fill:#76C7DF;}
	.st2{fill:url(#XMLID_55_);}
	.st3{fill:url(#XMLID_56_);}
	.st4{fill:url(#XMLID_57_);}
</style>
<g id="XMLID_46_">
	<g id="XMLID_139_">
		<g id="XMLID_284_">
			<path id="XMLID_303_" class="st0" d="M0.8,40V2.7c0-1.1,0.9-1.9,1.9-1.9h25.8c1.1,0,1.9,0.9,1.9,1.9V40c0,1.1-0.9,1.9-1.9,1.9
				H2.7C1.6,41.9,0.8,41,0.8,40z"/>
		</g>
		<g id="XMLID_283_">
			<path id="XMLID_707_" class="st1" d="M28.5,42.7H2.7C1.2,42.7,0,41.5,0,40V2.7C0,1.2,1.2,0,2.7,0h25.8c1.5,0,2.7,1.2,2.7,2.7v2.2
				h-1.5V2.7c0-0.6-0.5-1.2-1.2-1.2H2.7C2,1.5,1.5,2,1.5,2.7V40c0,0.6,0.5,1.2,1.2,1.2h25.8c0.6,0,1.2-0.5,1.2-1.2V14.9h1.5V40
				C31.1,41.5,29.9,42.7,28.5,42.7z"/>
		</g>
		<g id="XMLID_281_">
			<rect id="XMLID_706_" x="29.6" y="8.9" class="st1" width="1.5" height="3.3"/>
		</g>
		<g id="XMLID_251_">
			<rect id="XMLID_705_" x="11.8" y="3.2" class="st1" width="7.6" height="1.5"/>
		</g>
		<g id="XMLID_143_">
			<path id="XMLID_701_" class="st1" d="M15.6,39.9c-1,0-1.8-0.8-1.8-1.8c0-1,0.8-1.8,1.8-1.8s1.8,0.8,1.8,1.8
				C17.4,39.1,16.6,39.9,15.6,39.9z M15.6,37.8c-0.2,0-0.3,0.1-0.3,0.3c0,0.2,0.1,0.3,0.3,0.3c0.2,0,0.3-0.1,0.3-0.3
				C15.9,37.9,15.7,37.8,15.6,37.8z"/>
		</g>
	</g>
	<g id="XMLID_250_">
		<g id="XMLID_626_">
			<linearGradient id="XMLID_55_" gradientUnits="userSpaceOnUse" x1="4.4348" y1="26.5722" x2="9.2137" y2="26.5722">
				<stop  offset="0" style="stop-color:#D2DE41"/>
				<stop  offset="1" style="stop-color:#E5E761"/>
			</linearGradient>
			<polygon id="XMLID_134_" class="st2" points="4.4,23.3 4.4,33.9 9.2,33.8 9.2,19.3 			"/>
		</g>
		<g id="XMLID_625_">
			<linearGradient id="XMLID_56_" gradientUnits="userSpaceOnUse" x1="13.3731" y1="25.4386" x2="18.8576" y2="25.4386">
				<stop  offset="0" style="stop-color:#D2DE41"/>
				<stop  offset="1" style="stop-color:#E5E761"/>
			</linearGradient>
			<polygon id="XMLID_140_" class="st3" points="13.4,21.1 13.4,21.1 13.4,33.8 18.9,33.8 18.9,17 			"/>
		</g>
		<g id="XMLID_622_">
			<linearGradient id="XMLID_57_" gradientUnits="userSpaceOnUse" x1="22.261" y1="24.533" x2="26.5649" y2="24.533">
				<stop  offset="0" style="stop-color:#D2DE41"/>
				<stop  offset="1" style="stop-color:#E5E761"/>
			</linearGradient>
			<polygon id="XMLID_142_" class="st4" points="26.6,15.3 22.3,19 22.3,33.8 26.6,33.8 			"/>
		</g>
		<g id="XMLID_619_">
			<polygon id="XMLID_692_" class="st1" points="5.2,23.6 4.4,23.6 4.4,22.3 4.7,22.3 9.1,18.5 13.3,20.3 18.8,16.2 22.2,18.1 
				26,14.8 26.6,14.8 26.6,15.9 26.7,16 26.6,16.1 26.6,16.2 26.5,16.2 22.3,19.8 18.9,17.9 13.5,21.9 9.3,20.1 			"/>
		</g>
	</g>
</g>
</svg>
