<?xml version="1.0" encoding="utf-8"?>
<!-- Generator: Adobe Illustrator 19.0.0, SVG Export Plug-In . SVG Version: 6.00 Build 0)  -->
<svg version="1.1" id="Layer_1" xmlns="http://www.w3.org/2000/svg" xmlns:xlink="http://www.w3.org/1999/xlink" x="0px" y="0px"
	 viewBox="0 0 49.6 46.2" style="enable-background:new 0 0 49.6 46.2;" xml:space="preserve">
<style type="text/css">
	.st0{fill:#CEE5EF;}
	.st1{fill:#D1E8F6;}
	.st2{fill:url(#XMLID_54_);}
	.st3{fill:#76C7DF;}
	.st4{fill:#EBF5FB;}
	.st5{fill:#F5A040;}
</style>
<g id="XMLID_80_">
	<g id="XMLID_282_">
		<g id="XMLID_317_">
			<polygon id="XMLID_87_" class="st0" points="48.9,17.8 48.9,17.6 0.9,17.6 24.8,31.6 			"/>
		</g>
	</g>
	<g id="XMLID_281_">
		<g id="XMLID_314_">
			<polygon id="XMLID_492_" class="st1" points="48.8,17.3 48.8,17.6 0.8,17.6 24.7,3.6 			"/>
		</g>
	</g>
	<g id="XMLID_279_">
		<g id="XMLID_312_">
			<linearGradient id="XMLID_54_" gradientUnits="userSpaceOnUse" x1="7.7433" y1="17.5863" x2="42.4449" y2="17.5863">
				<stop  offset="0" style="stop-color:#CBE3F0"/>
				<stop  offset="1" style="stop-color:#EEF9FE"/>
			</linearGradient>
			<path id="XMLID_408_" class="st2" d="M42.4,34.4H7.7V2.6c0-1,0.8-1.9,1.9-1.9h31c1,0,1.9,0.8,1.9,1.9V34.4z"/>
		</g>
	</g>
	<g id="XMLID_229_">
		<g id="XMLID_278_">
			<rect id="XMLID_517_" x="11.6" class="st3" width="3.3" height="1.5"/>
		</g>
		<g id="XMLID_263_">
			<path id="XMLID_516_" class="st3" d="M43.2,35.2H7V2.2C7,1,8,0,9.2,0h1.4v1.5H9.2c-0.4,0-0.7,0.3-0.7,0.7v31.4h33.2V2.2
				c0-0.4-0.3-0.7-0.7-0.7h-25V0h25c1.2,0,2.2,1,2.2,2.2V35.2z"/>
		</g>
	</g>
	<g id="XMLID_277_">
		<g id="XMLID_306_">
			<polygon id="XMLID_88_" class="st4" points="0.9,17.6 0.8,17.6 0.8,45.3 24.8,31.6 			"/>
		</g>
	</g>
	<g id="XMLID_276_">
		<g id="XMLID_304_">
			<polygon id="XMLID_89_" class="st4" points="48.9,17.8 24.8,31.6 48.7,45.6 48.9,45.6 			"/>
		</g>
	</g>
	<g id="XMLID_275_">
		<g id="XMLID_302_">
			<polygon id="XMLID_90_" class="st1" points="0.8,45.3 0.8,45.6 48.7,45.6 24.8,31.6 11.2,39.4 			"/>
		</g>
	</g>
	<g id="XMLID_230_">
		<path id="XMLID_515_" class="st3" d="M48,46.3H1.6c-0.9,0-1.6-0.7-1.6-1.6V18.4c0-0.7,0.4-1.4,1-1.8l4.8-2.8L6.6,15l-4.8,2.8
			c-0.2,0.1-0.3,0.3-0.3,0.5v26.4c0,0,0,0.1,0.1,0.1H48c0,0,0.1,0,0.1-0.1V18.4c0-0.2-0.1-0.4-0.3-0.5l-4.6-2.7l0.8-1.3l4.6,2.7
			c0.6,0.4,1,1.1,1,1.8v26.4C49.6,45.6,48.9,46.3,48,46.3z"/>
	</g>
	<g id="XMLID_286_">
		<g id="XMLID_287_">
			<path id="XMLID_91_" class="st5" d="M20.1,20.9V9.1L30.3,15L20.1,20.9V9.1L30.3,15L20.1,20.9z"/>
		</g>
	</g>
	<g id="XMLID_271_">
		
			<rect id="XMLID_514_" x="-2.9" y="30.8" transform="matrix(0.8626 0.5058 -0.5058 0.8626 19.3872 -8.2084)" class="st3" width="55.4" height="1.5"/>
	</g>
	<g id="XMLID_284_">
		
			<rect id="XMLID_513_" x="24.1" y="3.9" transform="matrix(0.5053 0.8629 -0.8629 0.5053 39.5309 -5.7796)" class="st3" width="1.5" height="55.4"/>
	</g>
</g>
</svg>
