<?xml version="1.0" encoding="utf-8"?>
<!-- Generator: Adobe Illustrator 19.0.0, SVG Export Plug-In . SVG Version: 6.00 Build 0)  -->
<svg version="1.1" id="Layer_1" xmlns="http://www.w3.org/2000/svg" xmlns:xlink="http://www.w3.org/1999/xlink" x="0px" y="0px"
	 viewBox="0 0 46 59.5" style="enable-background:new 0 0 46 59.5;" xml:space="preserve">
<style type="text/css">
	.st0{fill:#FFFFFF;}
	.st1{fill:#76C7DF;}
	.st2{fill:#F5A040;}
	.st3{fill:url(#XMLID_55_);}
</style>
<g id="XMLID_356_">
	<g id="XMLID_379_">
		<g id="XMLID_386_">
			<path id="XMLID_400_" class="st0" d="M43.2,58.7H2.7c-1.1,0-2-0.9-2-2v-54c0-1.1,0.9-2,2-2h40.5c1.1,0,2,0.9,2,2v54
				C45.2,57.8,44.3,58.7,43.2,58.7z"/>
		</g>
		<g id="XMLID_384_">
			<path id="XMLID_623_" class="st1" d="M46,56.3h-1.5V3.9c0-1.3-1.1-2.4-2.4-2.4H38V0h4.1C44.2,0,46,1.7,46,3.9V56.3z"/>
		</g>
		<g id="XMLID_382_">
			<rect id="XMLID_621_" x="17.8" y="4.2" class="st1" width="10.4" height="1.5"/>
		</g>
		<g id="XMLID_381_">
			<path id="XMLID_617_" class="st2" d="M23,55.8c-1.3,0-2.4-1.1-2.4-2.4c0-1.3,1.1-2.4,2.4-2.4c1.3,0,2.4,1.1,2.4,2.4
				C25.4,54.7,24.3,55.8,23,55.8z M23,52.4c-0.5,0-0.9,0.4-0.9,0.9s0.4,0.9,0.9,0.9c0.5,0,0.9-0.4,0.9-0.9S23.5,52.4,23,52.4z"/>
		</g>
		<g id="XMLID_380_">
			<linearGradient id="XMLID_55_" gradientUnits="userSpaceOnUse" x1="4.2513" y1="28.5259" x2="41.718" y2="28.5259">
				<stop  offset="0" style="stop-color:#CBE3F0"/>
				<stop  offset="1" style="stop-color:#EEF9FE"/>
			</linearGradient>
			<rect id="XMLID_321_" x="4.3" y="8.8" class="st3" width="37.5" height="39.5"/>
		</g>
		<path id="XMLID_5_" class="st1" d="M1.5,3.9c0-1.3,1.1-2.4,2.4-2.4h25.2V0H3.9C1.7,0,0,1.7,0,3.9v16.2v35.4v0.8h0.1
			c0.4,1.8,1.9,3.1,3.8,3.1h25.2V58H3.9c-1.3,0-2.4-1.1-2.4-2.4V20.1V3.9z"/>
	</g>
</g>
</svg>
