<?xml version="1.0" encoding="utf-8"?>
<!-- Generator: Adobe Illustrator 19.0.0, SVG Export Plug-In . SVG Version: 6.00 Build 0)  -->
<svg version="1.1" id="Layer_1" xmlns="http://www.w3.org/2000/svg" xmlns:xlink="http://www.w3.org/1999/xlink" x="0px" y="0px"
	 viewBox="0 0 35.8 26.4" style="enable-background:new 0 0 35.8 26.4;" xml:space="preserve">
<style type="text/css">
	.st0{fill:#FFFFFF;}
	.st1{fill:#D1E8F6;}
	.st2{fill:#76C7DF;}
	.st3{fill:#F5A040;}
</style>
<g id="XMLID_136_">
	<g id="XMLID_1454_">
		<path id="XMLID_205_" class="st0" d="M30.4,25.6h-25c-2.6,0-4.6-2.1-4.6-4.6V5.4c0-2.6,2.1-4.6,4.6-4.6h25C33,0.8,35,2.8,35,5.4
			V21C35,23.5,33,25.6,30.4,25.6z"/>
	</g>
	<g id="XMLID_1453_">
		<path id="XMLID_197_" class="st1" d="M0.7,6V2.5c0-0.9,0.8-1.7,1.7-1.7h30.9c0.9,0,1.7,0.8,1.7,1.7V6H0.7z"/>
	</g>
	<g id="XMLID_1452_">
		<path id="XMLID_374_" class="st2" d="M33.3,26.4H2.5c-1.4,0-2.5-1.1-2.5-2.5V2.5C0,1.1,1.1,0,2.5,0H7v1.5H2.5c-0.5,0-1,0.4-1,1
			v21.4c0,0.5,0.4,1,1,1h30.9c0.5,0,1-0.4,1-1V2.5c0-0.5-0.4-1-1-1H13V0h20.3c1.4,0,2.5,1.1,2.5,2.5v21.4
			C35.8,25.2,34.7,26.4,33.3,26.4z"/>
	</g>
	<g id="XMLID_882_">
		<rect id="XMLID_373_" x="8.3" class="st2" width="2.7" height="1.5"/>
	</g>
	<g id="XMLID_879_">
		<rect id="XMLID_372_" x="0.8" y="5.4" class="st2" width="34.3" height="1.5"/>
	</g>
	<g id="XMLID_876_">
		<rect id="XMLID_371_" x="3.5" y="2.9" class="st2" width="0.6" height="1.5"/>
	</g>
	<g id="XMLID_873_">
		<rect id="XMLID_370_" x="5.7" y="2.9" class="st2" width="0.6" height="1.5"/>
	</g>
	<g id="XMLID_872_">
		<rect id="XMLID_369_" x="7.9" y="2.9" class="st2" width="0.6" height="1.5"/>
	</g>
	<g id="XMLID_228_">
		<path id="XMLID_355_" class="st3" d="M11.3,14.9v-1l3.7-1.7v1.1l-2.4,1.1l2.4,1.2v1.1L11.3,14.9z"/>
		<path id="XMLID_362_" class="st3" d="M19,11.3H20l-3.2,7h-1.1L19,11.3z"/>
		<path id="XMLID_367_" class="st3" d="M24.5,13.9v1l-3.7,1.7v-1.1l2.4-1.2l-2.4-1.1v-1.1L24.5,13.9z"/>
	</g>
</g>
</svg>
