<?xml version="1.0" encoding="utf-8"?>
<!-- Generator: Adobe Illustrator 19.0.0, SVG Export Plug-In . SVG Version: 6.00 Build 0)  -->
<svg version="1.1" id="Layer_1" xmlns="http://www.w3.org/2000/svg" xmlns:xlink="http://www.w3.org/1999/xlink" x="0px" y="0px"
	 viewBox="0 0 40.1 25.1" style="enable-background:new 0 0 40.1 25.1;" xml:space="preserve">
<style type="text/css">
	.st0{fill:#D1E8F6;}
	.st1{fill:#FFFFFF;}
	.st2{fill:#76C7DF;}
	.st3{fill:url(#XMLID_60_);}
	.st4{fill:url(#XMLID_61_);}
</style>
<g id="XMLID_175_">
	<g id="XMLID_176_">
		<rect id="XMLID_1100_" x="0.5" y="0.5" class="st0" width="39.1" height="24.1"/>
	</g>
	<g id="XMLID_182_">
		<rect id="XMLID_1040_" x="2.9" y="2.6" class="st1" width="34.3" height="19.8"/>
	</g>
	<g id="XMLID_183_">
		<path id="XMLID_8_" class="st2" d="M40.1,25.1H0V0h40.1V25.1z M1.1,24.1h38v-23h-38V24.1z"/>
	</g>
	<g id="XMLID_190_">
		<g id="XMLID_192_">
			<linearGradient id="XMLID_60_" gradientUnits="userSpaceOnUse" x1="28.9182" y1="17.882" x2="32.8241" y2="17.882">
				<stop  offset="0" style="stop-color:#D2DE41"/>
				<stop  offset="1" style="stop-color:#E5E761"/>
			</linearGradient>
			<path id="XMLID_581_" class="st3" d="M32.8,20.8l-2-0.8l-2,0.8V15h3.9V20.8z M30.9,18.8l0.9,0.4v-3.1H30v3.1L30.9,18.8z"/>
		</g>
		<g id="XMLID_503_">
			<path id="XMLID_505_" class="st1" d="M34.5,13.3c0,0.5-0.4,0.8-0.6,1.2c-0.2,0.4-0.1,1-0.5,1.3c-0.3,0.3-0.9,0.3-1.3,0.5
				c-0.4,0.2-0.8,0.6-1.2,0.6s-0.8-0.4-1.2-0.6c-0.4-0.2-1-0.1-1.3-0.5C28,15.5,28,15,27.9,14.6c-0.2-0.4-0.6-0.8-0.6-1.2
				s0.4-0.8,0.6-1.2c0.2-0.4,0.1-1,0.5-1.3c0.3-0.3,0.9-0.3,1.3-0.5c0.4-0.2,0.8-0.6,1.2-0.6c0.5,0,0.8,0.4,1.2,0.6
				c0.4,0.2,1,0.1,1.3,0.5c0.3,0.3,0.3,0.9,0.5,1.3C34,12.5,34.5,12.9,34.5,13.3z"/>
			<path id="XMLID_577_" class="st2" d="M30.9,17.4c-0.5,0-0.8-0.2-1.1-0.4c-0.1-0.1-0.2-0.2-0.3-0.2c-0.1,0-0.3-0.1-0.4-0.1
				c-0.3-0.1-0.7-0.2-1.1-0.5c-0.3-0.3-0.4-0.7-0.5-1.1c0-0.2-0.1-0.3-0.1-0.4c0-0.1-0.1-0.2-0.2-0.3c-0.2-0.3-0.4-0.6-0.4-1.1
				c0-0.5,0.2-0.8,0.4-1.1c0.1-0.1,0.2-0.2,0.2-0.3c0-0.1,0.1-0.3,0.1-0.4c0.1-0.3,0.2-0.7,0.5-1.1c0.3-0.3,0.7-0.4,1.1-0.5
				c0.2,0,0.3-0.1,0.4-0.1c0.1,0,0.2-0.1,0.3-0.2c0.3-0.2,0.6-0.4,1.1-0.4c0.5,0,0.8,0.2,1.1,0.4c0.1,0.1,0.2,0.2,0.3,0.2
				c0.1,0,0.3,0.1,0.4,0.1c0.3,0.1,0.7,0.2,1.1,0.5c0.3,0.3,0.4,0.7,0.5,1.1c0,0.2,0.1,0.3,0.1,0.4c0,0.1,0.1,0.2,0.2,0.3
				c0.2,0.3,0.4,0.6,0.4,1.1c0,0.5-0.2,0.8-0.4,1.1c-0.1,0.1-0.2,0.2-0.2,0.3c0,0.1-0.1,0.3-0.1,0.4c-0.1,0.3-0.2,0.7-0.5,1.1
				c-0.3,0.3-0.7,0.4-1.1,0.5c-0.2,0-0.3,0.1-0.4,0.1c-0.1,0-0.2,0.1-0.3,0.2C31.7,17.2,31.3,17.4,30.9,17.4z M30.9,10.3
				c-0.1,0-0.3,0.1-0.5,0.3c-0.2,0.1-0.3,0.2-0.5,0.3c-0.2,0.1-0.4,0.1-0.6,0.2c-0.2,0-0.4,0.1-0.5,0.2c-0.1,0.1-0.1,0.3-0.2,0.5
				c0,0.2-0.1,0.4-0.2,0.6c-0.1,0.2-0.2,0.4-0.3,0.5c-0.1,0.2-0.3,0.4-0.3,0.5c0,0.1,0.1,0.3,0.3,0.5c0.1,0.2,0.2,0.3,0.3,0.5
				c0.1,0.2,0.1,0.4,0.2,0.6c0,0.2,0.1,0.4,0.2,0.5c0.1,0.1,0.3,0.1,0.5,0.2c0.2,0,0.4,0.1,0.6,0.2c0.2,0.1,0.4,0.2,0.5,0.3
				c0.2,0.1,0.4,0.3,0.5,0.3c0.1,0,0.3-0.1,0.5-0.3c0.2-0.1,0.3-0.2,0.5-0.3c0.2-0.1,0.4-0.1,0.6-0.2c0.2,0,0.4-0.1,0.5-0.2
				c0.1-0.1,0.1-0.3,0.2-0.5c0-0.2,0.1-0.4,0.2-0.6c0.1-0.2,0.2-0.4,0.3-0.5c0.1-0.2,0.3-0.4,0.3-0.5c0-0.1-0.1-0.3-0.3-0.5
				c-0.1-0.2-0.2-0.3-0.3-0.5c-0.1-0.2-0.1-0.4-0.2-0.6c0-0.2-0.1-0.4-0.2-0.5C33,11.1,32.7,11,32.5,11c-0.2,0-0.4-0.1-0.6-0.2
				c-0.2-0.1-0.4-0.2-0.5-0.3C31.2,10.4,31,10.3,30.9,10.3z"/>
		</g>
		<g id="XMLID_496_">
			<linearGradient id="XMLID_61_" gradientUnits="userSpaceOnUse" x1="26.7554" y1="13.3201" x2="34.9861" y2="13.3201">
				<stop  offset="0" style="stop-color:#D2DE41"/>
				<stop  offset="1" style="stop-color:#E5E761"/>
			</linearGradient>
			<path id="XMLID_574_" class="st4" d="M30.9,17.4c-0.5,0-0.8-0.2-1.1-0.4c-0.1-0.1-0.2-0.2-0.3-0.2c-0.1,0-0.3-0.1-0.4-0.1
				c-0.3-0.1-0.7-0.2-1.1-0.5c-0.3-0.3-0.4-0.7-0.5-1.1c0-0.2-0.1-0.3-0.1-0.4c0-0.1-0.1-0.2-0.2-0.3c-0.2-0.3-0.4-0.6-0.4-1.1
				c0-0.5,0.2-0.8,0.4-1.1c0.1-0.1,0.2-0.2,0.2-0.3c0-0.1,0.1-0.3,0.1-0.4c0.1-0.3,0.2-0.7,0.5-1.1c0.3-0.3,0.7-0.4,1.1-0.5
				c0.2,0,0.3-0.1,0.4-0.1c0.1,0,0.2-0.1,0.3-0.2c0.3-0.2,0.6-0.4,1.1-0.4c0.5,0,0.8,0.2,1.1,0.4c0.1,0.1,0.2,0.2,0.3,0.2
				c0.1,0,0.3,0.1,0.4,0.1c0.3,0.1,0.7,0.2,1.1,0.5c0.3,0.3,0.4,0.7,0.5,1.1c0,0.2,0.1,0.3,0.1,0.4c0,0.1,0.1,0.2,0.2,0.3
				c0.2,0.3,0.4,0.6,0.4,1.1c0,0.5-0.2,0.8-0.4,1.1c-0.1,0.1-0.2,0.2-0.2,0.3c0,0.1-0.1,0.3-0.1,0.4c-0.1,0.3-0.2,0.7-0.5,1.1
				c-0.3,0.3-0.7,0.4-1.1,0.5c-0.2,0-0.3,0.1-0.4,0.1c-0.1,0-0.2,0.1-0.3,0.2C31.7,17.2,31.3,17.4,30.9,17.4z M30.9,10.3
				c-0.1,0-0.3,0.1-0.5,0.3c-0.2,0.1-0.3,0.2-0.5,0.3c-0.2,0.1-0.4,0.1-0.6,0.2c-0.2,0-0.4,0.1-0.5,0.2c-0.1,0.1-0.1,0.3-0.2,0.5
				c0,0.2-0.1,0.4-0.2,0.6c-0.1,0.2-0.2,0.4-0.3,0.5c-0.1,0.2-0.3,0.4-0.3,0.5c0,0.1,0.1,0.3,0.3,0.5c0.1,0.2,0.2,0.3,0.3,0.5
				c0.1,0.2,0.1,0.4,0.2,0.6c0,0.2,0.1,0.4,0.2,0.5c0.1,0.1,0.3,0.1,0.5,0.2c0.2,0,0.4,0.1,0.6,0.2c0.2,0.1,0.4,0.2,0.5,0.3
				c0.2,0.1,0.4,0.3,0.5,0.3c0.1,0,0.3-0.1,0.5-0.3c0.2-0.1,0.3-0.2,0.5-0.3c0.2-0.1,0.4-0.1,0.6-0.2c0.2,0,0.4-0.1,0.5-0.2
				c0.1-0.1,0.1-0.3,0.2-0.5c0-0.2,0.1-0.4,0.2-0.6c0.1-0.2,0.2-0.4,0.3-0.5c0.1-0.2,0.3-0.4,0.3-0.5c0-0.1-0.1-0.3-0.3-0.5
				c-0.1-0.2-0.2-0.3-0.3-0.5c-0.1-0.2-0.1-0.4-0.2-0.6c0-0.2-0.1-0.4-0.2-0.5C33,11.1,32.7,11,32.5,11c-0.2,0-0.4-0.1-0.6-0.2
				c-0.2-0.1-0.4-0.2-0.5-0.3C31.2,10.4,31,10.3,30.9,10.3z"/>
		</g>
	</g>
	<g id="XMLID_194_">
		<rect id="XMLID_573_" x="5.6" y="5.4" class="st0" width="18.8" height="1.1"/>
	</g>
	<g id="XMLID_195_">
		<rect id="XMLID_572_" x="5.6" y="7.3" class="st0" width="18.8" height="1.1"/>
	</g>
	<g id="XMLID_196_">
		<rect id="XMLID_571_" x="5.6" y="9.2" class="st0" width="18.8" height="1.1"/>
	</g>
	<g id="XMLID_5_">
		<rect id="XMLID_569_" x="5.6" y="11.1" class="st0" width="18.8" height="1.1"/>
	</g>
	<g id="XMLID_4_">
		<rect id="XMLID_568_" x="5.6" y="13" class="st0" width="18.8" height="1.1"/>
	</g>
</g>
</svg>
