<?xml version="1.0" encoding="utf-8"?>
<!-- Generator: Adobe Illustrator 19.0.0, SVG Export Plug-In . SVG Version: 6.00 Build 0)  -->
<svg version="1.1" id="Layer_1" xmlns="http://www.w3.org/2000/svg" xmlns:xlink="http://www.w3.org/1999/xlink" x="0px" y="0px"
	 viewBox="0 0 31.9 28.4" style="enable-background:new 0 0 31.9 28.4;" xml:space="preserve">
<style type="text/css">
	.st0{fill:#FFFFFF;}
	.st1{fill:#F5A040;}
	.st2{fill:#76C7DF;}
	.st3{fill:url(#XMLID_172_);}
</style>
<g id="XMLID_297_">
	<g id="XMLID_299_">
		<path id="XMLID_358_" class="st0" d="M26,24.8c5.9-4.6,6.9-13,2.4-18.8C23.8,0.1,15.3-1,9.5,3.6C4.4,7.5,2.9,14.3,5.6,19.9
			l-4.8,7.4c-0.1,0.2,0.1,0.4,0.3,0.4l8.3-2.9C14.1,28.5,21,28.7,26,24.8z"/>
	</g>
	<g id="XMLID_383_">
		<path id="XMLID_490_" class="st1" d="M17.7,28.4c-3,0-6-1-8.5-2.8l-7.9,2.8c-0.4,0.1-0.8,0-1.1-0.3c-0.3-0.3-0.3-0.8-0.1-1.2
			l4.6-7C2.2,13.9,3.9,6.9,9,3c3.9-3,9.2-3.8,13.9-2l-0.5,1.4c-4.1-1.6-8.9-0.9-12.4,1.8C5.3,7.8,3.7,14.2,6.2,19.6l0.2,0.4
			l-4.2,6.4l7.3-2.6l0.3,0.3c4.6,3.7,11,3.7,15.7,0.1c5.2-4.1,6.4-11.5,2.8-17l1.3-0.8c4.1,6.1,2.7,14.5-3.1,19
			C23.9,27.4,20.8,28.4,17.7,28.4z"/>
	</g>
	<g id="XMLID_298_">
		<path id="XMLID_489_" class="st2" d="M27.3,5.8c-0.2-0.2-0.4-0.5-0.7-0.7c-0.8-0.7-1.6-1.4-2.5-1.9l0.7-1.3c1,0.6,2,1.3,2.8,2.2
			c0.3,0.2,0.5,0.5,0.7,0.8L27.3,5.8z"/>
	</g>
	<g id="XMLID_392_">
		<linearGradient id="XMLID_172_" gradientUnits="userSpaceOnUse" x1="8.1912" y1="14.1767" x2="27.115" y2="14.1767">
			<stop  offset="0" style="stop-color:#D2DE41"/>
			<stop  offset="1" style="stop-color:#E5E761"/>
		</linearGradient>
		<circle id="XMLID_92_" class="st3" cx="17.7" cy="14.2" r="9.5"/>
	</g>
</g>
</svg>
