<?xml version="1.0" encoding="utf-8"?>
<!-- Generator: Adobe Illustrator 19.0.0, SVG Export Plug-In . SVG Version: 6.00 Build 0)  -->
<svg version="1.1" id="Layer_1" xmlns="http://www.w3.org/2000/svg" xmlns:xlink="http://www.w3.org/1999/xlink" x="0px" y="0px"
	 viewBox="0 0 36.6 44.9" style="enable-background:new 0 0 36.6 44.9;" xml:space="preserve">
<style type="text/css">
	.st0{fill:#D1E8F6;}
	.st1{fill:#76C7DF;}
	.st2{fill:#FFFFFF;}
	.st3{fill:#F5A040;}
</style>
<g id="XMLID_1_">
	<g id="XMLID_2_">
		<g id="XMLID_31_">
			<path id="XMLID_90_" class="st0" d="M19.8,0.7h3.5l10.8,2.6c1,0.2,1.7,1.1,1.7,2.1v0.7H19.8V0.7z"/>
		</g>
		<g id="XMLID_30_">
			<path id="XMLID_1256_" class="st0" d="M19.8,18h3.5l10.8-2.6c1-0.2,1.7-1.1,1.7-2.1v-0.7H19.8V18z"/>
		</g>
		<g id="XMLID_840_">
			<path id="XMLID_881_" class="st1" d="M36.6,6.9H19V0l4.5,0l10.8,2.6c1.3,0.3,2.3,1.5,2.3,2.9V6.9z M20.5,5.4h14.6
				c0-0.6-0.5-1.2-1.1-1.3L23.2,1.5h-2.7V5.4z"/>
		</g>
		<g id="XMLID_837_">
			<path id="XMLID_878_" class="st1" d="M23.4,18.8H19v-6.9h17.6v1.4c0,1.4-0.9,2.6-2.3,2.9L23.4,18.8z M20.5,17.3h2.7L34,14.7
				c0.6-0.2,1.1-0.7,1.1-1.3H20.5V17.3z"/>
		</g>
		<g id="XMLID_29_">
			<path id="XMLID_1246_" class="st1" d="M11.5,11.6H8.9l-7.7,1.8C0.5,13.6,0,14.2,0,15v0.5h11.5V11.6z"/>
		</g>
		<g id="XMLID_28_">
			<path id="XMLID_1244_" class="st1" d="M11.5,6.3H8.9L1.2,4.5C0.5,4.3,0,3.7,0,2.9V2.5h11.5V6.3z"/>
		</g>
		<g id="XMLID_21_">
			<rect id="XMLID_1234_" x="10.9" y="0.7" class="st2" width="8.9" height="44.1"/>
		</g>
		<g id="XMLID_838_">
			<polygon id="XMLID_871_" class="st1" points="20.5,37 19,37.8 19,1.5 11.7,1.5 11.7,44.9 10.2,44.9 10.2,0 20.5,0 			"/>
		</g>
		<g id="XMLID_19_">
			<rect id="XMLID_20_" x="10.9" y="4.8" class="st1" width="4" height="1.5"/>
		</g>
		<g id="XMLID_17_">
			<rect id="XMLID_18_" x="10.9" y="8.5" class="st1" width="4" height="1.5"/>
		</g>
		<g id="XMLID_15_">
			<rect id="XMLID_16_" x="10.9" y="12.2" class="st1" width="4" height="1.5"/>
		</g>
		<g id="XMLID_13_">
			<rect id="XMLID_14_" x="10.9" y="34.5" class="st1" width="4" height="1.5"/>
		</g>
		<g id="XMLID_11_">
			<rect id="XMLID_12_" x="10.9" y="38.3" class="st1" width="4" height="1.5"/>
		</g>
		<g id="XMLID_9_">
			<rect id="XMLID_10_" x="10.9" y="42" class="st1" width="4" height="1.5"/>
		</g>
		<g id="XMLID_8_">
			<rect id="XMLID_1161_" x="8.9" y="18.1" class="st2" width="11.4" height="14.8"/>
		</g>
		<g id="XMLID_4_">
			<path id="XMLID_5_" class="st1" d="M21,33.7H8.1V17.4H21V33.7z M9.6,32.2h9.9V18.9H9.6V32.2z"/>
		</g>
		<g id="XMLID_842_">
			<path id="XMLID_833_" class="st3" d="M33.3,12c-1.5,0-2.8-1.2-2.8-2.8s1.2-2.8,2.8-2.8c1.5,0,2.8,1.2,2.8,2.8S34.9,12,33.3,12z
				 M33.3,8c-0.7,0-1.3,0.6-1.3,1.3c0,0.7,0.6,1.3,1.3,1.3c0.7,0,1.3-0.6,1.3-1.3C34.6,8.6,34,8,33.3,8z"/>
		</g>
	</g>
</g>
</svg>
