<?xml version="1.0" encoding="utf-8"?>
<!-- Generator: Adobe Illustrator 19.0.0, SVG Export Plug-In . SVG Version: 6.00 Build 0)  -->
<svg version="1.1" id="Layer_1" xmlns="http://www.w3.org/2000/svg" xmlns:xlink="http://www.w3.org/1999/xlink" x="0px" y="0px"
	 viewBox="0 0 48.1 39" style="enable-background:new 0 0 48.1 39;" xml:space="preserve">
<style type="text/css">
	.st0{fill:#FFFFFF;}
	.st1{fill:#76C7DF;}
	.st2{fill:#F5A040;}
</style>
<g id="XMLID_85_">
	<g id="XMLID_135_">
		<path id="XMLID_136_" class="st0" d="M32.8,30.5c6.8-6.8,6.8-17.9,0-24.7C26-1,15-1,8.1,5.9c-5.9,5.9-6.7,14.9-2.4,21.7l-5,10.3
			c-0.1,0.3,0.2,0.5,0.4,0.4l10.2-5.1C18.1,37.2,27,36.3,32.8,30.5z"/>
	</g>
	<g id="XMLID_116_">
		<path id="XMLID_133_" class="st1" d="M1.1,39c-0.3,0-0.5-0.1-0.7-0.3c-0.3-0.3-0.4-0.8-0.2-1.2l4.8-9.9C0.6,20.5,1.8,11.2,7.6,5.3
			c3.4-3.4,8-5.3,12.9-5.3s9.4,1.9,12.9,5.3C34,6,34.7,6.8,35.3,7.6l-1.2,0.9c-0.5-0.7-1.1-1.4-1.8-2.1c-3.2-3.2-7.3-4.9-11.8-4.9
			S11.8,3.2,8.7,6.4c-5.5,5.5-6.4,14.2-2.3,20.7l0.2,0.4L2,36.9l9.4-4.7l0.4,0.2c6.6,4,15,3,20.5-2.4c0.8-0.8,1.4-1.6,2-2.5l1.2,0.8
			c-0.6,1-1.4,1.9-2.2,2.7c-5.9,5.9-14.8,7-22,2.9l-9.8,4.9C1.4,38.9,1.2,39,1.1,39z"/>
	</g>
	<g id="XMLID_112_">
		<rect id="XMLID_115_" x="8.3" y="9.9" class="st2" width="5.1" height="1.5"/>
	</g>
	<g id="XMLID_106_">
		<rect id="XMLID_109_" x="14.6" y="9.9" class="st2" width="25.9" height="1.5"/>
	</g>
	<g id="XMLID_104_">
		<rect id="XMLID_105_" x="11.4" y="13.4" class="st2" width="9.1" height="1.5"/>
	</g>
	<g id="XMLID_102_">
		<rect id="XMLID_103_" x="9.3" y="17" class="st2" width="6.6" height="1.5"/>
	</g>
	<g id="XMLID_99_">
		<rect id="XMLID_101_" x="17.8" y="17" class="st2" width="24.3" height="1.5"/>
	</g>
	<g id="XMLID_97_">
		<rect id="XMLID_98_" x="10.2" y="20.8" class="st2" width="13.2" height="1.5"/>
	</g>
	<g id="XMLID_95_">
		<rect id="XMLID_96_" x="10.2" y="24.8" class="st2" width="5.7" height="1.5"/>
	</g>
	<g id="XMLID_91_">
		<rect id="XMLID_92_" x="17.8" y="24.8" class="st2" width="30.3" height="1.5"/>
	</g>
	<g id="XMLID_89_">
		<rect id="XMLID_90_" x="24.9" y="20.8" class="st2" width="7.3" height="1.5"/>
	</g>
	<g id="XMLID_87_">
		<rect id="XMLID_695_" x="22" y="13.4" class="st2" width="4.6" height="1.5"/>
	</g>
	<g id="XMLID_86_">
		<rect id="XMLID_694_" x="42.1" y="9.9" class="st2" width="5.9" height="1.5"/>
	</g>
</g>
</svg>
