<?xml version="1.0" encoding="utf-8"?>
<!-- Generator: Adobe Illustrator 19.0.0, SVG Export Plug-In . SVG Version: 6.00 Build 0)  -->
<svg version="1.1" id="Layer_1" xmlns="http://www.w3.org/2000/svg" xmlns:xlink="http://www.w3.org/1999/xlink" x="0px" y="0px"
	 viewBox="0 0 47 85.7" style="enable-background:new 0 0 47 85.7;" xml:space="preserve">
<style type="text/css">
	.st0{fill:#CEE5EF;}
	.st1{fill:#76C7DF;}
	.st2{fill:#F5A040;}
	.st3{fill:#FFFFFF;}
	.st4{fill:#D1E8F6;}
	.st5{fill:url(#XMLID_54_);}
	.st6{fill:url(#XMLID_55_);}
</style>
<g id="XMLID_84_">
	<g id="XMLID_184_">
		<g id="XMLID_335_">
			<path id="XMLID_414_" class="st0" d="M41.3,84.9H5.7c-2.7,0-4.9-2.2-4.9-4.9V5.7C0.8,3,3,0.8,5.7,0.8h35.6c2.7,0,4.9,2.2,4.9,4.9
				V80C46.2,82.7,44,84.9,41.3,84.9z"/>
		</g>
		<g id="XMLID_332_">
			<rect id="XMLID_718_" x="7.5" class="st1" width="2.9" height="1.5"/>
		</g>
		<g id="XMLID_330_">
			<path id="XMLID_717_" class="st1" d="M42.4,85.7H4.6C2.1,85.7,0,83.6,0,81V4.6C0,2.1,2.1,0,4.6,0h1.1v1.5H4.6
				c-1.7,0-3.1,1.4-3.1,3.1V81c0,1.7,1.4,3.1,3.1,3.1h37.7c1.7,0,3.1-1.4,3.1-3.1V44.8H47V81C47,83.6,44.9,85.7,42.4,85.7z"/>
		</g>
		<g id="XMLID_329_">
			<path id="XMLID_716_" class="st1" d="M47,7.3h-1.5V4.6c0-1.7-1.4-3.1-3.1-3.1H11.8V0h30.5C44.9,0,47,2.1,47,4.6V7.3z"/>
		</g>
		<g id="XMLID_327_">
			<rect id="XMLID_715_" x="16.8" y="5.6" class="st1" width="13.4" height="1.5"/>
		</g>
		<g id="XMLID_317_">
			<path id="XMLID_319_" class="st2" d="M23.5,83.3c-2,0-3.7-1.6-3.7-3.7c0-2,1.6-3.7,3.7-3.7c2,0,3.7,1.6,3.7,3.7
				C27.2,81.7,25.5,83.3,23.5,83.3z M23.5,77.5c-1.2,0-2.2,1-2.2,2.2c0,1.2,1,2.2,2.2,2.2c1.2,0,2.2-1,2.2-2.2
				C25.7,78.5,24.7,77.5,23.5,77.5z"/>
		</g>
		<g id="XMLID_315_">
			<rect id="XMLID_316_" x="3.2" y="9.1" class="st3" width="40.1" height="66"/>
		</g>
		<g id="XMLID_312_">
			<path id="XMLID_313_" class="st1" d="M14.6,70.8H7.7c-0.2,0-0.4-0.2-0.4-0.4v-6.9c0-0.2,0.2-0.4,0.4-0.4h6.9
				c0.2,0,0.4,0.2,0.4,0.4v6.9C14.9,70.6,14.8,70.8,14.6,70.8z"/>
		</g>
		<g id="XMLID_310_">
			<path id="XMLID_311_" class="st4" d="M37.8,70.8H31c-0.2,0-0.4-0.2-0.4-0.4v-6.9c0-0.2,0.2-0.4,0.4-0.4h6.9
				c0.2,0,0.4,0.2,0.4,0.4v6.9C38.2,70.6,38,70.8,37.8,70.8z"/>
		</g>
		<g id="XMLID_308_">
			<linearGradient id="XMLID_54_" gradientUnits="userSpaceOnUse" x1="7.518" y1="55.6608" x2="15.1738" y2="55.6608">
				<stop  offset="0" style="stop-color:#D2DE41"/>
				<stop  offset="1" style="stop-color:#E5E761"/>
			</linearGradient>
			<path id="XMLID_309_" class="st5" d="M14.8,59.5H7.9c-0.2,0-0.4-0.2-0.4-0.4v-6.9c0-0.2,0.2-0.4,0.4-0.4h6.9
				c0.2,0,0.4,0.2,0.4,0.4v6.9C15.2,59.3,15,59.5,14.8,59.5z"/>
		</g>
		<g id="XMLID_306_">
			<path id="XMLID_307_" class="st0" d="M26.4,59.5h-6.9c-0.2,0-0.4-0.2-0.4-0.4v-6.9c0-0.2,0.2-0.4,0.4-0.4h6.9
				c0.2,0,0.4,0.2,0.4,0.4v6.9C26.8,59.3,26.6,59.5,26.4,59.5z"/>
		</g>
		<g id="XMLID_301_">
			<path id="XMLID_304_" class="st2" d="M38.1,59.5h-6.9c-0.2,0-0.4-0.2-0.4-0.4v-6.9c0-0.2,0.2-0.4,0.4-0.4h6.9
				c0.2,0,0.4,0.2,0.4,0.4v6.9C38.5,59.3,38.3,59.5,38.1,59.5z"/>
		</g>
		<g id="XMLID_256_">
			<linearGradient id="XMLID_55_" gradientUnits="userSpaceOnUse" x1="19.3883" y1="44.3845" x2="27.0441" y2="44.3845">
				<stop  offset="0" style="stop-color:#D2DE41"/>
				<stop  offset="1" style="stop-color:#E5E761"/>
			</linearGradient>
			<path id="XMLID_266_" class="st6" d="M26.7,48.2h-6.9c-0.2,0-0.4-0.2-0.4-0.4v-6.9c0-0.2,0.2-0.4,0.4-0.4h6.9
				c0.2,0,0.4,0.2,0.4,0.4v6.9C27,48,26.9,48.2,26.7,48.2z"/>
		</g>
		<g id="XMLID_188_">
			<path id="XMLID_189_" class="st1" d="M14.8,37H7.9c-0.2,0-0.4-0.2-0.4-0.4v-6.9c0-0.2,0.2-0.4,0.4-0.4h6.9c0.2,0,0.4,0.2,0.4,0.4
				v6.9C15.2,36.8,15,37,14.8,37z"/>
		</g>
		<g id="XMLID_185_">
			<path id="XMLID_187_" class="st2" d="M26.2,25.7h-6.9c-0.2,0-0.4-0.2-0.4-0.4v-6.9c0-0.2,0.2-0.4,0.4-0.4h6.9
				c0.2,0,0.4,0.2,0.4,0.4v6.9C26.6,25.5,26.4,25.7,26.2,25.7z"/>
		</g>
	</g>
</g>
</svg>
