<?xml version="1.0" encoding="utf-8"?>
<!-- Generator: Adobe Illustrator 19.0.0, SVG Export Plug-In . SVG Version: 6.00 Build 0)  -->
<svg version="1.1" id="Layer_1" xmlns="http://www.w3.org/2000/svg" xmlns:xlink="http://www.w3.org/1999/xlink" x="0px" y="0px"
	 viewBox="0 0 66.1 82.9" style="enable-background:new 0 0 66.1 82.9;" xml:space="preserve">
<style type="text/css">
	.st0{fill:#CEE5EF;}
	.st1{fill:#FFFFFF;}
	.st2{fill:#76C7DF;}
	.st3{fill:url(#XMLID_54_);}
	.st4{fill:#D1E8F6;}
</style>
<g id="XMLID_110_">
	<g id="XMLID_117_">
		<g id="XMLID_132_">
			<path id="XMLID_559_" class="st0" d="M65.3,82.8V4.6c0-2.1-1.7-3.8-3.8-3.8H4.6c-2.1,0-3.8,1.7-3.8,3.8v78.2L65.3,82.8z"/>
		</g>
		<g id="XMLID_131_">
			<path id="XMLID_557_" class="st1" d="M60,82.8V4.6c0-2.1-1.5-3.8-3.3-3.8H8.6c-1.8,0-3.3,1.7-3.3,3.8v78.2L60,82.8z"/>
		</g>
		<g id="XMLID_130_">
			<path id="XMLID_555_" class="st0" d="M0.8,10.7V4c0-1.8,1.4-3.2,3.2-3.2h58.1c1.8,0,3.2,1.4,3.2,3.2v6.7H0.8z"/>
		</g>
		<g id="XMLID_129_">
			<path id="XMLID_905_" class="st2" d="M1.5,37H0V4c0-2.2,1.8-4,4-4h8.6v1.5H4C2.6,1.5,1.5,2.6,1.5,4V37z"/>
		</g>
		<g id="XMLID_128_">
			<path id="XMLID_904_" class="st2" d="M66.1,82.9h-1.5V4c0-1.4-1.1-2.5-2.5-2.5H23.8V0h38.3c2.2,0,4,1.8,4,4V82.9z"/>
		</g>
		<g id="XMLID_127_">
			<rect id="XMLID_903_" x="15.7" class="st2" width="4.4" height="1.5"/>
		</g>
		<g id="XMLID_126_">
			<rect id="XMLID_902_" x="0.8" y="10.1" class="st2" width="64.6" height="1.5"/>
		</g>
		<g id="XMLID_125_">
			<rect id="XMLID_901_" x="8.2" y="5.5" class="st2" width="1.5" height="1.5"/>
		</g>
		<g id="XMLID_124_">
			<rect id="XMLID_900_" x="12.5" y="5.5" class="st2" width="1.5" height="1.5"/>
		</g>
		<g id="XMLID_123_">
			<rect id="XMLID_899_" x="16.9" y="5.5" class="st2" width="1.5" height="1.5"/>
		</g>
		<g id="XMLID_122_">
			<linearGradient id="XMLID_54_" gradientUnits="userSpaceOnUse" x1="9.3984" y1="27.6663" x2="56.6587" y2="27.6663">
				<stop  offset="0" style="stop-color:#D2DE41"/>
				<stop  offset="1" style="stop-color:#E5E761"/>
			</linearGradient>
			<rect id="XMLID_539_" x="9.4" y="18.3" class="st3" width="47.3" height="18.6"/>
		</g>
		<g id="XMLID_119_">
			<rect id="XMLID_529_" x="42.3" y="48.8" class="st4" width="14.4" height="18.6"/>
		</g>
		<g id="XMLID_118_">
			<rect id="XMLID_898_" x="23" y="42.1" class="st2" width="20.1" height="1.5"/>
		</g>
	</g>
</g>
</svg>
