<?xml version="1.0" encoding="utf-8"?>
<!-- Generator: Adobe Illustrator 19.0.0, SVG Export Plug-In . SVG Version: 6.00 Build 0)  -->
<svg version="1.1" id="Layer_1" xmlns="http://www.w3.org/2000/svg" xmlns:xlink="http://www.w3.org/1999/xlink" x="0px" y="0px"
	 viewBox="0 0 29.3 51.1" style="enable-background:new 0 0 29.3 51.1;" xml:space="preserve">
<style type="text/css">
	.st0{fill:#F5A040;}
	.st1{fill:#FFFFFF;}
	.st2{fill:#D1E8F6;}
	.st3{fill:#76C7DF;}
	.st4{fill:#CEE5EF;}
</style>
<g id="XMLID_494_">
	<g id="XMLID_502_">
		<g id="XMLID_512_">
			<rect id="XMLID_897_" x="13.9" y="27.9" class="st0" width="1.5" height="5.8"/>
		</g>
		<circle id="XMLID_5_" class="st1" cx="14.6" cy="14.5" r="12.2"/>
		<g id="XMLID_509_">
			<path id="XMLID_9_" class="st2" d="M14.7,0.7C7,0.7,0.8,7,0.8,14.7c0,7.7,6.2,13.9,13.9,13.9c7.7,0,13.9-6.2,13.9-13.9
				C28.6,7,22.4,0.7,14.7,0.7z M14.7,25.2c-5.8,0-10.6-4.7-10.6-10.6S8.8,4.1,14.7,4.1c5.8,0,10.6,4.7,10.6,10.6
				C25.2,20.5,20.5,25.2,14.7,25.2z"/>
		</g>
		<g id="XMLID_508_">
			<path id="XMLID_894_" class="st0" d="M14.7,29.3C6.6,29.3,0,22.8,0,14.7C0,6.6,6.6,0,14.7,0s14.7,6.6,14.7,14.7
				C29.3,22.8,22.8,29.3,14.7,29.3z M14.7,1.5C7.4,1.5,1.5,7.4,1.5,14.7c0,7.3,5.9,13.2,13.2,13.2c7.3,0,13.2-5.9,13.2-13.2
				C27.8,7.4,21.9,1.5,14.7,1.5z"/>
		</g>
		<g id="XMLID_507_">
			<path id="XMLID_893_" class="st3" d="M23.6,14.8h-1.3c0-4.4-3.6-7.9-7.9-7.9V5.5C19.5,5.5,23.6,9.7,23.6,14.8z"/>
		</g>
		<g id="XMLID_506_">
			<rect id="XMLID_404_" x="11.9" y="31.9" class="st4" width="5.5" height="18.4"/>
		</g>
		<g id="XMLID_505_">
			<path id="XMLID_892_" class="st0" d="M16,51.1h-2.7c-1.2,0-2.2-1-2.2-2.2V31.2h7V41h-1.5v-8.3h-4V49c0,0.4,0.3,0.7,0.7,0.7H16
				c0.4,0,0.7-0.3,0.7-0.7v-2.6h1.5V49C18.2,50.1,17.2,51.1,16,51.1z"/>
		</g>
	</g>
</g>
</svg>
