<?xml version="1.0" encoding="utf-8"?>
<!-- Generator: Adobe Illustrator 19.0.0, SVG Export Plug-In . SVG Version: 6.00 Build 0)  -->
<svg version="1.1" id="Layer_1" xmlns="http://www.w3.org/2000/svg" xmlns:xlink="http://www.w3.org/1999/xlink" x="0px" y="0px"
	 viewBox="0 0 24.1 22" style="enable-background:new 0 0 24.1 22;" xml:space="preserve">
<style type="text/css">
	.st0{fill:url(#XMLID_57_);}
	.st1{fill:#76C7DF;}
	.st2{fill:#FFFFFF;}
</style>
<g id="XMLID_1_">
	<g id="XMLID_250_">
		<linearGradient id="XMLID_57_" gradientUnits="userSpaceOnUse" x1="0.6859" y1="10.995" x2="23.4212" y2="10.995">
			<stop  offset="0" style="stop-color:#D2DE41"/>
			<stop  offset="1" style="stop-color:#E5E761"/>
		</linearGradient>
		<rect id="XMLID_1272_" x="0.7" y="0.7" class="st0" width="22.7" height="20.6"/>
	</g>
	<g id="XMLID_3_">
		<path id="XMLID_305_" class="st1" d="M24.1,22H0V0h24.1V22z M1.4,20.6h21.4V1.4H1.4V20.6z"/>
	</g>
	<g id="XMLID_260_">
		<g id="XMLID_247_">
			<rect id="XMLID_1266_" x="2.4" y="2.9" class="st2" width="2" height="1.1"/>
		</g>
		<g id="XMLID_251_">
			<rect id="XMLID_1264_" x="2.4" y="6.1" class="st2" width="2" height="1.1"/>
		</g>
		<g id="XMLID_252_">
			<rect id="XMLID_1262_" x="2.4" y="9.3" class="st2" width="2" height="1.1"/>
		</g>
		<g id="XMLID_253_">
			<rect id="XMLID_1260_" x="2.4" y="12.4" class="st2" width="2" height="1.1"/>
		</g>
		<g id="XMLID_255_">
			<rect id="XMLID_1258_" x="2.4" y="15.6" class="st2" width="2" height="1.1"/>
		</g>
	</g>
	<g id="XMLID_2_">
		<g id="XMLID_261_">
			<rect id="XMLID_1226_" x="19.7" y="2.9" class="st2" width="2" height="1.1"/>
		</g>
		<g id="XMLID_256_">
			<rect id="XMLID_1225_" x="19.7" y="6.1" class="st2" width="2" height="1.1"/>
		</g>
		<g id="XMLID_257_">
			<rect id="XMLID_1224_" x="19.7" y="9.3" class="st2" width="2" height="1.1"/>
		</g>
		<g id="XMLID_258_">
			<rect id="XMLID_1223_" x="19.7" y="12.4" class="st2" width="2" height="1.1"/>
		</g>
		<g id="XMLID_259_">
			<rect id="XMLID_1222_" x="19.7" y="15.6" class="st2" width="2" height="1.1"/>
		</g>
	</g>
	<g id="XMLID_262_">
		<polygon id="XMLID_1244_" class="st2" points="14.5,9.7 9.6,12.4 9.6,6.9 14.5,9.7 9.6,12.4 9.6,6.9 		"/>
	</g>
	<g id="XMLID_263_">
		<rect id="XMLID_1242_" x="2.4" y="18.3" class="st2" width="19" height="0.4"/>
	</g>
	<g id="XMLID_264_">
		<rect id="XMLID_1240_" x="2.4" y="18.3" class="st2" width="9" height="0.4"/>
	</g>
</g>
</svg>
