<?xml version="1.0" encoding="utf-8"?>
<!-- Generator: Adobe Illustrator 19.0.0, SVG Export Plug-In . SVG Version: 6.00 Build 0)  -->
<svg version="1.1" id="Layer_1" xmlns="http://www.w3.org/2000/svg" xmlns:xlink="http://www.w3.org/1999/xlink" x="0px" y="0px"
	 viewBox="0 0 48.1 35.1" style="enable-background:new 0 0 48.1 35.1;" xml:space="preserve">
<style type="text/css">
	.st0{fill:#FFFFFF;}
	.st1{fill:#76C7DF;}
	.st2{fill:#D1E8F6;}
	.st3{fill:#F5A040;}
</style>
<g id="XMLID_97_">
	<g id="XMLID_242_">
		<g id="XMLID_118_">
			<path class="st0" d="M45.5,34.3H2.7c-1.1,0-1.9-0.9-1.9-1.9V2.7c0-1.1,0.9-1.9,1.9-1.9h42.8c1.1,0,1.9,0.9,1.9,1.9v29.7
				C47.4,33.5,46.5,34.3,45.5,34.3z"/>
		</g>
		<g id="XMLID_243_">
			<path class="st1" d="M45.2,35.1H2.9c-1.6,0-2.9-1.3-2.9-2.9V2.9C0,1.3,1.3,0,2.9,0h35.3v1.5H2.9c-0.8,0-1.4,0.6-1.4,1.4v29.2
				c0,0.8,0.6,1.4,1.4,1.4h42.3c0.8,0,1.4-0.6,1.4-1.4V2.9c0-0.8-0.6-1.4-1.4-1.4h-2.3V0h2.3c1.6,0,2.9,1.3,2.9,2.9v29.2
				C48.1,33.8,46.8,35.1,45.2,35.1z"/>
		</g>
		<g id="XMLID_234_">
			<rect x="39.4" class="st1" width="2.6" height="1.5"/>
		</g>
		<g id="XMLID_239_">
			<rect x="3.6" y="13.2" class="st1" width="1.5" height="8.6"/>
		</g>
		<g id="XMLID_240_">
			<rect x="6.8" y="3.6" class="st2" width="34.1" height="27.8"/>
		</g>
		<g id="XMLID_241_">
			<path class="st1" d="M43.1,19.5c-1.1,0-2-0.9-2-2c0-1.1,0.9-2,2-2c1.1,0,2,0.9,2,2C45,18.6,44.2,19.5,43.1,19.5z M43.1,17.1
				c-0.3,0-0.5,0.2-0.5,0.5s0.2,0.5,0.5,0.5c0.3,0,0.5-0.2,0.5-0.5S43.3,17.1,43.1,17.1z"/>
		</g>
		<g id="XMLID_811_">
			<path class="st3" d="M19.9,21c-0.3,0-0.5-0.1-0.8-0.2c-0.5-0.3-0.8-0.8-0.8-1.3V9.9c0-0.6,0.3-1.1,0.8-1.3c0.5-0.3,1.1-0.3,1.5,0
				l8.3,4.8c0.5,0.3,0.8,0.8,0.8,1.3c0,0.6-0.3,1.1-0.8,1.3h0l-8.3,4.8C20.4,20.9,20.2,21,19.9,21z M19.9,9.9l-0.1,9.6l8.4-4.8
				c0,0,0,0,0,0L19.9,9.9z"/>
		</g>
		<g id="XMLID_810_">
			<rect x="11" y="25.3" class="st1" width="26.1" height="1.5"/>
		</g>
		<g id="XMLID_809_">
			<rect x="16.1" y="24" class="st1" width="1.5" height="4.1"/>
		</g>
	</g>
</g>
</svg>
