<?xml version="1.0" encoding="utf-8"?>
<!-- Generator: Adobe Illustrator 19.0.0, SVG Export Plug-In . SVG Version: 6.00 Build 0)  -->
<svg version="1.1" id="Layer_1" xmlns="http://www.w3.org/2000/svg" xmlns:xlink="http://www.w3.org/1999/xlink" x="0px" y="0px"
	 viewBox="0 0 65.1 45.6" style="enable-background:new 0 0 65.1 45.6;" xml:space="preserve">
<style type="text/css">
	.st0{fill:#76C7DF;}
	.st1{fill:#FFFFFF;}
	.st2{fill:url(#XMLID_54_);}
	.st3{fill:url(#XMLID_55_);}
</style>
<g id="XMLID_339_">
	<g id="XMLID_82_">
		<g id="XMLID_76_">
			<g id="XMLID_802_">
				<path id="XMLID_326_" class="st0" d="M60.8,42.5H4.7c-0.5,0-1-0.5-1-1V1.7c0-0.6,0.5-1,1-1h56.1c0.5,0,1,0.4,1,1v39.8
					C61.8,42.1,61.3,42.5,60.8,42.5z"/>
			</g>
			<g id="XMLID_801_">
				<rect id="XMLID_714_" x="49" class="st0" width="4" height="1.5"/>
			</g>
			<g id="XMLID_93_">
				<path id="XMLID_713_" class="st0" d="M4.4,40.1H2.9V2.2C2.9,1,3.9,0,5.1,0h41.3v1.5H5.1c-0.4,0-0.7,0.3-0.7,0.7V40.1z"/>
			</g>
			<g id="XMLID_94_">
				<path id="XMLID_712_" class="st0" d="M60.3,43.3v-1.5c0.4,0,0.7-0.3,0.7-0.7V2.2c0-0.4-0.3-0.7-0.7-0.7h-5.6V0h5.6
					c1.2,0,2.2,1,2.2,2.2v38.9C62.5,42.3,61.6,43.3,60.3,43.3z"/>
			</g>
			<g id="XMLID_799_">
				<rect id="XMLID_286_" x="6.5" y="4" class="st1" width="52.2" height="33.9"/>
			</g>
			<g id="XMLID_798_">
				<path id="XMLID_100_" class="st1" d="M60.8,44.9H4c-1.4,0-2.5-1-2.7-2.3l-0.4-2.5h26.3l1,1.4h7.3l1.1-1.4h27.7l-0.4,2.1
					C63.6,43.7,62.3,44.9,60.8,44.9z"/>
			</g>
			<g id="XMLID_797_">
				<path id="XMLID_708_" class="st0" d="M60.8,45.6H4c-1.7,0-3.2-1.2-3.5-3L0,39.3h27.6l1,1.4h6.5l1.1-1.4h29l-0.5,3
					C64.3,44.2,62.7,45.6,60.8,45.6z M1.8,40.8L2,42.4c0.2,1,1,1.7,2,1.7h56.7c1.2,0,2.2-0.9,2.4-2l0.2-1.3H36.9l-1.1,1.4h-8l-1-1.4
					H1.8z"/>
			</g>
		</g>
		<g id="XMLID_290_">
			<g id="XMLID_299_">
				<linearGradient id="XMLID_54_" gradientUnits="userSpaceOnUse" x1="20.3794" y1="15.1457" x2="32.476" y2="15.1457">
					<stop  offset="0" style="stop-color:#D2DE41"/>
					<stop  offset="1" style="stop-color:#E5E761"/>
				</linearGradient>
				<path id="XMLID_131_" class="st2" d="M23.9,12.6c-2.2,2.2-3.5,5.2-3.6,8.5l12.1,0v0V9.1C29.1,9.1,26.1,10.4,23.9,12.6z"/>
			</g>
			<g id="XMLID_295_">
				<linearGradient id="XMLID_55_" gradientUnits="userSpaceOnUse" x1="20.3782" y1="28.0998" x2="41.018" y2="28.0998">
					<stop  offset="0" style="stop-color:#D2DE41"/>
					<stop  offset="1" style="stop-color:#E5E761"/>
				</linearGradient>
				<path id="XMLID_132_" class="st3" d="M32.5,22.1L32.5,22.1l-12.1,0c0,0,0,0,0,0c0,6.7,5.4,12.1,12.1,12.1c3.3,0,6.4-1.3,8.5-3.5
					L32.5,22.1z"/>
			</g>
			<g id="XMLID_570_">
				<path id="XMLID_698_" class="st0" d="M32.6,34.9c-7.5,0-13.6-6.1-13.6-13.6c0-7.5,6.1-13.6,13.6-13.6c7.5,0,13.6,6.1,13.6,13.6
					C46.2,28.8,40.1,34.9,32.6,34.9z M32.6,9.1c-6.7,0-12.1,5.4-12.1,12.1c0,6.7,5.4,12.1,12.1,12.1c6.7,0,12.1-5.4,12.1-12.1
					C44.7,14.6,39.3,9.1,32.6,9.1z"/>
			</g>
			<g id="XMLID_294_">
				<polygon id="XMLID_697_" class="st0" points="40.5,30.6 32.3,22.5 19.7,22.5 19.7,21 32.9,21 41.5,29.5 				"/>
			</g>
			<g id="XMLID_291_">
				<rect id="XMLID_696_" x="31.3" y="8.1" class="st0" width="1.5" height="13.3"/>
			</g>
		</g>
	</g>
</g>
</svg>
