<?xml version="1.0" encoding="utf-8"?>
<!-- Generator: Adobe Illustrator 19.0.0, SVG Export Plug-In . SVG Version: 6.00 Build 0)  -->
<svg version="1.1" id="Layer_1" xmlns="http://www.w3.org/2000/svg" xmlns:xlink="http://www.w3.org/1999/xlink" x="0px" y="0px"
	 viewBox="0 0 86.6 75.2" style="enable-background:new 0 0 86.6 75.2;" xml:space="preserve">
<style type="text/css">
	.st0{fill:#CEE5EF;}
	.st1{fill:#76C7DF;}
	.st2{fill:#FFFFFF;}
	.st3{fill:#D1E8F6;}
	.st4{fill:url(#XMLID_28_);}
</style>
<g id="XMLID_68_">
	<g id="XMLID_701_">
		<path id="XMLID_1002_" class="st0" d="M85.8,51.4H0.8V2.7c0-1.1,0.9-2,2-2h81.1c1.1,0,2,0.9,2,2V51.4z"/>
	</g>
	<g id="XMLID_357_">
		<path id="XMLID_612_" class="st1" d="M86.6,52.1H0V2.7C0,1.2,1.2,0,2.7,0h8.6v1.5H2.7C2,1.5,1.5,2,1.5,2.7v47.9h83.6V2.7
			c0-0.7-0.5-1.2-1.2-1.2H18.7V0h65.1c1.5,0,2.7,1.2,2.7,2.7V52.1z"/>
	</g>
	<g id="XMLID_292_">
		<rect id="XMLID_610_" x="12.7" class="st1" width="4.5" height="1.5"/>
	</g>
	<g id="XMLID_697_">
		<rect id="XMLID_1001_" x="5.4" y="5.7" class="st2" width="75.9" height="40"/>
	</g>
	<g id="XMLID_290_">
		<rect id="XMLID_1128_" x="30.5" y="59" class="st3" width="25.6" height="15.2"/>
	</g>
	<g id="XMLID_289_">
		<path id="XMLID_606_" class="st1" d="M56.9,75H29.7V58.3h27.1V75z M31.2,73.5h24.1V59.8H31.2V73.5z"/>
	</g>
	<g id="XMLID_681_">
		<path id="XMLID_1122_" class="st2" d="M85.8,49.5H0.8V59c0,1.1,0.9,2,2,2h81.1c1.1,0,2-0.9,2-2V49.5z"/>
	</g>
	<g id="XMLID_285_">
		<path id="XMLID_603_" class="st1" d="M83.8,61.7H2.8C1.2,61.7,0,60.5,0,59V48.8h86.6V59C86.6,60.5,85.4,61.7,83.8,61.7z M1.5,50.3
			V59c0,0.7,0.6,1.2,1.3,1.2h81.1c0.7,0,1.2-0.6,1.2-1.2v-8.7H1.5z"/>
	</g>
	<g id="XMLID_679_">
		<rect id="XMLID_602_" x="25.5" y="73.7" class="st1" width="35.9" height="1.5"/>
	</g>
	<g id="XMLID_323_">
		<linearGradient id="XMLID_28_" gradientUnits="userSpaceOnUse" x1="8.2104" y1="20.7677" x2="48.2305" y2="20.7677">
			<stop  offset="0" style="stop-color:#D2DE41"/>
			<stop  offset="1" style="stop-color:#E5E761"/>
		</linearGradient>
		<rect id="XMLID_1114_" x="8.2" y="8.8" class="st4" width="40" height="23.9"/>
	</g>
	<g id="XMLID_315_">
		<polygon id="XMLID_1112_" class="st2" points="32.1,20 24.3,15.4 24.3,24.5 		"/>
	</g>
	<g id="XMLID_313_">
		<rect id="XMLID_1000_" x="50.5" y="8.8" class="st0" width="11.1" height="11.1"/>
	</g>
	<g id="XMLID_311_">
		<rect id="XMLID_1108_" x="50.5" y="21.5" class="st0" width="11.1" height="11.1"/>
	</g>
	<g id="XMLID_310_">
		<rect id="XMLID_1106_" x="50.5" y="34.2" class="st0" width="11.1" height="11.1"/>
	</g>
	<g id="XMLID_309_">
		<rect id="XMLID_601_" x="9.2" y="34.3" class="st1" width="14" height="1.5"/>
	</g>
	<g id="XMLID_308_">
		<rect id="XMLID_600_" x="63.9" y="10.7" class="st1" width="14" height="1.5"/>
	</g>
	<g id="XMLID_307_">
		<rect id="XMLID_599_" x="63.9" y="14.7" class="st1" width="14" height="1.5"/>
	</g>
	<g id="XMLID_305_">
		<rect id="XMLID_598_" x="63.9" y="23" class="st1" width="14" height="1.5"/>
	</g>
	<g id="XMLID_303_">
		<rect id="XMLID_584_" x="63.9" y="26.9" class="st1" width="14" height="1.5"/>
	</g>
	<g id="XMLID_301_">
		<rect id="XMLID_583_" x="63.9" y="36.2" class="st1" width="14" height="1.5"/>
	</g>
	<g id="XMLID_300_">
		<rect id="XMLID_574_" x="63.9" y="40.2" class="st1" width="14" height="1.5"/>
	</g>
	<g id="XMLID_296_">
		<rect id="XMLID_573_" x="9.2" y="39" class="st1" width="33" height="1.5"/>
	</g>
</g>
</svg>
