<?xml version="1.0" encoding="utf-8"?>
<!-- Generator: Adobe Illustrator 19.0.0, SVG Export Plug-In . SVG Version: 6.00 Build 0)  -->
<svg version="1.1" id="Layer_1" xmlns="http://www.w3.org/2000/svg" xmlns:xlink="http://www.w3.org/1999/xlink" x="0px" y="0px"
	 viewBox="0 0 76.1 56.6" style="enable-background:new 0 0 76.1 56.6;" xml:space="preserve">
<style type="text/css">
	.st0{fill:#76C7DF;}
	.st1{fill:#D1E8F6;}
	.st2{fill:#FFFFFF;}
</style>
<g id="XMLID_388_">
	<g id="XMLID_589_">
		<polygon id="XMLID_334_" class="st0" points="22.7,53.4 21.3,52.9 25.6,40.4 50.7,40.4 54.8,52.9 53.4,53.4 49.6,41.9 26.6,41.9 
					"/>
	</g>
	<g id="XMLID_588_">
		<path id="XMLID_198_" class="st1" d="M75.4,1.9c0-0.7-0.5-1.2-1.2-1.2H1.9c-0.7,0-1.2,0.5-1.2,1.2v37.6c0,0.7,0.5,1.2,1.2,1.2
			h72.3c0.7,0,1.2-0.5,1.2-1.2V1.9z"/>
	</g>
	<g id="XMLID_587_">
		<path id="XMLID_199_" class="st2" d="M75.4,38.6v4.9c0,1.7-1.4,3.2-3.2,3.2H3.9c-1.7,0-3.2-1.4-3.2-3.2v-4.9H75.4z"/>
	</g>
	<g id="XMLID_586_">
		<rect id="XMLID_212_" x="3.5" y="3.4" class="st2" width="69.1" height="32.5"/>
	</g>
	<g id="XMLID_584_">
		<path id="XMLID_333_" class="st0" d="M55.3,56.6H20.8c-1.1,0-2.1-0.9-2.1-2.1s0.9-2.1,2.1-2.1h13.4v1.5H20.8
			c-0.3,0-0.6,0.3-0.6,0.6s0.3,0.6,0.6,0.6h34.6c0.3,0,0.6-0.3,0.6-0.6s-0.3-0.6-0.6-0.6h-3.5v-1.5h3.5c1.1,0,2.1,0.9,2.1,2.1
			S56.5,56.6,55.3,56.6z"/>
	</g>
	<g id="XMLID_583_">
		<path id="XMLID_330_" class="st0" d="M74.2,46.8H1.9C0.9,46.8,0,46,0,44.9v-43C0,0.9,0.9,0,1.9,0h72.3c1.1,0,1.9,0.9,1.9,1.9v43
			C76.1,46,75.3,46.8,74.2,46.8z M1.9,1.5c-0.2,0-0.5,0.2-0.5,0.5v43c0,0.2,0.2,0.5,0.5,0.5h72.3c0.2,0,0.5-0.2,0.5-0.5v-43
			c0-0.2-0.2-0.5-0.5-0.5H1.9z"/>
	</g>
	<g id="XMLID_582_">
		<rect id="XMLID_329_" x="0.7" y="37.9" class="st0" width="74.7" height="1.5"/>
	</g>
</g>
</svg>
