<?xml version="1.0" encoding="utf-8"?>
<!-- Generator: Adobe Illustrator 19.0.0, SVG Export Plug-In . SVG Version: 6.00 Build 0)  -->
<svg version="1.1" id="Layer_1" xmlns="http://www.w3.org/2000/svg" xmlns:xlink="http://www.w3.org/1999/xlink" x="0px" y="0px"
	 viewBox="0 0 131.7 102.8" style="enable-background:new 0 0 131.7 102.8;" xml:space="preserve">
<style type="text/css">
	.st0{fill:#76C7DF;}
	.st1{fill:#FFFFFF;}
	.st2{fill:url(#XMLID_69_);}
</style>
<g id="XMLID_1_">
	<g id="XMLID_66_">
		<g id="XMLID_419_">
			<path id="XMLID_875_" class="st0" d="M15,93.1h-1.5c0-3.1,1.5-6.1,4.1-7.9l0.9,1.2C16.3,88,15,90.5,15,93.1z"/>
		</g>
		<g id="XMLID_138_">
			<path id="XMLID_874_" class="st0" d="M72.9,87.9h-1.5c0-2.3,1.9-4.3,4.3-4.3v1.5C74.2,85.2,72.9,86.4,72.9,87.9z"/>
		</g>
		<g id="XMLID_136_">
			<path id="XMLID_873_" class="st0" d="M104.9,73.6c-0.6-1.4-2.1-2.3-3.6-2.3c-0.6,0-1.1,0.1-1.6,0.3l-0.6-1.4
				c0.7-0.3,1.4-0.5,2.2-0.5c2.1,0,4.1,1.3,5,3.2L104.9,73.6z"/>
		</g>
		<g id="XMLID_133_">
			<path id="XMLID_872_" class="st0" d="M82.2,83.3c-2.1-2.1-3.2-4.8-3.2-7.8c0-2.9,1.1-5.7,3.2-7.8c2.1-2.1,4.8-3.2,7.8-3.2
				c2.9,0,5.7,1.1,7.8,3.2c2.1,2.1,3.2,4.8,3.2,7.8h-1.5c0-2.5-1-4.9-2.8-6.7c-1.8-1.8-4.2-2.8-6.7-2.8c-2.5,0-4.9,1-6.7,2.8
				c-1.8,1.8-2.8,4.2-2.8,6.7c0,2.5,1,4.9,2.8,6.7L82.2,83.3z"/>
		</g>
		<g id="XMLID_440_">
			<path id="XMLID_870_" class="st0" d="M81.2,89.1c-3.7,0-6.8-3-6.8-6.8c0-3.1,2.1-5.8,5-6.5l0.4,1.5c-2.3,0.6-3.9,2.7-3.9,5.1
				c0,2.9,2.4,5.3,5.3,5.3V89.1z"/>
		</g>
		<g id="XMLID_115_">
			<path id="XMLID_869_" class="st0" d="M47,86.4l-0.7-1.3c3.3-1.9,5.3-5.4,5.3-9.1c0-5.8-4.7-10.5-10.5-10.5
				c-5.8,0-10.5,4.7-10.5,10.5H29c0-6.6,5.4-12,12-12s12,5.4,12,12C53,80.3,50.7,84.3,47,86.4z"/>
		</g>
		<g id="XMLID_112_">
			<path id="XMLID_868_" class="st0" d="M27,74.5l-0.7-1.3c1.2-0.6,2.7-0.8,4-0.4l-0.4,1.4C28.9,73.9,27.9,74,27,74.5z"/>
		</g>
		<g id="XMLID_109_">
			<path id="XMLID_867_" class="st0" d="M51.1,89.5V88c1.6,0,3-1.3,3-3c0-1.6-1.3-3-3-3v-1.5c2.5,0,4.5,2,4.5,4.5
				C55.5,87.5,53.5,89.5,51.1,89.5z"/>
		</g>
		<g id="XMLID_514_">
			<path id="XMLID_866_" class="st0" d="M72.7,87.4h-0.9c-2.2,0-3.9-1.8-3.9-4V53h1.5v30.4c0,1.3,1.1,2.4,2.4,2.5h0.8V87.4z"/>
		</g>
		<g id="XMLID_512_">
			<path id="XMLID_865_" class="st0" d="M57.7,86.6h-2.9v-1.5h2.9c1.2,0,2.1-1,2.1-2.1V53h1.5V83C61.3,85,59.7,86.6,57.7,86.6z"/>
		</g>
		<g id="XMLID_81_">
			<path id="XMLID_864_" class="st0" d="M56.2,99.7c0-0.7,0.1-1.4,0.4-2.1c0.3-0.7,0.6-1.3,1.1-1.8c0.5-0.5,1.1-1,1.8-1.3
				c0.7-0.3,1.4-0.5,2.1-0.5c0.7,0,1.4,0.1,2.1,0.4c0.7,0.3,1.3,0.6,1.8,1.1l-1,1.1c-0.4-0.4-0.8-0.6-1.3-0.8
				c-0.5-0.2-1-0.3-1.5-0.3c-0.5,0-1.1,0.1-1.6,0.3c-0.5,0.2-0.9,0.5-1.3,0.9c-0.4,0.4-0.6,0.8-0.8,1.3c-0.2,0.5-0.3,1-0.3,1.5
				L56.2,99.7z"/>
		</g>
		<g id="XMLID_108_">
			<path id="XMLID_863_" class="st0" d="M32.5,88.2c0-0.7,0.1-1.4,0.4-2.1c0.3-0.7,0.6-1.3,1.1-1.8c0.5-0.5,1.1-1,1.8-1.3
				c0.7-0.3,1.4-0.5,2.1-0.5c0.7,0,1.4,0.1,2.1,0.4c0.7,0.3,1.3,0.6,1.8,1.1l-1,1.1c-0.4-0.4-0.8-0.6-1.3-0.8
				c-0.5-0.2-1-0.3-1.5-0.3c-0.5,0-1.1,0.1-1.6,0.3c-0.5,0.2-0.9,0.5-1.3,0.9c-0.4,0.4-0.6,0.8-0.8,1.3c-0.2,0.5-0.3,1-0.3,1.5
				L32.5,88.2z"/>
		</g>
		<g id="XMLID_111_">
			<path id="XMLID_862_" class="st0" d="M94.3,85.7l-1.4-0.5c0.2-0.5,0.3-1,0.3-1.5c0-0.5-0.1-1-0.3-1.5c-0.2-0.5-0.5-0.9-0.9-1.3
				c-0.4-0.4-0.9-0.7-1.4-0.8c-0.5-0.2-1-0.3-1.5-0.3c-0.5,0-1,0.1-1.5,0.3l-0.6-1.4c0.7-0.3,1.3-0.4,2.1-0.5c0.7,0,1.4,0.1,2.1,0.3
				c0.7,0.3,1.3,0.6,1.9,1.2c0.5,0.5,1,1.1,1.3,1.8c0.3,0.7,0.4,1.4,0.5,2.1C94.7,84.3,94.6,85,94.3,85.7z"/>
		</g>
		<g id="XMLID_134_">
			<path id="XMLID_861_" class="st0" d="M63.1,95.1l-1.5-0.2c0.1-0.7,0.3-1.4,0.7-2.1c0.4-0.6,0.9-1.2,1.5-1.6
				c0.6-0.4,1.2-0.7,1.9-0.9c0.7-0.2,1.4-0.2,2.1-0.1l-0.2,1.5c-0.5-0.1-1,0-1.5,0.1c-0.5,0.1-1,0.4-1.4,0.7
				c-0.4,0.3-0.8,0.7-1.1,1.2C63.4,94.1,63.2,94.6,63.1,95.1z"/>
		</g>
		<g id="XMLID_145_">
			<path id="XMLID_860_" class="st0" d="M94.7,96.1l-1.5-0.2c0.1-0.7,0.3-1.4,0.7-2.1c0.4-0.6,0.9-1.2,1.5-1.6
				c0.6-0.4,1.2-0.7,1.9-0.9c0.7-0.2,1.4-0.2,2.1-0.1l-0.2,1.5c-0.5-0.1-1,0-1.5,0.1c-0.5,0.1-1,0.4-1.4,0.7
				c-0.4,0.3-0.8,0.7-1.1,1.2C94.9,95.1,94.8,95.6,94.7,96.1z"/>
		</g>
		<g id="XMLID_146_">
			<path id="XMLID_859_" class="st0" d="M78.3,102c-0.7-0.2-1.3-0.6-1.9-1.1c-0.6-0.5-1-1.1-1.3-1.7c-0.3-0.6-0.5-1.3-0.5-2
				c0-0.7,0-1.4,0.3-2.1l1.4,0.5c-0.2,0.5-0.2,1-0.2,1.5c0,0.5,0.2,1,0.4,1.5c0.2,0.5,0.6,0.9,1,1.3c0.4,0.4,0.9,0.6,1.4,0.8
				L78.3,102z"/>
		</g>
		<g id="XMLID_147_">
			<path id="XMLID_858_" class="st0" d="M19.3,88c-1.4-1.4-2.1-3.2-2.1-5.2c0-4,3.3-7.3,7.3-7.3c1.7,0,3.3,0.6,4.6,1.7l-1,1.2
				c-1-0.9-2.3-1.3-3.7-1.3c-3.2,0-5.8,2.6-5.8,5.8c0,1.6,0.6,3,1.7,4.1L19.3,88z"/>
		</g>
		<g id="XMLID_149_">
			<path id="XMLID_857_" class="st0" d="M109.8,92.2l-0.7-1.3c2.9-1.4,4.8-4.5,5.1-8.1c0.2-2.1-0.5-4.1-2-5.8
				c-2.2-2.4-5.7-3.5-8.9-2.7l-0.4-1.5c3.7-0.9,7.8,0.4,10.3,3.2c1.8,2,2.6,4.4,2.4,6.9C115.4,87,113.1,90.6,109.8,92.2z"/>
		</g>
		<g id="XMLID_155_">
			<path id="XMLID_856_" class="st0" d="M6,95.3H4.5c0-4.1,3.4-7.5,7.5-7.5c1.2,0,2.3,0.3,3.3,0.8l-0.7,1.3
				c-0.8-0.4-1.7-0.6-2.7-0.6C8.7,89.3,6,92,6,95.3z"/>
		</g>
		<g id="XMLID_420_">
			<path id="XMLID_855_" class="st0" d="M6.2,102.8c-3.4,0-6.2-2.8-6.2-6.2c0-3.3,3.1-6.2,6.7-6.2v1.5c-2.7,0-5.2,2.3-5.2,4.7
				c0,2.6,2.1,4.7,4.7,4.7V102.8z"/>
		</g>
		<g id="XMLID_423_">
			<path id="XMLID_854_" class="st0" d="M123.2,99.5l-1.1-1c1.2-1.4,1.9-3.3,2.1-5.2c0.2-1.9-0.5-3.7-1.8-5.1
				c-1.9-2.1-4.9-3.1-7.7-2.5l-0.3-1.5c3.2-0.7,6.9,0.5,9.1,3c1.6,1.8,2.4,4,2.2,6.3C125.5,95.7,124.6,97.9,123.2,99.5z"/>
		</g>
		<g id="XMLID_152_">
			<path id="XMLID_853_" class="st0" d="M124.8,102.8v-1.5c2.9,0,5.2-2.3,5.4-5.5c0.1-1.3-0.3-2.5-1.2-3.5c-1.1-1.2-2.6-1.8-4.2-1.8
				v-1.5c2,0,4,0.9,5.3,2.3c1.2,1.3,1.8,3,1.6,4.7C131.3,99.9,128.4,102.8,124.8,102.8z"/>
		</g>
	</g>
	<g id="XMLID_153_">
		<g id="XMLID_192_">
			<path id="XMLID_1222_" class="st1" d="M66.1,55.6h-2.9c-0.5,0-1-0.5-1-1V49c0-0.5,0.5-1,1-1h2.9c0.6,0,1,0.5,1,1v5.6
				C67.1,55.1,66.6,55.6,66.1,55.6z"/>
		</g>
		<g id="XMLID_190_">
			<path id="XMLID_850_" class="st0" d="M66.1,56.4h-2.9c-1,0-1.8-0.8-1.8-1.8v-5.5c0-1,0.8-1.8,1.8-1.8h2.9c1,0,1.8,0.8,1.8,1.8
				v5.5C67.9,55.6,67.1,56.4,66.1,56.4z M63.2,48.8c-0.1,0-0.3,0.1-0.3,0.3v5.5c0,0.1,0.1,0.3,0.3,0.3h2.9c0.1,0,0.3-0.1,0.3-0.3
				v-5.5c0-0.1-0.1-0.3-0.3-0.3H63.2z"/>
		</g>
		<g id="XMLID_183_">
			<path id="XMLID_159_" class="st1" d="M81.3,17.3c0-9.1-7.4-16.5-16.5-16.5c-9.1,0-16.5,7.4-16.5,16.5c0,6.1,3.3,11.4,8.3,14.3
				v16.3l2.3,4.4h11.3l2.8-4.4V31.6C77.9,28.7,81.3,23.4,81.3,17.3z"/>
		</g>
		<g id="XMLID_181_">
			<polygon id="XMLID_167_" class="st1" points="73,47.9 70.2,52.3 58.9,52.3 56.5,47.9 			"/>
		</g>
		<g id="XMLID_180_">
			<path id="XMLID_849_" class="st0" d="M70.6,53.1H58.4l-2.6-5V32c-5.1-3.1-8.3-8.7-8.3-14.7c0-4.1,1.4-8,4.1-11.1l1.2,1
				C50.3,10,49,13.6,49,17.3c0,5.6,3,10.8,7.9,13.6l0.4,0.2v16.5l2,3.9h10.4l2.4-3.9V31.1l0.4-0.2c4.9-2.8,7.9-8,7.9-13.6
				c0-8.7-7.1-15.7-15.7-15.7c-2,0-4,0.4-5.9,1.1l-0.6-1.4C60.3,0.4,62.5,0,64.7,0C74.3,0,82,7.8,82,17.3c0,6-3.2,11.6-8.3,14.7
				v16.1L70.6,53.1z"/>
		</g>
		<g id="XMLID_179_">
			<path id="XMLID_848_" class="st0" d="M54.3,5.5l-1.1-1.1c1-1,1.6-1.3,2.6-1.9l0.3-0.2l0.8,1.3l-0.3,0.2
				C55.6,4.4,55.2,4.6,54.3,5.5z"/>
		</g>
		<g id="XMLID_566_">
			<rect id="XMLID_847_" x="54" y="35.9" class="st0" width="21.4" height="1.6"/>
		</g>
		<g id="XMLID_178_">
			<rect id="XMLID_846_" x="54" y="39.6" class="st0" width="21.4" height="1.6"/>
		</g>
		<g id="XMLID_177_">
			<rect id="XMLID_845_" x="54" y="43.3" class="st0" width="21.4" height="1.6"/>
		</g>
		<g id="XMLID_176_">
			<rect id="XMLID_844_" x="54" y="47.1" class="st0" width="21.4" height="1.6"/>
		</g>
		<g id="XMLID_175_">
			<linearGradient id="XMLID_69_" gradientUnits="userSpaceOnUse" x1="53.0081" y1="16.7981" x2="76.239" y2="16.7981">
				<stop  offset="0" style="stop-color:#D2DE41"/>
				<stop  offset="1" style="stop-color:#E5E761"/>
			</linearGradient>
			<circle id="XMLID_169_" class="st2" cx="64.6" cy="16.8" r="11.6"/>
		</g>
	</g>
</g>
</svg>
