<?xml version="1.0" encoding="utf-8"?>
<!-- Generator: Adobe Illustrator 19.0.0, SVG Export Plug-In . SVG Version: 6.00 Build 0)  -->
<svg version="1.1" id="Layer_1" xmlns="http://www.w3.org/2000/svg" xmlns:xlink="http://www.w3.org/1999/xlink" x="0px" y="0px"
	 viewBox="0 0 23.7 35.6" style="enable-background:new 0 0 23.7 35.6;" xml:space="preserve">
<style type="text/css">
	.st0{fill:#76C7DF;}
	.st1{fill:#D1E8F6;}
	.st2{fill:url(#XMLID_54_);}
	.st3{fill:url(#XMLID_55_);}
</style>
<g id="XMLID_173_">
	<g id="XMLID_200_">
		<g id="XMLID_211_">
			<path id="XMLID_708_" class="st0" d="M1.5,35.6H0V2.7C0,1.2,1.2,0,2.7,0h1.9v1.5H2.7c-0.7,0-1.2,0.6-1.2,1.2V35.6z"/>
		</g>
		<g id="XMLID_209_">
			<path id="XMLID_707_" class="st0" d="M23.7,30.1h-1.5V2.7c0-0.7-0.6-1.2-1.2-1.2h-9.2V0H21c1.5,0,2.7,1.2,2.7,2.7V30.1z"/>
		</g>
		<g id="XMLID_208_">
			<rect id="XMLID_706_" x="6.5" class="st0" width="3.1" height="1.5"/>
		</g>
		<g id="XMLID_207_">
			<rect id="XMLID_705_" x="8.6" y="2.7" class="st0" width="6.6" height="1.5"/>
		</g>
		<g id="XMLID_204_">
			<rect id="XMLID_1208_" x="3" y="5.9" class="st1" width="17.8" height="25"/>
		</g>
		<g id="XMLID_203_">
			<linearGradient id="XMLID_54_" gradientUnits="userSpaceOnUse" x1="2.9708" y1="9.802" x2="20.7414" y2="9.802">
				<stop  offset="0" style="stop-color:#8CD3E7"/>
				<stop  offset="1" style="stop-color:#B5E3F2"/>
			</linearGradient>
			<rect id="XMLID_1206_" x="3" y="5.9" class="st2" width="17.8" height="7.9"/>
		</g>
		<g id="XMLID_202_">
			<linearGradient id="XMLID_55_" gradientUnits="userSpaceOnUse" x1="2.9708" y1="16.1339" x2="20.7414" y2="16.1339">
				<stop  offset="0" style="stop-color:#8CD3E7"/>
				<stop  offset="1" style="stop-color:#B5E3F2"/>
			</linearGradient>
			<rect id="XMLID_1153_" x="3" y="15.3" class="st3" width="17.8" height="1.8"/>
		</g>
	</g>
</g>
</svg>
