<?xml version="1.0" encoding="utf-8"?>
<!-- Generator: Adobe Illustrator 16.0.0, SVG Export Plug-In . SVG Version: 6.00 Build 0)  -->
<!DOCTYPE svg PUBLIC "-//W3C//DTD SVG 1.1//EN" "http://www.w3.org/Graphics/SVG/1.1/DTD/svg11.dtd">
<svg version="1.1" id="Layer_1" xmlns="http://www.w3.org/2000/svg" xmlns:xlink="http://www.w3.org/1999/xlink" x="0px" y="0px"
	 width="1000px" height="291.34px" viewBox="0 0 1000 291.34" enable-background="new 0 0 1000 291.34" xml:space="preserve">
<path fill-rule="evenodd" clip-rule="evenodd" fill="#404041" d="M284.082,130.607c51.294,27.667,62.285,28.07,106.276,50.136
	c7.776,3.81,13.396,10.427,13.264,19.434c-0.071,6.618-3.293,12.764-8.69,16.59l-94.015,68.761
	c-4.695,3.846-8.927,5.813-14.323,5.813c-11.349,0-20.558-9.199-20.558-20.559c0-7.038,3.538-13.271,8.944-16.976
	c0.764-0.56,1.606-1.176,2.545-1.806c-0.026-0.054,27.166-17.608,25.946-54.474c-0.686-14.43-3.765-25.455-9.156-34.389h-0.007
	c-7.382-14.185-42.659-43.52-50.092-58.107C255.327,113.352,268.415,122.162,284.082,130.607"/>
<path fill-rule="evenodd" clip-rule="evenodd" fill="#404041" d="M269.335,140.315c-19.502-10.604-46.546-15.413-67.418-17.134
	c-19.758-2.37-47.012-5.741-47.566-31.019c-0.314-14.695,12.317-27.772,27.01-27.859c6.846-0.036,12.999,2.28,19.03,6.109
	c14.499,9.496,30.729,29.807,47.783,48.206l0.158,0.155c2.729,2.95,5.485,5.846,8.268,8.654c4.451,4.547,8.216,8.251,12.728,12.887
	H269.335z"/>
<path fill-rule="evenodd" clip-rule="evenodd" fill="#404041" d="M120.384,160.73c-51.296-27.665-62.292-28.069-106.286-50.136
	c-7.777-3.809-13.396-10.427-13.254-19.434c0.07-6.617,3.292-12.761,8.689-16.589L103.541,5.81C108.245,1.968,112.465,0,117.866,0
	c11.356,0,20.563,9.198,20.563,20.557c0,7.038-3.544,13.271-8.944,16.976c-0.762,0.562-1.614,1.158-2.546,1.808
	c0.027,0.054-27.173,17.606-25.954,54.474c0.684,14.43,3.775,25.452,9.163,34.39v0.017c7.391,14.167,42.667,43.501,50.094,58.087
	C149.138,177.988,136.051,169.176,120.384,160.73"/>
<path fill-rule="evenodd" clip-rule="evenodd" fill="#404041" d="M135.129,151.021c19.504,10.604,46.539,15.416,67.42,17.134
	c19.758,2.371,47.011,5.742,47.564,31.021c0.316,14.692-12.315,27.77-27.008,27.857c-6.846,0.037-13.008-2.28-19.037-6.108
	c-14.5-9.497-30.731-29.808-47.777-48.204l0,0l-0.156-0.158c-2.74-2.949-5.495-5.847-8.27-8.655
	C143.416,159.362,139.651,155.658,135.129,151.021z"/>
<path fill-rule="evenodd" clip-rule="evenodd" fill="#404041" d="M643.577,221.892c13.859,0,22.646,12.166,22.646,24.681
	c0,12.676-7.601,24.508-22.646,24.508c-15.044,0-22.654-11.832-22.654-24.508C620.923,234.058,628.698,221.892,643.577,221.892
	 M643.4,203.125c-26.532,0-43.096,19.61-43.096,43.447c0,24,16.221,43.434,43.272,43.434c27.043,0,43.438-19.434,43.438-43.434
	C687.016,222.735,669.944,203.125,643.4,203.125z M724.381,288.144v-64.058h16.888v-18.1h-16.888v-5.563
	c0-10.146,5.408-14.887,12.508-14.887c4.231,0,8.286,1.527,12.685,4.407l7.6-15.396c-6.758-4.388-14.359-6.759-21.636-6.759
	c-16.739,0-31.782,10.375-31.782,32.635v5.563h-13.367v18.1h13.367v64.058H724.381z M587.884,189.258
	c-8.961-18.257-28.087-23.56-46.485-23.487c-21.792,0.069-45.809,10.127-45.809,34.478c0,26.542,22.313,33.089,46.485,35.845
	c15.686,1.774,27.385,6.25,27.385,17.397c0,12.851-13.19,17.766-27.217,17.766c-14.369,0-28.062-5.758-33.304-18.767l-18.597,9.638
	c8.793,21.629,27.392,29.072,51.558,29.072c26.375,0,49.705-11.323,49.705-37.709c0-28.228-23.005-34.707-47.671-37.69
	c-14.174-1.719-26.375-4.563-26.375-14.867c0-8.796,7.943-15.73,24.516-15.73c12.841,0,23.997,6.425,28.062,13.185L587.884,189.258z
	 M779.372,85.649c3.038-10.814,12.165-16.221,23.32-16.221c11.841,0,20.294,5.406,21.646,16.221H779.372z M645.14,70.097
	c32.459,0,32.459,50.539,0,50.539c-13.693,0-24.674-9.462-24.674-25.348C620.466,79.4,631.446,70.097,645.14,70.097z M669.82,65.197
	c-4.729-8.284-15.403-13.481-26.534-13.517c-24.337-0.106-43.447,14.869-43.447,43.607c0,29.244,18.266,44.519,42.939,44.29
	c9.277-0.087,22.313-4.898,27.042-14.712l1.019,12.167h19.435V53.699h-19.777L669.82,65.197z M977.179,53.699l-15.211,36.515
	l-8.621,22.996l-7.941-23.505l-12.683-36.006h-24l32.171,84.614l-14.421,33.547h22.645L1000,53.699H977.179z M861.413,32.406v21.469
	h-12.286v17.748h12.286v36.005c0,20.784,11.833,31.037,29.923,30.422c6.241-0.21,11.156-1.175,17.063-3.546l-5.741-17.572
	c-3.045,1.511-6.767,2.528-9.979,2.528c-6.416,0-10.813-3.898-10.813-11.832V71.623h17.713V53.875h-17.547V30.211L861.413,32.406z
	 M587.884,38.147c-8.961-18.258-28.087-23.56-46.485-23.49c-21.792,0.072-45.809,10.129-45.809,34.479
	c0,26.542,22.313,33.09,46.478,35.847c15.693,1.771,27.393,6.248,27.393,17.396c0,12.851-13.19,17.765-27.217,17.765
	c-14.369,0-28.062-5.759-33.304-18.767l-18.597,9.62c8.793,21.646,27.392,29.089,51.558,29.089c26.375,0,49.705-11.34,49.705-37.707
	c0-28.229-23.005-34.705-47.679-37.69c-14.166-1.703-26.367-4.564-26.367-14.869c0-8.796,7.943-15.729,24.508-15.729
	c12.849,0,24.005,6.425,28.069,13.184L587.884,38.147z M737.503,137.033V72.976h16.889V54.875h-16.889v-5.563
	c0-10.146,5.407-14.888,12.508-14.888c4.232,0,8.287,1.528,12.686,4.408l7.6-15.396c-6.758-4.388-14.369-6.759-21.636-6.759
	c-16.729,0-31.775,10.376-31.775,32.635v5.563h-13.377v18.101h13.377v64.058H737.503z M844.113,102.731
	c3.212-34.322-14.201-51.559-42.097-51.559c-27.042,0-44.281,18.256-44.281,43.604c0,26.72,17.071,44.468,45.81,44.468
	c12.675,0,27.041-4.406,35.837-13.534l-13.191-13.008c-4.73,4.896-14.702,7.775-22.313,7.775c-14.535,0-23.496-7.442-24.849-17.746
	H844.113z M767.663,183.518v21.469h-12.288v17.749h12.288v36.004c0,20.785,11.831,31.037,29.921,30.422
	c6.242-0.209,11.157-1.176,17.073-3.546l-5.751-17.571c-3.035,1.509-6.756,2.528-9.97,2.528c-6.425,0-10.822-3.896-10.822-11.833
	v-36.004h17.721v-17.749h-17.546v-23.663L767.663,183.518z"/>
</svg>
